<ttFont>
    <TTGlyph name="A" xMin="40" yMin="0" xMax="439" yMax="650">
      <contour>
        <pt x="187" y="650" on="1"/>
        <pt x="292" y="650" on="1"/>
        <pt x="439" y="0" on="1"/>
        <pt x="369" y="0" on="1"/>
        <pt x="335" y="150" on="1"/>
        <pt x="144" y="150" on="1"/>
        <pt x="110" y="0" on="1"/>
        <pt x="40" y="0" on="1"/>
      </contour>
      <contour>
        <pt x="239" y="572" on="1"/>
        <pt x="157" y="210" on="1"/>
        <pt x="321" y="210" on="1"/>
      </contour>
    </TTGlyph>
    <TTGlyph name="AE" xMin="0" yMin="0" xMax="630" yMax="650">
      <contour>
        <pt x="620" y="650" on="1"/>
        <pt x="620" y="590" on="1"/>
        <pt x="405" y="590" on="1"/>
        <pt x="405" y="320" on="1"/>
        <pt x="580" y="320" on="1"/>
        <pt x="580" y="260" on="1"/>
        <pt x="405" y="260" on="1"/>
        <pt x="405" y="60" on="1"/>
        <pt x="630" y="60" on="1"/>
        <pt x="630" y="0" on="1"/>
        <pt x="335" y="0" on="1"/>
        <pt x="335" y="260" on="1"/>
        <pt x="165" y="260" on="1"/>
        <pt x="70" y="0" on="1"/>
        <pt x="0" y="0" on="1"/>
        <pt x="237" y="650" on="1"/>
      </contour>
      <contour>
        <pt x="335" y="320" on="1"/>
        <pt x="335" y="590" on="1"/>
        <pt x="285" y="590" on="1"/>
        <pt x="187" y="320" on="1"/>
      </contour>
    </TTGlyph>
    <TTGlyph name="AEacute" xMin="0" yMin="0" xMax="630" yMax="847">
      <contour>
        <pt x="620" y="650" on="1"/>
        <pt x="620" y="590" on="1"/>
        <pt x="405" y="590" on="1"/>
        <pt x="405" y="320" on="1"/>
        <pt x="580" y="320" on="1"/>
        <pt x="580" y="260" on="1"/>
        <pt x="405" y="260" on="1"/>
        <pt x="405" y="60" on="1"/>
        <pt x="630" y="60" on="1"/>
        <pt x="630" y="0" on="1"/>
        <pt x="335" y="0" on="1"/>
        <pt x="335" y="260" on="1"/>
        <pt x="165" y="260" on="1"/>
        <pt x="70" y="0" on="1"/>
        <pt x="0" y="0" on="1"/>
        <pt x="237" y="650" on="1"/>
      </contour>
      <contour>
        <pt x="335" y="320" on="1"/>
        <pt x="335" y="590" on="1"/>
        <pt x="285" y="590" on="1"/>
        <pt x="187" y="320" on="1"/>
      </contour>
      <contour>
        <pt x="524" y="793" on="1"/>
        <pt x="486" y="755" on="1"/>
        <pt x="373" y="698" on="1"/>
        <pt x="347" y="724" on="1"/>
        <pt x="470" y="847" on="1"/>
      </contour>
    </TTGlyph>
    <TTGlyph name="Aacute" xMin="40" yMin="0" xMax="439" yMax="847">
      <contour>
        <pt x="187" y="650" on="1"/>
        <pt x="292" y="650" on="1"/>
        <pt x="439" y="0" on="1"/>
        <pt x="369" y="0" on="1"/>
        <pt x="335" y="150" on="1"/>
        <pt x="144" y="150" on="1"/>
        <pt x="110" y="0" on="1"/>
        <pt x="40" y="0" on="1"/>
      </contour>
      <contour>
        <pt x="239" y="572" on="1"/>
        <pt x="157" y="210" on="1"/>
        <pt x="321" y="210" on="1"/>
      </contour>
      <contour>
        <pt x="328" y="793" on="1"/>
        <pt x="290" y="755" on="1"/>
        <pt x="177" y="698" on="1"/>
        <pt x="151" y="724" on="1"/>
        <pt x="274" y="847" on="1"/>
      </contour>
    </TTGlyph>
    <TTGlyph name="Abreve" xMin="40" yMin="0" xMax="439" yMax="816">
      <contour>
        <pt x="187" y="650" on="1"/>
        <pt x="292" y="650" on="1"/>
        <pt x="439" y="0" on="1"/>
        <pt x="369" y="0" on="1"/>
        <pt x="335" y="150" on="1"/>
        <pt x="144" y="150" on="1"/>
        <pt x="110" y="0" on="1"/>
        <pt x="40" y="0" on="1"/>
      </contour>
      <contour>
        <pt x="239" y="572" on="1"/>
        <pt x="157" y="210" on="1"/>
        <pt x="321" y="210" on="1"/>
      </contour>
      <contour>
        <pt x="196" y="816" on="1"/>
        <pt x="196" y="796" on="1"/>
        <pt x="196" y="765" on="0"/>
        <pt x="282" y="765" on="0"/>
        <pt x="282" y="796" on="1"/>
        <pt x="282" y="816" on="1"/>
        <pt x="337" y="816" on="1"/>
        <pt x="337" y="790" on="1"/>
        <pt x="337" y="715" on="0"/>
        <pt x="141" y="715" on="0"/>
        <pt x="141" y="790" on="1"/>
        <pt x="141" y="816" on="1"/>
      </contour>
    </TTGlyph>
    <TTGlyph name="Acircumflex" xMin="40" yMin="0" xMax="439" yMax="837">
      <contour>
        <pt x="187" y="650" on="1"/>
        <pt x="292" y="650" on="1"/>
        <pt x="439" y="0" on="1"/>
        <pt x="369" y="0" on="1"/>
        <pt x="335" y="150" on="1"/>
        <pt x="144" y="150" on="1"/>
        <pt x="110" y="0" on="1"/>
        <pt x="40" y="0" on="1"/>
      </contour>
      <contour>
        <pt x="239" y="572" on="1"/>
        <pt x="157" y="210" on="1"/>
        <pt x="321" y="210" on="1"/>
      </contour>
      <contour>
        <pt x="239" y="760" on="1"/>
        <pt x="151" y="698" on="1"/>
        <pt x="125" y="724" on="1"/>
        <pt x="223" y="837" on="1"/>
        <pt x="255" y="837" on="1"/>
        <pt x="353" y="724" on="1"/>
        <pt x="327" y="698" on="1"/>
      </contour>
    </TTGlyph>
    <TTGlyph name="Adieresis" xMin="40" yMin="0" xMax="439" yMax="825">
      <contour>
        <pt x="187" y="650" on="1"/>
        <pt x="292" y="650" on="1"/>
        <pt x="439" y="0" on="1"/>
        <pt x="369" y="0" on="1"/>
        <pt x="335" y="150" on="1"/>
        <pt x="144" y="150" on="1"/>
        <pt x="110" y="0" on="1"/>
        <pt x="40" y="0" on="1"/>
      </contour>
      <contour>
        <pt x="239" y="572" on="1"/>
        <pt x="157" y="210" on="1"/>
        <pt x="321" y="210" on="1"/>
      </contour>
      <contour>
        <pt x="204" y="715" on="1"/>
        <pt x="134" y="715" on="1"/>
        <pt x="134" y="825" on="1"/>
        <pt x="204" y="825" on="1"/>
      </contour>
      <contour>
        <pt x="344" y="715" on="1"/>
        <pt x="274" y="715" on="1"/>
        <pt x="274" y="825" on="1"/>
        <pt x="344" y="825" on="1"/>
      </contour>
    </TTGlyph>
    <TTGlyph name="Agrave" xMin="40" yMin="0" xMax="439" yMax="847">
      <contour>
        <pt x="187" y="650" on="1"/>
        <pt x="292" y="650" on="1"/>
        <pt x="439" y="0" on="1"/>
        <pt x="369" y="0" on="1"/>
        <pt x="335" y="150" on="1"/>
        <pt x="144" y="150" on="1"/>
        <pt x="110" y="0" on="1"/>
        <pt x="40" y="0" on="1"/>
      </contour>
      <contour>
        <pt x="239" y="572" on="1"/>
        <pt x="157" y="210" on="1"/>
        <pt x="321" y="210" on="1"/>
      </contour>
      <contour>
        <pt x="189" y="755" on="1"/>
        <pt x="151" y="793" on="1"/>
        <pt x="205" y="847" on="1"/>
        <pt x="328" y="724" on="1"/>
        <pt x="302" y="698" on="1"/>
      </contour>
    </TTGlyph>
    <TTGlyph name="Amacron" xMin="40" yMin="0" xMax="439" yMax="800">
      <contour>
        <pt x="187" y="650" on="1"/>
        <pt x="292" y="650" on="1"/>
        <pt x="439" y="0" on="1"/>
        <pt x="369" y="0" on="1"/>
        <pt x="335" y="150" on="1"/>
        <pt x="144" y="150" on="1"/>
        <pt x="110" y="0" on="1"/>
        <pt x="40" y="0" on="1"/>
      </contour>
      <contour>
        <pt x="239" y="572" on="1"/>
        <pt x="157" y="210" on="1"/>
        <pt x="321" y="210" on="1"/>
      </contour>
      <contour>
        <pt x="131" y="740" on="1"/>
        <pt x="131" y="800" on="1"/>
        <pt x="347" y="800" on="1"/>
        <pt x="347" y="740" on="1"/>
      </contour>
    </TTGlyph>
    <TTGlyph name="Aogonek" xMin="40" yMin="-240" xMax="458" yMax="650">
      <contour>
        <pt x="327" y="-124" on="1"/>
        <pt x="327" y="-166" on="1"/>
        <pt x="327" y="-197" on="0"/>
        <pt x="410" y="-197" on="0"/>
        <pt x="410" y="-166" on="1"/>
        <pt x="410" y="-136" on="1"/>
        <pt x="458" y="-136" on="1"/>
        <pt x="458" y="-164" on="1"/>
        <pt x="458" y="-240" on="0"/>
        <pt x="279" y="-240" on="0"/>
        <pt x="279" y="-164" on="1"/>
        <pt x="279" y="-124" on="1"/>
        <pt x="279" y="-79" on="0"/>
        <pt x="320" y="-41" on="1"/>
        <pt x="369" y="0" on="1"/>
        <pt x="335" y="150" on="1"/>
        <pt x="144" y="150" on="1"/>
        <pt x="110" y="0" on="1"/>
        <pt x="40" y="0" on="1"/>
        <pt x="187" y="650" on="1"/>
        <pt x="292" y="650" on="1"/>
        <pt x="439" y="0" on="1"/>
        <pt x="376" y="-51" on="1"/>
        <pt x="327" y="-91" on="0"/>
      </contour>
      <contour>
        <pt x="239" y="572" on="1"/>
        <pt x="157" y="210" on="1"/>
        <pt x="321" y="210" on="1"/>
      </contour>
    </TTGlyph>
    <TTGlyph name="Aring" xMin="40" yMin="0" xMax="439" yMax="855">
      <contour>
        <pt x="187" y="650" on="1"/>
        <pt x="292" y="650" on="1"/>
        <pt x="439" y="0" on="1"/>
        <pt x="369" y="0" on="1"/>
        <pt x="335" y="150" on="1"/>
        <pt x="144" y="150" on="1"/>
        <pt x="110" y="0" on="1"/>
        <pt x="40" y="0" on="1"/>
      </contour>
      <contour>
        <pt x="239" y="572" on="1"/>
        <pt x="157" y="210" on="1"/>
        <pt x="321" y="210" on="1"/>
      </contour>
      <contour>
        <pt x="324" y="780" on="1"/>
        <pt x="324" y="760" on="1"/>
        <pt x="324" y="685" on="0"/>
        <pt x="154" y="685" on="0"/>
        <pt x="154" y="760" on="1"/>
        <pt x="154" y="780" on="1"/>
        <pt x="154" y="855" on="0"/>
        <pt x="324" y="855" on="0"/>
      </contour>
      <contour>
        <pt x="204" y="780" on="1"/>
        <pt x="204" y="760" on="1"/>
        <pt x="204" y="729" on="0"/>
        <pt x="274" y="729" on="0"/>
        <pt x="274" y="760" on="1"/>
        <pt x="274" y="780" on="1"/>
        <pt x="274" y="811" on="0"/>
        <pt x="204" y="811" on="0"/>
      </contour>
    </TTGlyph>
    <TTGlyph name="Aringacute" xMin="40" yMin="0" xMax="439" yMax="917">
      <contour>
        <pt x="187" y="650" on="1"/>
        <pt x="292" y="650" on="1"/>
        <pt x="439" y="0" on="1"/>
        <pt x="369" y="0" on="1"/>
        <pt x="335" y="150" on="1"/>
        <pt x="144" y="150" on="1"/>
        <pt x="110" y="0" on="1"/>
        <pt x="40" y="0" on="1"/>
      </contour>
      <contour>
        <pt x="239" y="572" on="1"/>
        <pt x="157" y="210" on="1"/>
        <pt x="321" y="210" on="1"/>
      </contour>
      <contour>
        <pt x="323" y="780" on="1"/>
        <pt x="323" y="760" on="1"/>
        <pt x="323" y="685" on="0"/>
        <pt x="153" y="685" on="0"/>
        <pt x="153" y="760" on="1"/>
        <pt x="153" y="780" on="1"/>
        <pt x="153" y="855" on="0"/>
        <pt x="238" y="855" on="1"/>
        <pt x="264" y="855" on="0"/>
        <pt x="283" y="847" on="1"/>
        <pt x="353" y="917" on="1"/>
        <pt x="407" y="863" on="1"/>
        <pt x="369" y="825" on="1"/>
        <pt x="318" y="810" on="1"/>
        <pt x="323" y="795" on="0"/>
      </contour>
      <contour>
        <pt x="203" y="780" on="1"/>
        <pt x="203" y="760" on="1"/>
        <pt x="203" y="729" on="0"/>
        <pt x="273" y="729" on="0"/>
        <pt x="273" y="760" on="1"/>
        <pt x="273" y="780" on="1"/>
        <pt x="273" y="811" on="0"/>
        <pt x="203" y="811" on="0"/>
      </contour>
    </TTGlyph>
    <TTGlyph name="Atilde" xMin="40" yMin="0" xMax="439" yMax="819">
      <contour>
        <pt x="187" y="650" on="1"/>
        <pt x="292" y="650" on="1"/>
        <pt x="439" y="0" on="1"/>
        <pt x="369" y="0" on="1"/>
        <pt x="335" y="150" on="1"/>
        <pt x="144" y="150" on="1"/>
        <pt x="110" y="0" on="1"/>
        <pt x="40" y="0" on="1"/>
      </contour>
      <contour>
        <pt x="239" y="572" on="1"/>
        <pt x="157" y="210" on="1"/>
        <pt x="321" y="210" on="1"/>
      </contour>
      <contour>
        <pt x="282" y="759" on="1"/>
        <pt x="267" y="759" on="0"/>
        <pt x="211" y="721" on="0"/>
        <pt x="160" y="721" on="0"/>
        <pt x="124" y="761" on="0"/>
        <pt x="121" y="795" on="1"/>
        <pt x="162" y="809" on="1"/>
        <pt x="172" y="781" on="0"/>
        <pt x="196" y="781" on="1"/>
        <pt x="211" y="781" on="0"/>
        <pt x="267" y="819" on="0"/>
        <pt x="318" y="819" on="0"/>
        <pt x="354" y="779" on="0"/>
        <pt x="357" y="745" on="1"/>
        <pt x="316" y="731" on="1"/>
        <pt x="306" y="759" on="0"/>
      </contour>
    </TTGlyph>
    <TTGlyph name="B" xMin="100" yMin="0" xMax="420" yMax="650">
      <contour>
        <pt x="100" y="650" on="1"/>
        <pt x="251" y="650" on="1"/>
        <pt x="329" y="650" on="0"/>
        <pt x="410" y="576" on="0"/>
        <pt x="410" y="510" on="1"/>
        <pt x="410" y="450" on="1"/>
        <pt x="410" y="365" on="0"/>
        <pt x="339" y="341" on="1"/>
        <pt x="420" y="319" on="0"/>
        <pt x="420" y="230" on="1"/>
        <pt x="420" y="140" on="1"/>
        <pt x="420" y="73" on="0"/>
        <pt x="340" y="0" on="0"/>
        <pt x="261" y="0" on="1"/>
        <pt x="100" y="0" on="1"/>
      </contour>
      <contour>
        <pt x="350" y="140" on="1"/>
        <pt x="350" y="230" on="1"/>
        <pt x="350" y="262" on="0"/>
        <pt x="302" y="315" on="0"/>
        <pt x="261" y="315" on="1"/>
        <pt x="170" y="315" on="1"/>
        <pt x="170" y="60" on="1"/>
        <pt x="261" y="60" on="1"/>
        <pt x="303" y="60" on="0"/>
        <pt x="350" y="107" on="0"/>
      </contour>
      <contour>
        <pt x="340" y="450" on="1"/>
        <pt x="340" y="510" on="1"/>
        <pt x="340" y="542" on="0"/>
        <pt x="293" y="590" on="0"/>
        <pt x="251" y="590" on="1"/>
        <pt x="170" y="590" on="1"/>
        <pt x="170" y="365" on="1"/>
        <pt x="251" y="365" on="1"/>
        <pt x="293" y="365" on="0"/>
        <pt x="340" y="417" on="0"/>
      </contour>
    </TTGlyph>
    <TTGlyph name="C" xMin="85" yMin="-15" xMax="415" yMax="665">
      <contour>
        <pt x="345" y="125" on="1"/>
        <pt x="345" y="180" on="1"/>
        <pt x="415" y="180" on="1"/>
        <pt x="415" y="125" on="1"/>
        <pt x="415" y="58" on="0"/>
        <pt x="333" y="-15" on="0"/>
        <pt x="169" y="-15" on="0"/>
        <pt x="85" y="58" on="0"/>
        <pt x="85" y="125" on="1"/>
        <pt x="85" y="525" on="1"/>
        <pt x="85" y="592" on="0"/>
        <pt x="167" y="665" on="0"/>
        <pt x="331" y="665" on="0"/>
        <pt x="415" y="592" on="0"/>
        <pt x="415" y="525" on="1"/>
        <pt x="415" y="430" on="1"/>
        <pt x="345" y="430" on="1"/>
        <pt x="345" y="525" on="1"/>
        <pt x="345" y="605" on="0"/>
        <pt x="155" y="605" on="0"/>
        <pt x="155" y="525" on="1"/>
        <pt x="155" y="125" on="1"/>
        <pt x="155" y="45" on="0"/>
        <pt x="345" y="45" on="0"/>
      </contour>
    </TTGlyph>
    <TTGlyph name="Cacute" xMin="85" yMin="-15" xMax="415" yMax="847">
      <contour>
        <pt x="345" y="125" on="1"/>
        <pt x="345" y="180" on="1"/>
        <pt x="415" y="180" on="1"/>
        <pt x="415" y="125" on="1"/>
        <pt x="415" y="58" on="0"/>
        <pt x="333" y="-15" on="0"/>
        <pt x="169" y="-15" on="0"/>
        <pt x="85" y="58" on="0"/>
        <pt x="85" y="125" on="1"/>
        <pt x="85" y="525" on="1"/>
        <pt x="85" y="592" on="0"/>
        <pt x="167" y="665" on="0"/>
        <pt x="331" y="665" on="0"/>
        <pt x="415" y="592" on="0"/>
        <pt x="415" y="525" on="1"/>
        <pt x="415" y="430" on="1"/>
        <pt x="345" y="430" on="1"/>
        <pt x="345" y="525" on="1"/>
        <pt x="345" y="605" on="0"/>
        <pt x="155" y="605" on="0"/>
        <pt x="155" y="525" on="1"/>
        <pt x="155" y="125" on="1"/>
        <pt x="155" y="45" on="0"/>
        <pt x="345" y="45" on="0"/>
      </contour>
      <contour>
        <pt x="333" y="793" on="1"/>
        <pt x="295" y="755" on="1"/>
        <pt x="182" y="698" on="1"/>
        <pt x="156" y="724" on="1"/>
        <pt x="279" y="847" on="1"/>
      </contour>
    </TTGlyph>
    <TTGlyph name="Ccaron" xMin="85" yMin="-15" xMax="415" yMax="840">
      <contour>
        <pt x="345" y="125" on="1"/>
        <pt x="345" y="180" on="1"/>
        <pt x="415" y="180" on="1"/>
        <pt x="415" y="125" on="1"/>
        <pt x="415" y="58" on="0"/>
        <pt x="333" y="-15" on="0"/>
        <pt x="169" y="-15" on="0"/>
        <pt x="85" y="58" on="0"/>
        <pt x="85" y="125" on="1"/>
        <pt x="85" y="525" on="1"/>
        <pt x="85" y="592" on="0"/>
        <pt x="167" y="665" on="0"/>
        <pt x="331" y="665" on="0"/>
        <pt x="415" y="592" on="0"/>
        <pt x="415" y="525" on="1"/>
        <pt x="415" y="430" on="1"/>
        <pt x="345" y="430" on="1"/>
        <pt x="345" y="525" on="1"/>
        <pt x="345" y="605" on="0"/>
        <pt x="155" y="605" on="0"/>
        <pt x="155" y="525" on="1"/>
        <pt x="155" y="125" on="1"/>
        <pt x="155" y="45" on="0"/>
        <pt x="345" y="45" on="0"/>
      </contour>
      <contour>
        <pt x="245" y="778" on="1"/>
        <pt x="333" y="840" on="1"/>
        <pt x="359" y="814" on="1"/>
        <pt x="261" y="701" on="1"/>
        <pt x="229" y="701" on="1"/>
        <pt x="131" y="814" on="1"/>
        <pt x="157" y="840" on="1"/>
      </contour>
    </TTGlyph>
    <TTGlyph name="Ccedilla" xMin="85" yMin="-240" xMax="415" yMax="665">
      <contour>
        <pt x="345" y="125" on="1"/>
        <pt x="345" y="180" on="1"/>
        <pt x="415" y="180" on="1"/>
        <pt x="415" y="125" on="1"/>
        <pt x="415" y="-8" on="0"/>
        <pt x="264" y="-14" on="1"/>
        <pt x="255" y="-62" on="1"/>
        <pt x="260" y="-62" on="1"/>
        <pt x="301" y="-62" on="0"/>
        <pt x="344" y="-105" on="0"/>
        <pt x="344" y="-141" on="1"/>
        <pt x="344" y="-164" on="1"/>
        <pt x="344" y="-240" on="0"/>
        <pt x="165" y="-240" on="0"/>
        <pt x="165" y="-164" on="1"/>
        <pt x="165" y="-156" on="1"/>
        <pt x="213" y="-156" on="1"/>
        <pt x="213" y="-166" on="1"/>
        <pt x="213" y="-197" on="0"/>
        <pt x="296" y="-197" on="0"/>
        <pt x="296" y="-166" on="1"/>
        <pt x="296" y="-141" on="1"/>
        <pt x="296" y="-127" on="0"/>
        <pt x="276" y="-105" on="0"/>
        <pt x="260" y="-105" on="1"/>
        <pt x="200" y="-105" on="1"/>
        <pt x="218" y="-13" on="1"/>
        <pt x="152" y="-6" on="0"/>
        <pt x="85" y="65" on="0"/>
        <pt x="85" y="125" on="1"/>
        <pt x="85" y="525" on="1"/>
        <pt x="85" y="592" on="0"/>
        <pt x="167" y="665" on="0"/>
        <pt x="331" y="665" on="0"/>
        <pt x="415" y="592" on="0"/>
        <pt x="415" y="525" on="1"/>
        <pt x="415" y="430" on="1"/>
        <pt x="345" y="430" on="1"/>
        <pt x="345" y="525" on="1"/>
        <pt x="345" y="605" on="0"/>
        <pt x="155" y="605" on="0"/>
        <pt x="155" y="525" on="1"/>
        <pt x="155" y="125" on="1"/>
        <pt x="155" y="45" on="0"/>
        <pt x="345" y="45" on="0"/>
      </contour>
    </TTGlyph>
    <TTGlyph name="Ccircumflex" xMin="85" yMin="-15" xMax="415" yMax="837">
      <contour>
        <pt x="345" y="125" on="1"/>
        <pt x="345" y="180" on="1"/>
        <pt x="415" y="180" on="1"/>
        <pt x="415" y="125" on="1"/>
        <pt x="415" y="58" on="0"/>
        <pt x="333" y="-15" on="0"/>
        <pt x="169" y="-15" on="0"/>
        <pt x="85" y="58" on="0"/>
        <pt x="85" y="125" on="1"/>
        <pt x="85" y="525" on="1"/>
        <pt x="85" y="592" on="0"/>
        <pt x="167" y="665" on="0"/>
        <pt x="331" y="665" on="0"/>
        <pt x="415" y="592" on="0"/>
        <pt x="415" y="525" on="1"/>
        <pt x="415" y="430" on="1"/>
        <pt x="345" y="430" on="1"/>
        <pt x="345" y="525" on="1"/>
        <pt x="345" y="605" on="0"/>
        <pt x="155" y="605" on="0"/>
        <pt x="155" y="525" on="1"/>
        <pt x="155" y="125" on="1"/>
        <pt x="155" y="45" on="0"/>
        <pt x="345" y="45" on="0"/>
      </contour>
      <contour>
        <pt x="245" y="760" on="1"/>
        <pt x="157" y="698" on="1"/>
        <pt x="131" y="724" on="1"/>
        <pt x="229" y="837" on="1"/>
        <pt x="261" y="837" on="1"/>
        <pt x="359" y="724" on="1"/>
        <pt x="333" y="698" on="1"/>
      </contour>
    </TTGlyph>
    <TTGlyph name="Cdotaccent" xMin="85" yMin="-15" xMax="415" yMax="825">
      <contour>
        <pt x="345" y="125" on="1"/>
        <pt x="345" y="180" on="1"/>
        <pt x="415" y="180" on="1"/>
        <pt x="415" y="125" on="1"/>
        <pt x="415" y="58" on="0"/>
        <pt x="333" y="-15" on="0"/>
        <pt x="169" y="-15" on="0"/>
        <pt x="85" y="58" on="0"/>
        <pt x="85" y="125" on="1"/>
        <pt x="85" y="525" on="1"/>
        <pt x="85" y="592" on="0"/>
        <pt x="167" y="665" on="0"/>
        <pt x="331" y="665" on="0"/>
        <pt x="415" y="592" on="0"/>
        <pt x="415" y="525" on="1"/>
        <pt x="415" y="430" on="1"/>
        <pt x="345" y="430" on="1"/>
        <pt x="345" y="525" on="1"/>
        <pt x="345" y="605" on="0"/>
        <pt x="155" y="605" on="0"/>
        <pt x="155" y="525" on="1"/>
        <pt x="155" y="125" on="1"/>
        <pt x="155" y="45" on="0"/>
        <pt x="345" y="45" on="0"/>
      </contour>
      <contour>
        <pt x="285" y="715" on="1"/>
        <pt x="205" y="715" on="1"/>
        <pt x="205" y="825" on="1"/>
        <pt x="285" y="825" on="1"/>
      </contour>
    </TTGlyph>
    <TTGlyph name="D" xMin="100" yMin="0" xMax="420" yMax="650">
      <contour>
        <pt x="261" y="0" on="1"/>
        <pt x="100" y="0" on="1"/>
        <pt x="100" y="650" on="1"/>
        <pt x="261" y="650" on="1"/>
        <pt x="339" y="650" on="0"/>
        <pt x="420" y="576" on="0"/>
        <pt x="420" y="510" on="1"/>
        <pt x="420" y="140" on="1"/>
        <pt x="420" y="73" on="0"/>
        <pt x="340" y="0" on="0"/>
      </contour>
      <contour>
        <pt x="350" y="140" on="1"/>
        <pt x="350" y="510" on="1"/>
        <pt x="350" y="542" on="0"/>
        <pt x="303" y="590" on="0"/>
        <pt x="261" y="590" on="1"/>
        <pt x="170" y="590" on="1"/>
        <pt x="170" y="60" on="1"/>
        <pt x="261" y="60" on="1"/>
        <pt x="303" y="60" on="0"/>
        <pt x="350" y="107" on="0"/>
      </contour>
    </TTGlyph>
    <TTGlyph name="Dcaron" xMin="100" yMin="0" xMax="420" yMax="840">
      <contour>
        <pt x="261" y="0" on="1"/>
        <pt x="100" y="0" on="1"/>
        <pt x="100" y="650" on="1"/>
        <pt x="261" y="650" on="1"/>
        <pt x="339" y="650" on="0"/>
        <pt x="420" y="576" on="0"/>
        <pt x="420" y="510" on="1"/>
        <pt x="420" y="140" on="1"/>
        <pt x="420" y="73" on="0"/>
        <pt x="340" y="0" on="0"/>
      </contour>
      <contour>
        <pt x="350" y="140" on="1"/>
        <pt x="350" y="510" on="1"/>
        <pt x="350" y="542" on="0"/>
        <pt x="303" y="590" on="0"/>
        <pt x="261" y="590" on="1"/>
        <pt x="170" y="590" on="1"/>
        <pt x="170" y="60" on="1"/>
        <pt x="261" y="60" on="1"/>
        <pt x="303" y="60" on="0"/>
        <pt x="350" y="107" on="0"/>
      </contour>
      <contour>
        <pt x="252" y="778" on="1"/>
        <pt x="340" y="840" on="1"/>
        <pt x="366" y="814" on="1"/>
        <pt x="268" y="701" on="1"/>
        <pt x="236" y="701" on="1"/>
        <pt x="138" y="814" on="1"/>
        <pt x="164" y="840" on="1"/>
      </contour>
    </TTGlyph>
    <TTGlyph name="Dcroat" xMin="31" yMin="0" xMax="420" yMax="650">
      <contour>
        <pt x="31" y="305" on="1"/>
        <pt x="31" y="355" on="1"/>
        <pt x="100" y="355" on="1"/>
        <pt x="100" y="650" on="1"/>
        <pt x="261" y="650" on="1"/>
        <pt x="339" y="650" on="0"/>
        <pt x="420" y="576" on="0"/>
        <pt x="420" y="510" on="1"/>
        <pt x="420" y="140" on="1"/>
        <pt x="420" y="73" on="0"/>
        <pt x="340" y="0" on="0"/>
        <pt x="261" y="0" on="1"/>
        <pt x="100" y="0" on="1"/>
        <pt x="100" y="305" on="1"/>
      </contour>
      <contour>
        <pt x="350" y="140" on="1"/>
        <pt x="350" y="510" on="1"/>
        <pt x="350" y="542" on="0"/>
        <pt x="303" y="590" on="0"/>
        <pt x="261" y="590" on="1"/>
        <pt x="170" y="590" on="1"/>
        <pt x="170" y="355" on="1"/>
        <pt x="291" y="355" on="1"/>
        <pt x="291" y="305" on="1"/>
        <pt x="170" y="305" on="1"/>
        <pt x="170" y="60" on="1"/>
        <pt x="261" y="60" on="1"/>
        <pt x="303" y="60" on="0"/>
        <pt x="350" y="107" on="0"/>
      </contour>
    </TTGlyph>
    <TTGlyph name="Delta" xMin="50" yMin="0" xMax="489" yMax="650">
      <contour>
        <pt x="50" y="0" on="1"/>
        <pt x="50" y="55" on="1"/>
        <pt x="245" y="650" on="1"/>
        <pt x="294" y="650" on="1"/>
        <pt x="489" y="55" on="1"/>
        <pt x="489" y="0" on="1"/>
      </contour>
      <contour>
        <pt x="419" y="60" on="1"/>
        <pt x="269" y="526" on="1"/>
        <pt x="120" y="60" on="1"/>
      </contour>
    </TTGlyph>
    <TTGlyph name="E" xMin="100" yMin="0" xMax="395" yMax="650">
      <contour>
        <pt x="395" y="0" on="1"/>
        <pt x="100" y="0" on="1"/>
        <pt x="100" y="650" on="1"/>
        <pt x="385" y="650" on="1"/>
        <pt x="385" y="590" on="1"/>
        <pt x="170" y="590" on="1"/>
        <pt x="170" y="360" on="1"/>
        <pt x="345" y="360" on="1"/>
        <pt x="345" y="300" on="1"/>
        <pt x="170" y="300" on="1"/>
        <pt x="170" y="60" on="1"/>
        <pt x="395" y="60" on="1"/>
      </contour>
    </TTGlyph>
    <TTGlyph name="Eacute" xMin="100" yMin="0" xMax="395" yMax="847">
      <contour>
        <pt x="395" y="0" on="1"/>
        <pt x="100" y="0" on="1"/>
        <pt x="100" y="650" on="1"/>
        <pt x="385" y="650" on="1"/>
        <pt x="385" y="590" on="1"/>
        <pt x="170" y="590" on="1"/>
        <pt x="170" y="360" on="1"/>
        <pt x="345" y="360" on="1"/>
        <pt x="345" y="300" on="1"/>
        <pt x="170" y="300" on="1"/>
        <pt x="170" y="60" on="1"/>
        <pt x="395" y="60" on="1"/>
      </contour>
      <contour>
        <pt x="341" y="793" on="1"/>
        <pt x="303" y="755" on="1"/>
        <pt x="190" y="698" on="1"/>
        <pt x="164" y="724" on="1"/>
        <pt x="287" y="847" on="1"/>
      </contour>
    </TTGlyph>
    <TTGlyph name="Ebreve" xMin="100" yMin="0" xMax="395" yMax="816">
      <contour>
        <pt x="395" y="0" on="1"/>
        <pt x="100" y="0" on="1"/>
        <pt x="100" y="650" on="1"/>
        <pt x="385" y="650" on="1"/>
        <pt x="385" y="590" on="1"/>
        <pt x="170" y="590" on="1"/>
        <pt x="170" y="360" on="1"/>
        <pt x="345" y="360" on="1"/>
        <pt x="345" y="300" on="1"/>
        <pt x="170" y="300" on="1"/>
        <pt x="170" y="60" on="1"/>
        <pt x="395" y="60" on="1"/>
      </contour>
      <contour>
        <pt x="209" y="816" on="1"/>
        <pt x="209" y="796" on="1"/>
        <pt x="209" y="765" on="0"/>
        <pt x="295" y="765" on="0"/>
        <pt x="295" y="796" on="1"/>
        <pt x="295" y="816" on="1"/>
        <pt x="350" y="816" on="1"/>
        <pt x="350" y="790" on="1"/>
        <pt x="350" y="715" on="0"/>
        <pt x="154" y="715" on="0"/>
        <pt x="154" y="790" on="1"/>
        <pt x="154" y="816" on="1"/>
      </contour>
    </TTGlyph>
    <TTGlyph name="Ecaron" xMin="100" yMin="0" xMax="395" yMax="840">
      <contour>
        <pt x="395" y="0" on="1"/>
        <pt x="100" y="0" on="1"/>
        <pt x="100" y="650" on="1"/>
        <pt x="385" y="650" on="1"/>
        <pt x="385" y="590" on="1"/>
        <pt x="170" y="590" on="1"/>
        <pt x="170" y="360" on="1"/>
        <pt x="345" y="360" on="1"/>
        <pt x="345" y="300" on="1"/>
        <pt x="170" y="300" on="1"/>
        <pt x="170" y="60" on="1"/>
        <pt x="395" y="60" on="1"/>
      </contour>
      <contour>
        <pt x="252" y="778" on="1"/>
        <pt x="340" y="840" on="1"/>
        <pt x="366" y="814" on="1"/>
        <pt x="268" y="701" on="1"/>
        <pt x="236" y="701" on="1"/>
        <pt x="138" y="814" on="1"/>
        <pt x="164" y="840" on="1"/>
      </contour>
    </TTGlyph>
    <TTGlyph name="Ecircumflex" xMin="100" yMin="0" xMax="395" yMax="837">
      <contour>
        <pt x="395" y="0" on="1"/>
        <pt x="100" y="0" on="1"/>
        <pt x="100" y="650" on="1"/>
        <pt x="385" y="650" on="1"/>
        <pt x="385" y="590" on="1"/>
        <pt x="170" y="590" on="1"/>
        <pt x="170" y="360" on="1"/>
        <pt x="345" y="360" on="1"/>
        <pt x="345" y="300" on="1"/>
        <pt x="170" y="300" on="1"/>
        <pt x="170" y="60" on="1"/>
        <pt x="395" y="60" on="1"/>
      </contour>
      <contour>
        <pt x="252" y="760" on="1"/>
        <pt x="164" y="698" on="1"/>
        <pt x="138" y="724" on="1"/>
        <pt x="236" y="837" on="1"/>
        <pt x="268" y="837" on="1"/>
        <pt x="366" y="724" on="1"/>
        <pt x="340" y="698" on="1"/>
      </contour>
    </TTGlyph>
    <TTGlyph name="Edieresis" xMin="100" yMin="0" xMax="395" yMax="825">
      <contour>
        <pt x="395" y="0" on="1"/>
        <pt x="100" y="0" on="1"/>
        <pt x="100" y="650" on="1"/>
        <pt x="385" y="650" on="1"/>
        <pt x="385" y="590" on="1"/>
        <pt x="170" y="590" on="1"/>
        <pt x="170" y="360" on="1"/>
        <pt x="345" y="360" on="1"/>
        <pt x="345" y="300" on="1"/>
        <pt x="170" y="300" on="1"/>
        <pt x="170" y="60" on="1"/>
        <pt x="395" y="60" on="1"/>
      </contour>
      <contour>
        <pt x="217" y="715" on="1"/>
        <pt x="147" y="715" on="1"/>
        <pt x="147" y="825" on="1"/>
        <pt x="217" y="825" on="1"/>
      </contour>
      <contour>
        <pt x="357" y="715" on="1"/>
        <pt x="287" y="715" on="1"/>
        <pt x="287" y="825" on="1"/>
        <pt x="357" y="825" on="1"/>
      </contour>
    </TTGlyph>
    <TTGlyph name="Edotaccent" xMin="100" yMin="0" xMax="395" yMax="825">
      <contour>
        <pt x="395" y="0" on="1"/>
        <pt x="100" y="0" on="1"/>
        <pt x="100" y="650" on="1"/>
        <pt x="385" y="650" on="1"/>
        <pt x="385" y="590" on="1"/>
        <pt x="170" y="590" on="1"/>
        <pt x="170" y="360" on="1"/>
        <pt x="345" y="360" on="1"/>
        <pt x="345" y="300" on="1"/>
        <pt x="170" y="300" on="1"/>
        <pt x="170" y="60" on="1"/>
        <pt x="395" y="60" on="1"/>
      </contour>
      <contour>
        <pt x="292" y="715" on="1"/>
        <pt x="212" y="715" on="1"/>
        <pt x="212" y="825" on="1"/>
        <pt x="292" y="825" on="1"/>
      </contour>
    </TTGlyph>
    <TTGlyph name="Egrave" xMin="100" yMin="0" xMax="395" yMax="847">
      <contour>
        <pt x="395" y="0" on="1"/>
        <pt x="100" y="0" on="1"/>
        <pt x="100" y="650" on="1"/>
        <pt x="385" y="650" on="1"/>
        <pt x="385" y="590" on="1"/>
        <pt x="170" y="590" on="1"/>
        <pt x="170" y="360" on="1"/>
        <pt x="345" y="360" on="1"/>
        <pt x="345" y="300" on="1"/>
        <pt x="170" y="300" on="1"/>
        <pt x="170" y="60" on="1"/>
        <pt x="395" y="60" on="1"/>
      </contour>
      <contour>
        <pt x="192" y="755" on="1"/>
        <pt x="154" y="793" on="1"/>
        <pt x="208" y="847" on="1"/>
        <pt x="331" y="724" on="1"/>
        <pt x="305" y="698" on="1"/>
      </contour>
    </TTGlyph>
    <TTGlyph name="Emacron" xMin="100" yMin="0" xMax="395" yMax="800">
      <contour>
        <pt x="395" y="0" on="1"/>
        <pt x="100" y="0" on="1"/>
        <pt x="100" y="650" on="1"/>
        <pt x="385" y="650" on="1"/>
        <pt x="385" y="590" on="1"/>
        <pt x="170" y="590" on="1"/>
        <pt x="170" y="360" on="1"/>
        <pt x="345" y="360" on="1"/>
        <pt x="345" y="300" on="1"/>
        <pt x="170" y="300" on="1"/>
        <pt x="170" y="60" on="1"/>
        <pt x="395" y="60" on="1"/>
      </contour>
      <contour>
        <pt x="144" y="740" on="1"/>
        <pt x="144" y="800" on="1"/>
        <pt x="360" y="800" on="1"/>
        <pt x="360" y="740" on="1"/>
      </contour>
    </TTGlyph>
    <TTGlyph name="Eng" xMin="100" yMin="-265" xMax="457" yMax="650">
      <contour>
        <pt x="170" y="0" on="1"/>
        <pt x="100" y="0" on="1"/>
        <pt x="100" y="650" on="1"/>
        <pt x="170" y="650" on="1"/>
        <pt x="387" y="150" on="1"/>
        <pt x="387" y="650" on="1"/>
        <pt x="457" y="650" on="1"/>
        <pt x="457" y="-135" on="1"/>
        <pt x="457" y="-199" on="0"/>
        <pt x="385" y="-265" on="0"/>
        <pt x="257" y="-265" on="0"/>
        <pt x="187" y="-199" on="0"/>
        <pt x="187" y="-135" on="1"/>
        <pt x="187" y="-110" on="1"/>
        <pt x="257" y="-110" on="1"/>
        <pt x="257" y="-139" on="1"/>
        <pt x="257" y="-205" on="0"/>
        <pt x="321" y="-205" on="1"/>
        <pt x="387" y="-205" on="0"/>
        <pt x="387" y="-139" on="1"/>
        <pt x="387" y="0" on="1"/>
        <pt x="170" y="500" on="1"/>
      </contour>
    </TTGlyph>
    <TTGlyph name="Eogonek" xMin="100" yMin="-240" xMax="414" yMax="650">
      <contour>
        <pt x="100" y="0" on="1"/>
        <pt x="100" y="650" on="1"/>
        <pt x="385" y="650" on="1"/>
        <pt x="385" y="590" on="1"/>
        <pt x="170" y="590" on="1"/>
        <pt x="170" y="360" on="1"/>
        <pt x="345" y="360" on="1"/>
        <pt x="345" y="300" on="1"/>
        <pt x="170" y="300" on="1"/>
        <pt x="170" y="60" on="1"/>
        <pt x="395" y="60" on="1"/>
        <pt x="395" y="0" on="1"/>
        <pt x="332" y="-51" on="1"/>
        <pt x="283" y="-91" on="0"/>
        <pt x="283" y="-124" on="1"/>
        <pt x="283" y="-166" on="1"/>
        <pt x="283" y="-197" on="0"/>
        <pt x="366" y="-197" on="0"/>
        <pt x="366" y="-166" on="1"/>
        <pt x="366" y="-136" on="1"/>
        <pt x="414" y="-136" on="1"/>
        <pt x="414" y="-164" on="1"/>
        <pt x="414" y="-240" on="0"/>
        <pt x="235" y="-240" on="0"/>
        <pt x="235" y="-164" on="1"/>
        <pt x="235" y="-124" on="1"/>
        <pt x="235" y="-79" on="0"/>
        <pt x="276" y="-41" on="1"/>
        <pt x="325" y="0" on="1"/>
      </contour>
    </TTGlyph>
    <TTGlyph name="Eth" xMin="31" yMin="0" xMax="420" yMax="650">
      <contour>
        <pt x="31" y="305" on="1"/>
        <pt x="31" y="355" on="1"/>
        <pt x="100" y="355" on="1"/>
        <pt x="100" y="650" on="1"/>
        <pt x="261" y="650" on="1"/>
        <pt x="339" y="650" on="0"/>
        <pt x="420" y="576" on="0"/>
        <pt x="420" y="510" on="1"/>
        <pt x="420" y="140" on="1"/>
        <pt x="420" y="73" on="0"/>
        <pt x="340" y="0" on="0"/>
        <pt x="261" y="0" on="1"/>
        <pt x="100" y="0" on="1"/>
        <pt x="100" y="305" on="1"/>
      </contour>
      <contour>
        <pt x="350" y="140" on="1"/>
        <pt x="350" y="510" on="1"/>
        <pt x="350" y="542" on="0"/>
        <pt x="303" y="590" on="0"/>
        <pt x="261" y="590" on="1"/>
        <pt x="170" y="590" on="1"/>
        <pt x="170" y="355" on="1"/>
        <pt x="291" y="355" on="1"/>
        <pt x="291" y="305" on="1"/>
        <pt x="170" y="305" on="1"/>
        <pt x="170" y="60" on="1"/>
        <pt x="261" y="60" on="1"/>
        <pt x="303" y="60" on="0"/>
        <pt x="350" y="107" on="0"/>
      </contour>
    </TTGlyph>
    <TTGlyph name="Euro" xMin="60" yMin="-15" xMax="455" yMax="665">
      <contour>
        <pt x="195" y="375" on="1"/>
        <pt x="195" y="275" on="1"/>
        <pt x="395" y="275" on="1"/>
        <pt x="385" y="225" on="1"/>
        <pt x="195" y="225" on="1"/>
        <pt x="195" y="125" on="1"/>
        <pt x="195" y="45" on="0"/>
        <pt x="384" y="45" on="0"/>
        <pt x="395" y="118" on="1"/>
        <pt x="455" y="99" on="1"/>
        <pt x="439" y="-15" on="0"/>
        <pt x="291" y="-15" on="1"/>
        <pt x="209" y="-15" on="0"/>
        <pt x="125" y="58" on="0"/>
        <pt x="125" y="125" on="1"/>
        <pt x="125" y="225" on="1"/>
        <pt x="60" y="225" on="1"/>
        <pt x="70" y="275" on="1"/>
        <pt x="125" y="275" on="1"/>
        <pt x="125" y="375" on="1"/>
        <pt x="60" y="375" on="1"/>
        <pt x="70" y="425" on="1"/>
        <pt x="125" y="425" on="1"/>
        <pt x="125" y="525" on="1"/>
        <pt x="125" y="592" on="0"/>
        <pt x="207" y="665" on="0"/>
        <pt x="289" y="665" on="1"/>
        <pt x="437" y="665" on="0"/>
        <pt x="453" y="551" on="1"/>
        <pt x="393" y="532" on="1"/>
        <pt x="382" y="605" on="0"/>
        <pt x="195" y="605" on="0"/>
        <pt x="195" y="525" on="1"/>
        <pt x="195" y="425" on="1"/>
        <pt x="395" y="425" on="1"/>
        <pt x="385" y="375" on="1"/>
      </contour>
    </TTGlyph>
    <TTGlyph name="F" xMin="100" yMin="0" xMax="375" yMax="650">
      <contour>
        <pt x="170" y="0" on="1"/>
        <pt x="100" y="0" on="1"/>
        <pt x="100" y="650" on="1"/>
        <pt x="375" y="650" on="1"/>
        <pt x="375" y="590" on="1"/>
        <pt x="170" y="590" on="1"/>
        <pt x="170" y="360" on="1"/>
        <pt x="335" y="360" on="1"/>
        <pt x="335" y="300" on="1"/>
        <pt x="170" y="300" on="1"/>
      </contour>
    </TTGlyph>
    <TTGlyph name="G" xMin="85" yMin="-15" xMax="415" yMax="665">
      <contour>
        <pt x="233" y="270" on="1"/>
        <pt x="233" y="330" on="1"/>
        <pt x="415" y="330" on="1"/>
        <pt x="415" y="0" on="1"/>
        <pt x="385" y="0" on="1"/>
        <pt x="359" y="64" on="1"/>
        <pt x="338" y="28" on="0"/>
        <pt x="270" y="-15" on="0"/>
        <pt x="230" y="-15" on="1"/>
        <pt x="85" y="-15" on="0"/>
        <pt x="85" y="125" on="1"/>
        <pt x="85" y="525" on="1"/>
        <pt x="85" y="592" on="0"/>
        <pt x="167" y="665" on="0"/>
        <pt x="331" y="665" on="0"/>
        <pt x="415" y="592" on="0"/>
        <pt x="415" y="525" on="1"/>
        <pt x="415" y="470" on="1"/>
        <pt x="345" y="470" on="1"/>
        <pt x="345" y="525" on="1"/>
        <pt x="345" y="605" on="0"/>
        <pt x="155" y="605" on="0"/>
        <pt x="155" y="525" on="1"/>
        <pt x="155" y="125" on="1"/>
        <pt x="155" y="87" on="0"/>
        <pt x="187" y="45" on="0"/>
        <pt x="272" y="45" on="0"/>
        <pt x="345" y="113" on="0"/>
        <pt x="345" y="145" on="1"/>
        <pt x="345" y="270" on="1"/>
      </contour>
    </TTGlyph>
    <TTGlyph name="Gbreve" xMin="85" yMin="-15" xMax="415" yMax="816">
      <contour>
        <pt x="233" y="270" on="1"/>
        <pt x="233" y="330" on="1"/>
        <pt x="415" y="330" on="1"/>
        <pt x="415" y="0" on="1"/>
        <pt x="385" y="0" on="1"/>
        <pt x="359" y="64" on="1"/>
        <pt x="338" y="28" on="0"/>
        <pt x="270" y="-15" on="0"/>
        <pt x="230" y="-15" on="1"/>
        <pt x="85" y="-15" on="0"/>
        <pt x="85" y="125" on="1"/>
        <pt x="85" y="525" on="1"/>
        <pt x="85" y="592" on="0"/>
        <pt x="167" y="665" on="0"/>
        <pt x="331" y="665" on="0"/>
        <pt x="415" y="592" on="0"/>
        <pt x="415" y="525" on="1"/>
        <pt x="415" y="470" on="1"/>
        <pt x="345" y="470" on="1"/>
        <pt x="345" y="525" on="1"/>
        <pt x="345" y="605" on="0"/>
        <pt x="155" y="605" on="0"/>
        <pt x="155" y="525" on="1"/>
        <pt x="155" y="125" on="1"/>
        <pt x="155" y="87" on="0"/>
        <pt x="187" y="45" on="0"/>
        <pt x="272" y="45" on="0"/>
        <pt x="345" y="113" on="0"/>
        <pt x="345" y="145" on="1"/>
        <pt x="345" y="270" on="1"/>
      </contour>
      <contour>
        <pt x="207" y="816" on="1"/>
        <pt x="207" y="796" on="1"/>
        <pt x="207" y="765" on="0"/>
        <pt x="293" y="765" on="0"/>
        <pt x="293" y="796" on="1"/>
        <pt x="293" y="816" on="1"/>
        <pt x="348" y="816" on="1"/>
        <pt x="348" y="790" on="1"/>
        <pt x="348" y="715" on="0"/>
        <pt x="152" y="715" on="0"/>
        <pt x="152" y="790" on="1"/>
        <pt x="152" y="816" on="1"/>
      </contour>
    </TTGlyph>
    <TTGlyph name="Gcircumflex" xMin="85" yMin="-15" xMax="415" yMax="837">
      <contour>
        <pt x="233" y="270" on="1"/>
        <pt x="233" y="330" on="1"/>
        <pt x="415" y="330" on="1"/>
        <pt x="415" y="0" on="1"/>
        <pt x="385" y="0" on="1"/>
        <pt x="359" y="64" on="1"/>
        <pt x="338" y="28" on="0"/>
        <pt x="270" y="-15" on="0"/>
        <pt x="230" y="-15" on="1"/>
        <pt x="85" y="-15" on="0"/>
        <pt x="85" y="125" on="1"/>
        <pt x="85" y="525" on="1"/>
        <pt x="85" y="592" on="0"/>
        <pt x="167" y="665" on="0"/>
        <pt x="331" y="665" on="0"/>
        <pt x="415" y="592" on="0"/>
        <pt x="415" y="525" on="1"/>
        <pt x="415" y="470" on="1"/>
        <pt x="345" y="470" on="1"/>
        <pt x="345" y="525" on="1"/>
        <pt x="345" y="605" on="0"/>
        <pt x="155" y="605" on="0"/>
        <pt x="155" y="525" on="1"/>
        <pt x="155" y="125" on="1"/>
        <pt x="155" y="87" on="0"/>
        <pt x="187" y="45" on="0"/>
        <pt x="272" y="45" on="0"/>
        <pt x="345" y="113" on="0"/>
        <pt x="345" y="145" on="1"/>
        <pt x="345" y="270" on="1"/>
      </contour>
      <contour>
        <pt x="250" y="760" on="1"/>
        <pt x="162" y="698" on="1"/>
        <pt x="136" y="724" on="1"/>
        <pt x="234" y="837" on="1"/>
        <pt x="266" y="837" on="1"/>
        <pt x="364" y="724" on="1"/>
        <pt x="338" y="698" on="1"/>
      </contour>
    </TTGlyph>
    <TTGlyph name="Gdotaccent" xMin="85" yMin="-15" xMax="415" yMax="825">
      <contour>
        <pt x="233" y="270" on="1"/>
        <pt x="233" y="330" on="1"/>
        <pt x="415" y="330" on="1"/>
        <pt x="415" y="0" on="1"/>
        <pt x="385" y="0" on="1"/>
        <pt x="359" y="64" on="1"/>
        <pt x="338" y="28" on="0"/>
        <pt x="270" y="-15" on="0"/>
        <pt x="230" y="-15" on="1"/>
        <pt x="85" y="-15" on="0"/>
        <pt x="85" y="125" on="1"/>
        <pt x="85" y="525" on="1"/>
        <pt x="85" y="592" on="0"/>
        <pt x="167" y="665" on="0"/>
        <pt x="331" y="665" on="0"/>
        <pt x="415" y="592" on="0"/>
        <pt x="415" y="525" on="1"/>
        <pt x="415" y="470" on="1"/>
        <pt x="345" y="470" on="1"/>
        <pt x="345" y="525" on="1"/>
        <pt x="345" y="605" on="0"/>
        <pt x="155" y="605" on="0"/>
        <pt x="155" y="525" on="1"/>
        <pt x="155" y="125" on="1"/>
        <pt x="155" y="87" on="0"/>
        <pt x="187" y="45" on="0"/>
        <pt x="272" y="45" on="0"/>
        <pt x="345" y="113" on="0"/>
        <pt x="345" y="145" on="1"/>
        <pt x="345" y="270" on="1"/>
      </contour>
      <contour>
        <pt x="290" y="715" on="1"/>
        <pt x="210" y="715" on="1"/>
        <pt x="210" y="825" on="1"/>
        <pt x="290" y="825" on="1"/>
      </contour>
    </TTGlyph>
    <TTGlyph name="H" xMin="100" yMin="0" xMax="437" yMax="650">
      <contour>
        <pt x="170" y="0" on="1"/>
        <pt x="100" y="0" on="1"/>
        <pt x="100" y="650" on="1"/>
        <pt x="170" y="650" on="1"/>
        <pt x="170" y="360" on="1"/>
        <pt x="367" y="360" on="1"/>
        <pt x="367" y="650" on="1"/>
        <pt x="437" y="650" on="1"/>
        <pt x="437" y="0" on="1"/>
        <pt x="367" y="0" on="1"/>
        <pt x="367" y="300" on="1"/>
        <pt x="170" y="300" on="1"/>
      </contour>
    </TTGlyph>
    <TTGlyph name="Hbar" xMin="47" yMin="0" xMax="489" yMax="650">
      <contour>
        <pt x="47" y="505" on="1"/>
        <pt x="47" y="555" on="1"/>
        <pt x="100" y="555" on="1"/>
        <pt x="100" y="650" on="1"/>
        <pt x="170" y="650" on="1"/>
        <pt x="170" y="555" on="1"/>
        <pt x="367" y="555" on="1"/>
        <pt x="367" y="650" on="1"/>
        <pt x="437" y="650" on="1"/>
        <pt x="437" y="555" on="1"/>
        <pt x="489" y="555" on="1"/>
        <pt x="489" y="505" on="1"/>
        <pt x="437" y="505" on="1"/>
        <pt x="437" y="0" on="1"/>
        <pt x="367" y="0" on="1"/>
        <pt x="367" y="300" on="1"/>
        <pt x="170" y="300" on="1"/>
        <pt x="170" y="0" on="1"/>
        <pt x="100" y="0" on="1"/>
        <pt x="100" y="505" on="1"/>
      </contour>
      <contour>
        <pt x="170" y="360" on="1"/>
        <pt x="367" y="360" on="1"/>
        <pt x="367" y="505" on="1"/>
        <pt x="170" y="505" on="1"/>
      </contour>
    </TTGlyph>
    <TTGlyph name="Hcircumflex" xMin="100" yMin="0" xMax="437" yMax="837">
      <contour>
        <pt x="170" y="0" on="1"/>
        <pt x="100" y="0" on="1"/>
        <pt x="100" y="650" on="1"/>
        <pt x="170" y="650" on="1"/>
        <pt x="170" y="360" on="1"/>
        <pt x="367" y="360" on="1"/>
        <pt x="367" y="650" on="1"/>
        <pt x="437" y="650" on="1"/>
        <pt x="437" y="0" on="1"/>
        <pt x="367" y="0" on="1"/>
        <pt x="367" y="300" on="1"/>
        <pt x="170" y="300" on="1"/>
      </contour>
      <contour>
        <pt x="268" y="760" on="1"/>
        <pt x="180" y="698" on="1"/>
        <pt x="154" y="724" on="1"/>
        <pt x="252" y="837" on="1"/>
        <pt x="284" y="837" on="1"/>
        <pt x="382" y="724" on="1"/>
        <pt x="356" y="698" on="1"/>
      </contour>
    </TTGlyph>
    <TTGlyph name="I" xMin="70" yMin="0" xMax="240" yMax="650">
      <contour>
        <pt x="240" y="60" on="1"/>
        <pt x="240" y="0" on="1"/>
        <pt x="70" y="0" on="1"/>
        <pt x="70" y="60" on="1"/>
        <pt x="120" y="60" on="1"/>
        <pt x="120" y="590" on="1"/>
        <pt x="70" y="590" on="1"/>
        <pt x="70" y="650" on="1"/>
        <pt x="240" y="650" on="1"/>
        <pt x="240" y="590" on="1"/>
        <pt x="190" y="590" on="1"/>
        <pt x="190" y="60" on="1"/>
      </contour>
    </TTGlyph>
    <TTGlyph name="IJ" xMin="70" yMin="-15" xMax="600" yMax="650">
      <contour>
        <pt x="240" y="60" on="1"/>
        <pt x="240" y="0" on="1"/>
        <pt x="70" y="0" on="1"/>
        <pt x="70" y="60" on="1"/>
        <pt x="120" y="60" on="1"/>
        <pt x="120" y="590" on="1"/>
        <pt x="70" y="590" on="1"/>
        <pt x="70" y="650" on="1"/>
        <pt x="240" y="650" on="1"/>
        <pt x="240" y="590" on="1"/>
        <pt x="190" y="590" on="1"/>
        <pt x="190" y="60" on="1"/>
      </contour>
      <contour>
        <pt x="400" y="650" on="1"/>
        <pt x="600" y="650" on="1"/>
        <pt x="600" y="115" on="1"/>
        <pt x="600" y="51" on="0"/>
        <pt x="528" y="-15" on="0"/>
        <pt x="400" y="-15" on="0"/>
        <pt x="330" y="51" on="0"/>
        <pt x="330" y="115" on="1"/>
        <pt x="330" y="180" on="1"/>
        <pt x="400" y="180" on="1"/>
        <pt x="400" y="111" on="1"/>
        <pt x="400" y="45" on="0"/>
        <pt x="464" y="45" on="1"/>
        <pt x="530" y="45" on="0"/>
        <pt x="530" y="111" on="1"/>
        <pt x="530" y="590" on="1"/>
        <pt x="400" y="590" on="1"/>
      </contour>
    </TTGlyph>
    <TTGlyph name="Iacute" xMin="67" yMin="0" xMax="244" yMax="847">
      <contour>
        <pt x="240" y="60" on="1"/>
        <pt x="240" y="0" on="1"/>
        <pt x="70" y="0" on="1"/>
        <pt x="70" y="60" on="1"/>
        <pt x="120" y="60" on="1"/>
        <pt x="120" y="590" on="1"/>
        <pt x="70" y="590" on="1"/>
        <pt x="70" y="650" on="1"/>
        <pt x="240" y="650" on="1"/>
        <pt x="240" y="590" on="1"/>
        <pt x="190" y="590" on="1"/>
        <pt x="190" y="60" on="1"/>
      </contour>
      <contour>
        <pt x="244" y="793" on="1"/>
        <pt x="206" y="755" on="1"/>
        <pt x="93" y="698" on="1"/>
        <pt x="67" y="724" on="1"/>
        <pt x="190" y="847" on="1"/>
      </contour>
    </TTGlyph>
    <TTGlyph name="Ibreve" xMin="57" yMin="0" xMax="253" yMax="816">
      <contour>
        <pt x="240" y="60" on="1"/>
        <pt x="240" y="0" on="1"/>
        <pt x="70" y="0" on="1"/>
        <pt x="70" y="60" on="1"/>
        <pt x="120" y="60" on="1"/>
        <pt x="120" y="590" on="1"/>
        <pt x="70" y="590" on="1"/>
        <pt x="70" y="650" on="1"/>
        <pt x="240" y="650" on="1"/>
        <pt x="240" y="590" on="1"/>
        <pt x="190" y="590" on="1"/>
        <pt x="190" y="60" on="1"/>
      </contour>
      <contour>
        <pt x="112" y="816" on="1"/>
        <pt x="112" y="796" on="1"/>
        <pt x="112" y="765" on="0"/>
        <pt x="198" y="765" on="0"/>
        <pt x="198" y="796" on="1"/>
        <pt x="198" y="816" on="1"/>
        <pt x="253" y="816" on="1"/>
        <pt x="253" y="790" on="1"/>
        <pt x="253" y="715" on="0"/>
        <pt x="57" y="715" on="0"/>
        <pt x="57" y="790" on="1"/>
        <pt x="57" y="816" on="1"/>
      </contour>
    </TTGlyph>
    <TTGlyph name="Icircumflex" xMin="41" yMin="0" xMax="269" yMax="837">
      <contour>
        <pt x="240" y="60" on="1"/>
        <pt x="240" y="0" on="1"/>
        <pt x="70" y="0" on="1"/>
        <pt x="70" y="60" on="1"/>
        <pt x="120" y="60" on="1"/>
        <pt x="120" y="590" on="1"/>
        <pt x="70" y="590" on="1"/>
        <pt x="70" y="650" on="1"/>
        <pt x="240" y="650" on="1"/>
        <pt x="240" y="590" on="1"/>
        <pt x="190" y="590" on="1"/>
        <pt x="190" y="60" on="1"/>
      </contour>
      <contour>
        <pt x="155" y="760" on="1"/>
        <pt x="67" y="698" on="1"/>
        <pt x="41" y="724" on="1"/>
        <pt x="139" y="837" on="1"/>
        <pt x="171" y="837" on="1"/>
        <pt x="269" y="724" on="1"/>
        <pt x="243" y="698" on="1"/>
      </contour>
    </TTGlyph>
    <TTGlyph name="Idieresis" xMin="50" yMin="0" xMax="260" yMax="825">
      <contour>
        <pt x="240" y="60" on="1"/>
        <pt x="240" y="0" on="1"/>
        <pt x="70" y="0" on="1"/>
        <pt x="70" y="60" on="1"/>
        <pt x="120" y="60" on="1"/>
        <pt x="120" y="590" on="1"/>
        <pt x="70" y="590" on="1"/>
        <pt x="70" y="650" on="1"/>
        <pt x="240" y="650" on="1"/>
        <pt x="240" y="590" on="1"/>
        <pt x="190" y="590" on="1"/>
        <pt x="190" y="60" on="1"/>
      </contour>
      <contour>
        <pt x="120" y="715" on="1"/>
        <pt x="50" y="715" on="1"/>
        <pt x="50" y="825" on="1"/>
        <pt x="120" y="825" on="1"/>
      </contour>
      <contour>
        <pt x="260" y="715" on="1"/>
        <pt x="190" y="715" on="1"/>
        <pt x="190" y="825" on="1"/>
        <pt x="260" y="825" on="1"/>
      </contour>
    </TTGlyph>
    <TTGlyph name="Idotaccent" xMin="70" yMin="0" xMax="240" yMax="825">
      <contour>
        <pt x="240" y="60" on="1"/>
        <pt x="240" y="0" on="1"/>
        <pt x="70" y="0" on="1"/>
        <pt x="70" y="60" on="1"/>
        <pt x="120" y="60" on="1"/>
        <pt x="120" y="590" on="1"/>
        <pt x="70" y="590" on="1"/>
        <pt x="70" y="650" on="1"/>
        <pt x="240" y="650" on="1"/>
        <pt x="240" y="590" on="1"/>
        <pt x="190" y="590" on="1"/>
        <pt x="190" y="60" on="1"/>
      </contour>
      <contour>
        <pt x="195" y="715" on="1"/>
        <pt x="115" y="715" on="1"/>
        <pt x="115" y="825" on="1"/>
        <pt x="195" y="825" on="1"/>
      </contour>
    </TTGlyph>
    <TTGlyph name="Igrave" xMin="67" yMin="0" xMax="244" yMax="847">
      <contour>
        <pt x="240" y="60" on="1"/>
        <pt x="240" y="0" on="1"/>
        <pt x="70" y="0" on="1"/>
        <pt x="70" y="60" on="1"/>
        <pt x="120" y="60" on="1"/>
        <pt x="120" y="590" on="1"/>
        <pt x="70" y="590" on="1"/>
        <pt x="70" y="650" on="1"/>
        <pt x="240" y="650" on="1"/>
        <pt x="240" y="590" on="1"/>
        <pt x="190" y="590" on="1"/>
        <pt x="190" y="60" on="1"/>
      </contour>
      <contour>
        <pt x="105" y="755" on="1"/>
        <pt x="67" y="793" on="1"/>
        <pt x="121" y="847" on="1"/>
        <pt x="244" y="724" on="1"/>
        <pt x="218" y="698" on="1"/>
      </contour>
    </TTGlyph>
    <TTGlyph name="Imacron" xMin="47" yMin="0" xMax="263" yMax="800">
      <contour>
        <pt x="240" y="60" on="1"/>
        <pt x="240" y="0" on="1"/>
        <pt x="70" y="0" on="1"/>
        <pt x="70" y="60" on="1"/>
        <pt x="120" y="60" on="1"/>
        <pt x="120" y="590" on="1"/>
        <pt x="70" y="590" on="1"/>
        <pt x="70" y="650" on="1"/>
        <pt x="240" y="650" on="1"/>
        <pt x="240" y="590" on="1"/>
        <pt x="190" y="590" on="1"/>
        <pt x="190" y="60" on="1"/>
      </contour>
      <contour>
        <pt x="47" y="740" on="1"/>
        <pt x="47" y="800" on="1"/>
        <pt x="263" y="800" on="1"/>
        <pt x="263" y="740" on="1"/>
      </contour>
    </TTGlyph>
    <TTGlyph name="Iogonek" xMin="70" yMin="-240" xMax="259" yMax="650">
      <contour>
        <pt x="70" y="0" on="1"/>
        <pt x="70" y="60" on="1"/>
        <pt x="120" y="60" on="1"/>
        <pt x="120" y="590" on="1"/>
        <pt x="70" y="590" on="1"/>
        <pt x="70" y="650" on="1"/>
        <pt x="240" y="650" on="1"/>
        <pt x="240" y="590" on="1"/>
        <pt x="190" y="590" on="1"/>
        <pt x="190" y="60" on="1"/>
        <pt x="240" y="60" on="1"/>
        <pt x="240" y="0" on="1"/>
        <pt x="177" y="-51" on="1"/>
        <pt x="128" y="-91" on="0"/>
        <pt x="128" y="-124" on="1"/>
        <pt x="128" y="-166" on="1"/>
        <pt x="128" y="-197" on="0"/>
        <pt x="211" y="-197" on="0"/>
        <pt x="211" y="-166" on="1"/>
        <pt x="211" y="-136" on="1"/>
        <pt x="259" y="-136" on="1"/>
        <pt x="259" y="-164" on="1"/>
        <pt x="259" y="-240" on="0"/>
        <pt x="80" y="-240" on="0"/>
        <pt x="80" y="-164" on="1"/>
        <pt x="80" y="-124" on="1"/>
        <pt x="80" y="-79" on="0"/>
        <pt x="121" y="-41" on="1"/>
        <pt x="170" y="0" on="1"/>
      </contour>
    </TTGlyph>
    <TTGlyph name="Itilde" xMin="37" yMin="0" xMax="273" yMax="819">
      <contour>
        <pt x="240" y="60" on="1"/>
        <pt x="240" y="0" on="1"/>
        <pt x="70" y="0" on="1"/>
        <pt x="70" y="60" on="1"/>
        <pt x="120" y="60" on="1"/>
        <pt x="120" y="590" on="1"/>
        <pt x="70" y="590" on="1"/>
        <pt x="70" y="650" on="1"/>
        <pt x="240" y="650" on="1"/>
        <pt x="240" y="590" on="1"/>
        <pt x="190" y="590" on="1"/>
        <pt x="190" y="60" on="1"/>
      </contour>
      <contour>
        <pt x="198" y="759" on="1"/>
        <pt x="183" y="759" on="0"/>
        <pt x="127" y="721" on="0"/>
        <pt x="76" y="721" on="0"/>
        <pt x="40" y="761" on="0"/>
        <pt x="37" y="795" on="1"/>
        <pt x="78" y="809" on="1"/>
        <pt x="88" y="781" on="0"/>
        <pt x="112" y="781" on="1"/>
        <pt x="127" y="781" on="0"/>
        <pt x="183" y="819" on="0"/>
        <pt x="234" y="819" on="0"/>
        <pt x="270" y="779" on="0"/>
        <pt x="273" y="745" on="1"/>
        <pt x="232" y="731" on="1"/>
        <pt x="222" y="759" on="0"/>
      </contour>
    </TTGlyph>
    <TTGlyph name="J" xMin="20" yMin="-15" xMax="290" yMax="650">
      <contour>
        <pt x="90" y="650" on="1"/>
        <pt x="290" y="650" on="1"/>
        <pt x="290" y="115" on="1"/>
        <pt x="290" y="51" on="0"/>
        <pt x="218" y="-15" on="0"/>
        <pt x="90" y="-15" on="0"/>
        <pt x="20" y="51" on="0"/>
        <pt x="20" y="115" on="1"/>
        <pt x="20" y="180" on="1"/>
        <pt x="90" y="180" on="1"/>
        <pt x="90" y="111" on="1"/>
        <pt x="90" y="45" on="0"/>
        <pt x="154" y="45" on="1"/>
        <pt x="220" y="45" on="0"/>
        <pt x="220" y="111" on="1"/>
        <pt x="220" y="590" on="1"/>
        <pt x="90" y="590" on="1"/>
      </contour>
    </TTGlyph>
    <TTGlyph name="Jcircumflex" xMin="20" yMin="-15" xMax="370" yMax="837">
      <contour>
        <pt x="90" y="650" on="1"/>
        <pt x="290" y="650" on="1"/>
        <pt x="290" y="115" on="1"/>
        <pt x="290" y="51" on="0"/>
        <pt x="218" y="-15" on="0"/>
        <pt x="90" y="-15" on="0"/>
        <pt x="20" y="51" on="0"/>
        <pt x="20" y="115" on="1"/>
        <pt x="20" y="180" on="1"/>
        <pt x="90" y="180" on="1"/>
        <pt x="90" y="111" on="1"/>
        <pt x="90" y="45" on="0"/>
        <pt x="154" y="45" on="1"/>
        <pt x="220" y="45" on="0"/>
        <pt x="220" y="111" on="1"/>
        <pt x="220" y="590" on="1"/>
        <pt x="90" y="590" on="1"/>
      </contour>
      <contour>
        <pt x="256" y="760" on="1"/>
        <pt x="168" y="698" on="1"/>
        <pt x="142" y="724" on="1"/>
        <pt x="240" y="837" on="1"/>
        <pt x="272" y="837" on="1"/>
        <pt x="370" y="724" on="1"/>
        <pt x="344" y="698" on="1"/>
      </contour>
    </TTGlyph>
    <TTGlyph name="K" xMin="101" yMin="0" xMax="435" yMax="650">
      <contour>
        <pt x="171" y="0" on="1"/>
        <pt x="101" y="0" on="1"/>
        <pt x="101" y="650" on="1"/>
        <pt x="171" y="650" on="1"/>
        <pt x="171" y="374" on="1"/>
        <pt x="345" y="650" on="1"/>
        <pt x="423" y="650" on="1"/>
        <pt x="246" y="370" on="1"/>
        <pt x="435" y="0" on="1"/>
        <pt x="358" y="0" on="1"/>
        <pt x="204" y="303" on="1"/>
        <pt x="171" y="250" on="1"/>
      </contour>
    </TTGlyph>
    <TTGlyph name="L" xMin="100" yMin="0" xMax="353" yMax="650">
      <contour>
        <pt x="100" y="0" on="1"/>
        <pt x="100" y="650" on="1"/>
        <pt x="170" y="650" on="1"/>
        <pt x="170" y="60" on="1"/>
        <pt x="353" y="60" on="1"/>
        <pt x="353" y="0" on="1"/>
      </contour>
    </TTGlyph>
    <TTGlyph name="Lacute" xMin="52" yMin="0" xMax="353" yMax="847">
      <contour>
        <pt x="100" y="0" on="1"/>
        <pt x="100" y="650" on="1"/>
        <pt x="170" y="650" on="1"/>
        <pt x="170" y="60" on="1"/>
        <pt x="353" y="60" on="1"/>
        <pt x="353" y="0" on="1"/>
      </contour>
      <contour>
        <pt x="229" y="793" on="1"/>
        <pt x="191" y="755" on="1"/>
        <pt x="78" y="698" on="1"/>
        <pt x="52" y="724" on="1"/>
        <pt x="175" y="847" on="1"/>
      </contour>
    </TTGlyph>
    <TTGlyph name="Lcaron" xMin="100" yMin="0" xMax="373" yMax="715">
      <contour>
        <pt x="100" y="0" on="1"/>
        <pt x="100" y="650" on="1"/>
        <pt x="170" y="650" on="1"/>
        <pt x="170" y="60" on="1"/>
        <pt x="353" y="60" on="1"/>
        <pt x="353" y="0" on="1"/>
      </contour>
      <contour>
        <pt x="293" y="715" on="1"/>
        <pt x="373" y="715" on="1"/>
        <pt x="373" y="630" on="1"/>
        <pt x="329" y="514" on="1"/>
        <pt x="297" y="520" on="1"/>
        <pt x="317" y="615" on="1"/>
        <pt x="293" y="624" on="1"/>
      </contour>
    </TTGlyph>
    <TTGlyph name="Ldot" xMin="100" yMin="0" xMax="353" yMax="650">
      <contour>
        <pt x="100" y="0" on="1"/>
        <pt x="100" y="650" on="1"/>
        <pt x="170" y="650" on="1"/>
        <pt x="170" y="60" on="1"/>
        <pt x="353" y="60" on="1"/>
        <pt x="353" y="0" on="1"/>
      </contour>
      <contour>
        <pt x="343" y="270" on="1"/>
        <pt x="253" y="270" on="1"/>
        <pt x="253" y="380" on="1"/>
        <pt x="343" y="380" on="1"/>
      </contour>
    </TTGlyph>
    <TTGlyph name="Lslash" xMin="1" yMin="0" xMax="353" yMax="650">
      <contour>
        <pt x="100" y="650" on="1"/>
        <pt x="170" y="650" on="1"/>
        <pt x="170" y="375" on="1"/>
        <pt x="250" y="416" on="1"/>
        <pt x="273" y="371" on="1"/>
        <pt x="170" y="318" on="1"/>
        <pt x="170" y="60" on="1"/>
        <pt x="353" y="60" on="1"/>
        <pt x="353" y="0" on="1"/>
        <pt x="100" y="0" on="1"/>
        <pt x="100" y="283" on="1"/>
        <pt x="24" y="244" on="1"/>
        <pt x="1" y="289" on="1"/>
        <pt x="100" y="339" on="1"/>
      </contour>
    </TTGlyph>
    <TTGlyph name="M" xMin="100" yMin="0" xMax="539" yMax="650">
      <contour>
        <pt x="170" y="0" on="1"/>
        <pt x="100" y="0" on="1"/>
        <pt x="100" y="650" on="1"/>
        <pt x="205" y="650" on="1"/>
        <pt x="319" y="221" on="1"/>
        <pt x="434" y="650" on="1"/>
        <pt x="539" y="650" on="1"/>
        <pt x="539" y="0" on="1"/>
        <pt x="469" y="0" on="1"/>
        <pt x="469" y="538" on="1"/>
        <pt x="352" y="100" on="1"/>
        <pt x="287" y="100" on="1"/>
        <pt x="170" y="538" on="1"/>
      </contour>
    </TTGlyph>
    <TTGlyph name="N" xMin="100" yMin="0" xMax="457" yMax="650">
      <contour>
        <pt x="170" y="0" on="1"/>
        <pt x="100" y="0" on="1"/>
        <pt x="100" y="650" on="1"/>
        <pt x="170" y="650" on="1"/>
        <pt x="387" y="150" on="1"/>
        <pt x="387" y="650" on="1"/>
        <pt x="457" y="650" on="1"/>
        <pt x="457" y="0" on="1"/>
        <pt x="387" y="0" on="1"/>
        <pt x="170" y="500" on="1"/>
      </contour>
    </TTGlyph>
    <TTGlyph name="Nacute" xMin="100" yMin="0" xMax="457" yMax="847">
      <contour>
        <pt x="170" y="0" on="1"/>
        <pt x="100" y="0" on="1"/>
        <pt x="100" y="650" on="1"/>
        <pt x="170" y="650" on="1"/>
        <pt x="387" y="150" on="1"/>
        <pt x="387" y="650" on="1"/>
        <pt x="457" y="650" on="1"/>
        <pt x="457" y="0" on="1"/>
        <pt x="387" y="0" on="1"/>
        <pt x="170" y="500" on="1"/>
      </contour>
      <contour>
        <pt x="367" y="793" on="1"/>
        <pt x="329" y="755" on="1"/>
        <pt x="216" y="698" on="1"/>
        <pt x="190" y="724" on="1"/>
        <pt x="313" y="847" on="1"/>
      </contour>
    </TTGlyph>
    <TTGlyph name="Ncaron" xMin="100" yMin="0" xMax="457" yMax="840">
      <contour>
        <pt x="170" y="0" on="1"/>
        <pt x="100" y="0" on="1"/>
        <pt x="100" y="650" on="1"/>
        <pt x="170" y="650" on="1"/>
        <pt x="387" y="150" on="1"/>
        <pt x="387" y="650" on="1"/>
        <pt x="457" y="650" on="1"/>
        <pt x="457" y="0" on="1"/>
        <pt x="387" y="0" on="1"/>
        <pt x="170" y="500" on="1"/>
      </contour>
      <contour>
        <pt x="278" y="778" on="1"/>
        <pt x="366" y="840" on="1"/>
        <pt x="392" y="814" on="1"/>
        <pt x="294" y="701" on="1"/>
        <pt x="262" y="701" on="1"/>
        <pt x="164" y="814" on="1"/>
        <pt x="190" y="840" on="1"/>
      </contour>
    </TTGlyph>
    <TTGlyph name="Ntilde" xMin="100" yMin="0" xMax="457" yMax="819">
      <contour>
        <pt x="170" y="0" on="1"/>
        <pt x="100" y="0" on="1"/>
        <pt x="100" y="650" on="1"/>
        <pt x="170" y="650" on="1"/>
        <pt x="387" y="150" on="1"/>
        <pt x="387" y="650" on="1"/>
        <pt x="457" y="650" on="1"/>
        <pt x="457" y="0" on="1"/>
        <pt x="387" y="0" on="1"/>
        <pt x="170" y="500" on="1"/>
      </contour>
      <contour>
        <pt x="321" y="759" on="1"/>
        <pt x="306" y="759" on="0"/>
        <pt x="250" y="721" on="0"/>
        <pt x="199" y="721" on="0"/>
        <pt x="163" y="761" on="0"/>
        <pt x="160" y="795" on="1"/>
        <pt x="201" y="809" on="1"/>
        <pt x="211" y="781" on="0"/>
        <pt x="235" y="781" on="1"/>
        <pt x="250" y="781" on="0"/>
        <pt x="306" y="819" on="0"/>
        <pt x="357" y="819" on="0"/>
        <pt x="393" y="779" on="0"/>
        <pt x="396" y="745" on="1"/>
        <pt x="355" y="731" on="1"/>
        <pt x="345" y="759" on="0"/>
      </contour>
    </TTGlyph>
    <TTGlyph name="O" xMin="85" yMin="-15" xMax="425" yMax="665">
      <contour>
        <pt x="425" y="525" on="1"/>
        <pt x="425" y="125" on="1"/>
        <pt x="425" y="58" on="0"/>
        <pt x="340" y="-15" on="0"/>
        <pt x="171" y="-15" on="0"/>
        <pt x="85" y="58" on="0"/>
        <pt x="85" y="125" on="1"/>
        <pt x="85" y="525" on="1"/>
        <pt x="85" y="592" on="0"/>
        <pt x="170" y="665" on="0"/>
        <pt x="339" y="665" on="0"/>
        <pt x="425" y="592" on="0"/>
      </contour>
      <contour>
        <pt x="355" y="125" on="1"/>
        <pt x="355" y="525" on="1"/>
        <pt x="355" y="605" on="0"/>
        <pt x="155" y="605" on="0"/>
        <pt x="155" y="525" on="1"/>
        <pt x="155" y="125" on="1"/>
        <pt x="155" y="45" on="0"/>
        <pt x="355" y="45" on="0"/>
      </contour>
    </TTGlyph>
    <TTGlyph name="OE" xMin="85" yMin="-15" xMax="650" yMax="665">
      <contour>
        <pt x="425" y="525" on="1"/>
        <pt x="425" y="360" on="1"/>
        <pt x="600" y="360" on="1"/>
        <pt x="600" y="300" on="1"/>
        <pt x="425" y="300" on="1"/>
        <pt x="425" y="125" on="1"/>
        <pt x="425" y="88" on="0"/>
        <pt x="411" y="60" on="1"/>
        <pt x="650" y="60" on="1"/>
        <pt x="650" y="0" on="1"/>
        <pt x="346" y="0" on="1"/>
        <pt x="310" y="-15" on="0"/>
        <pt x="256" y="-15" on="1"/>
        <pt x="171" y="-15" on="0"/>
        <pt x="85" y="58" on="0"/>
        <pt x="85" y="125" on="1"/>
        <pt x="85" y="525" on="1"/>
        <pt x="85" y="592" on="0"/>
        <pt x="170" y="665" on="0"/>
        <pt x="254" y="665" on="1"/>
        <pt x="308" y="665" on="0"/>
        <pt x="345" y="650" on="1"/>
        <pt x="640" y="650" on="1"/>
        <pt x="640" y="590" on="1"/>
        <pt x="411" y="590" on="1"/>
        <pt x="425" y="560" on="0"/>
      </contour>
      <contour>
        <pt x="355" y="125" on="1"/>
        <pt x="355" y="525" on="1"/>
        <pt x="355" y="605" on="0"/>
        <pt x="155" y="605" on="0"/>
        <pt x="155" y="525" on="1"/>
        <pt x="155" y="125" on="1"/>
        <pt x="155" y="45" on="0"/>
        <pt x="355" y="45" on="0"/>
      </contour>
    </TTGlyph>
    <TTGlyph name="Oacute" xMin="85" yMin="-15" xMax="425" yMax="847">
      <contour>
        <pt x="425" y="525" on="1"/>
        <pt x="425" y="125" on="1"/>
        <pt x="425" y="58" on="0"/>
        <pt x="340" y="-15" on="0"/>
        <pt x="171" y="-15" on="0"/>
        <pt x="85" y="58" on="0"/>
        <pt x="85" y="125" on="1"/>
        <pt x="85" y="525" on="1"/>
        <pt x="85" y="592" on="0"/>
        <pt x="170" y="665" on="0"/>
        <pt x="339" y="665" on="0"/>
        <pt x="425" y="592" on="0"/>
      </contour>
      <contour>
        <pt x="355" y="125" on="1"/>
        <pt x="355" y="525" on="1"/>
        <pt x="355" y="605" on="0"/>
        <pt x="155" y="605" on="0"/>
        <pt x="155" y="525" on="1"/>
        <pt x="155" y="125" on="1"/>
        <pt x="155" y="45" on="0"/>
        <pt x="355" y="45" on="0"/>
      </contour>
      <contour>
        <pt x="343" y="793" on="1"/>
        <pt x="305" y="755" on="1"/>
        <pt x="192" y="698" on="1"/>
        <pt x="166" y="724" on="1"/>
        <pt x="289" y="847" on="1"/>
      </contour>
    </TTGlyph>
    <TTGlyph name="Obreve" xMin="85" yMin="-15" xMax="425" yMax="816">
      <contour>
        <pt x="425" y="525" on="1"/>
        <pt x="425" y="125" on="1"/>
        <pt x="425" y="58" on="0"/>
        <pt x="340" y="-15" on="0"/>
        <pt x="171" y="-15" on="0"/>
        <pt x="85" y="58" on="0"/>
        <pt x="85" y="125" on="1"/>
        <pt x="85" y="525" on="1"/>
        <pt x="85" y="592" on="0"/>
        <pt x="170" y="665" on="0"/>
        <pt x="339" y="665" on="0"/>
        <pt x="425" y="592" on="0"/>
      </contour>
      <contour>
        <pt x="355" y="125" on="1"/>
        <pt x="355" y="525" on="1"/>
        <pt x="355" y="605" on="0"/>
        <pt x="155" y="605" on="0"/>
        <pt x="155" y="525" on="1"/>
        <pt x="155" y="125" on="1"/>
        <pt x="155" y="45" on="0"/>
        <pt x="355" y="45" on="0"/>
      </contour>
      <contour>
        <pt x="212" y="816" on="1"/>
        <pt x="212" y="796" on="1"/>
        <pt x="212" y="765" on="0"/>
        <pt x="298" y="765" on="0"/>
        <pt x="298" y="796" on="1"/>
        <pt x="298" y="816" on="1"/>
        <pt x="353" y="816" on="1"/>
        <pt x="353" y="790" on="1"/>
        <pt x="353" y="715" on="0"/>
        <pt x="157" y="715" on="0"/>
        <pt x="157" y="790" on="1"/>
        <pt x="157" y="816" on="1"/>
      </contour>
    </TTGlyph>
    <TTGlyph name="Ocircumflex" xMin="85" yMin="-15" xMax="425" yMax="837">
      <contour>
        <pt x="425" y="525" on="1"/>
        <pt x="425" y="125" on="1"/>
        <pt x="425" y="58" on="0"/>
        <pt x="340" y="-15" on="0"/>
        <pt x="171" y="-15" on="0"/>
        <pt x="85" y="58" on="0"/>
        <pt x="85" y="125" on="1"/>
        <pt x="85" y="525" on="1"/>
        <pt x="85" y="592" on="0"/>
        <pt x="170" y="665" on="0"/>
        <pt x="339" y="665" on="0"/>
        <pt x="425" y="592" on="0"/>
      </contour>
      <contour>
        <pt x="355" y="125" on="1"/>
        <pt x="355" y="525" on="1"/>
        <pt x="355" y="605" on="0"/>
        <pt x="155" y="605" on="0"/>
        <pt x="155" y="525" on="1"/>
        <pt x="155" y="125" on="1"/>
        <pt x="155" y="45" on="0"/>
        <pt x="355" y="45" on="0"/>
      </contour>
      <contour>
        <pt x="255" y="760" on="1"/>
        <pt x="167" y="698" on="1"/>
        <pt x="141" y="724" on="1"/>
        <pt x="239" y="837" on="1"/>
        <pt x="271" y="837" on="1"/>
        <pt x="369" y="724" on="1"/>
        <pt x="343" y="698" on="1"/>
      </contour>
    </TTGlyph>
    <TTGlyph name="Odieresis" xMin="85" yMin="-15" xMax="425" yMax="825">
      <contour>
        <pt x="425" y="525" on="1"/>
        <pt x="425" y="125" on="1"/>
        <pt x="425" y="58" on="0"/>
        <pt x="340" y="-15" on="0"/>
        <pt x="171" y="-15" on="0"/>
        <pt x="85" y="58" on="0"/>
        <pt x="85" y="125" on="1"/>
        <pt x="85" y="525" on="1"/>
        <pt x="85" y="592" on="0"/>
        <pt x="170" y="665" on="0"/>
        <pt x="339" y="665" on="0"/>
        <pt x="425" y="592" on="0"/>
      </contour>
      <contour>
        <pt x="355" y="125" on="1"/>
        <pt x="355" y="525" on="1"/>
        <pt x="355" y="605" on="0"/>
        <pt x="155" y="605" on="0"/>
        <pt x="155" y="525" on="1"/>
        <pt x="155" y="125" on="1"/>
        <pt x="155" y="45" on="0"/>
        <pt x="355" y="45" on="0"/>
      </contour>
      <contour>
        <pt x="220" y="715" on="1"/>
        <pt x="150" y="715" on="1"/>
        <pt x="150" y="825" on="1"/>
        <pt x="220" y="825" on="1"/>
      </contour>
      <contour>
        <pt x="360" y="715" on="1"/>
        <pt x="290" y="715" on="1"/>
        <pt x="290" y="825" on="1"/>
        <pt x="360" y="825" on="1"/>
      </contour>
    </TTGlyph>
    <TTGlyph name="Ograve" xMin="85" yMin="-15" xMax="425" yMax="847">
      <contour>
        <pt x="425" y="525" on="1"/>
        <pt x="425" y="125" on="1"/>
        <pt x="425" y="58" on="0"/>
        <pt x="340" y="-15" on="0"/>
        <pt x="171" y="-15" on="0"/>
        <pt x="85" y="58" on="0"/>
        <pt x="85" y="125" on="1"/>
        <pt x="85" y="525" on="1"/>
        <pt x="85" y="592" on="0"/>
        <pt x="170" y="665" on="0"/>
        <pt x="339" y="665" on="0"/>
        <pt x="425" y="592" on="0"/>
      </contour>
      <contour>
        <pt x="355" y="125" on="1"/>
        <pt x="355" y="525" on="1"/>
        <pt x="355" y="605" on="0"/>
        <pt x="155" y="605" on="0"/>
        <pt x="155" y="525" on="1"/>
        <pt x="155" y="125" on="1"/>
        <pt x="155" y="45" on="0"/>
        <pt x="355" y="45" on="0"/>
      </contour>
      <contour>
        <pt x="204" y="755" on="1"/>
        <pt x="166" y="793" on="1"/>
        <pt x="220" y="847" on="1"/>
        <pt x="343" y="724" on="1"/>
        <pt x="317" y="698" on="1"/>
      </contour>
    </TTGlyph>
    <TTGlyph name="Ohungarumlaut" xMin="85" yMin="-15" xMax="464" yMax="847">
      <contour>
        <pt x="425" y="525" on="1"/>
        <pt x="425" y="125" on="1"/>
        <pt x="425" y="58" on="0"/>
        <pt x="340" y="-15" on="0"/>
        <pt x="171" y="-15" on="0"/>
        <pt x="85" y="58" on="0"/>
        <pt x="85" y="125" on="1"/>
        <pt x="85" y="525" on="1"/>
        <pt x="85" y="592" on="0"/>
        <pt x="170" y="665" on="0"/>
        <pt x="339" y="665" on="0"/>
        <pt x="425" y="592" on="0"/>
      </contour>
      <contour>
        <pt x="355" y="125" on="1"/>
        <pt x="355" y="525" on="1"/>
        <pt x="355" y="605" on="0"/>
        <pt x="155" y="605" on="0"/>
        <pt x="155" y="525" on="1"/>
        <pt x="155" y="125" on="1"/>
        <pt x="155" y="45" on="0"/>
        <pt x="355" y="45" on="0"/>
      </contour>
      <contour>
        <pt x="284" y="793" on="1"/>
        <pt x="246" y="755" on="1"/>
        <pt x="133" y="698" on="1"/>
        <pt x="107" y="724" on="1"/>
        <pt x="230" y="847" on="1"/>
      </contour>
      <contour>
        <pt x="464" y="793" on="1"/>
        <pt x="426" y="755" on="1"/>
        <pt x="313" y="698" on="1"/>
        <pt x="287" y="724" on="1"/>
        <pt x="410" y="847" on="1"/>
      </contour>
    </TTGlyph>
    <TTGlyph name="Omacron" xMin="85" yMin="-15" xMax="425" yMax="800">
      <contour>
        <pt x="425" y="525" on="1"/>
        <pt x="425" y="125" on="1"/>
        <pt x="425" y="58" on="0"/>
        <pt x="340" y="-15" on="0"/>
        <pt x="171" y="-15" on="0"/>
        <pt x="85" y="58" on="0"/>
        <pt x="85" y="125" on="1"/>
        <pt x="85" y="525" on="1"/>
        <pt x="85" y="592" on="0"/>
        <pt x="170" y="665" on="0"/>
        <pt x="339" y="665" on="0"/>
        <pt x="425" y="592" on="0"/>
      </contour>
      <contour>
        <pt x="355" y="125" on="1"/>
        <pt x="355" y="525" on="1"/>
        <pt x="355" y="605" on="0"/>
        <pt x="155" y="605" on="0"/>
        <pt x="155" y="525" on="1"/>
        <pt x="155" y="125" on="1"/>
        <pt x="155" y="45" on="0"/>
        <pt x="355" y="45" on="0"/>
      </contour>
      <contour>
        <pt x="147" y="740" on="1"/>
        <pt x="147" y="800" on="1"/>
        <pt x="363" y="800" on="1"/>
        <pt x="363" y="740" on="1"/>
      </contour>
    </TTGlyph>
    <TTGlyph name="Omega" xMin="55" yMin="0" xMax="494" yMax="665">
      <contour>
        <pt x="334" y="0" on="1"/>
        <pt x="334" y="191" on="1"/>
        <pt x="360" y="199" on="0"/>
        <pt x="379" y="206" on="0"/>
        <pt x="395" y="227" on="0"/>
        <pt x="395" y="245" on="1"/>
        <pt x="395" y="525" on="1"/>
        <pt x="395" y="605" on="0"/>
        <pt x="155" y="605" on="0"/>
        <pt x="155" y="525" on="1"/>
        <pt x="155" y="245" on="1"/>
        <pt x="155" y="221" on="0"/>
        <pt x="180" y="202" on="0"/>
        <pt x="215" y="192" on="1"/>
        <pt x="215" y="0" on="1"/>
        <pt x="55" y="0" on="1"/>
        <pt x="55" y="60" on="1"/>
        <pt x="155" y="60" on="1"/>
        <pt x="155" y="144" on="1"/>
        <pt x="85" y="171" on="0"/>
        <pt x="85" y="245" on="1"/>
        <pt x="85" y="525" on="1"/>
        <pt x="85" y="592" on="0"/>
        <pt x="179" y="665" on="0"/>
        <pt x="368" y="665" on="0"/>
        <pt x="465" y="592" on="0"/>
        <pt x="465" y="525" on="1"/>
        <pt x="465" y="245" on="1"/>
        <pt x="465" y="170" on="0"/>
        <pt x="394" y="143" on="1"/>
        <pt x="394" y="60" on="1"/>
        <pt x="494" y="60" on="1"/>
        <pt x="494" y="0" on="1"/>
      </contour>
    </TTGlyph>
    <TTGlyph name="Oslash" xMin="85" yMin="-60" xMax="425" yMax="710">
      <contour>
        <pt x="85" y="125" on="1"/>
        <pt x="85" y="525" on="1"/>
        <pt x="85" y="592" on="0"/>
        <pt x="170" y="665" on="0"/>
        <pt x="254" y="665" on="1"/>
        <pt x="281" y="665" on="0"/>
        <pt x="308" y="660" on="1"/>
        <pt x="320" y="710" on="1"/>
        <pt x="365" y="710" on="1"/>
        <pt x="351" y="647" on="1"/>
        <pt x="425" y="614" on="0"/>
        <pt x="425" y="525" on="1"/>
        <pt x="425" y="125" on="1"/>
        <pt x="425" y="58" on="0"/>
        <pt x="340" y="-15" on="0"/>
        <pt x="256" y="-15" on="1"/>
        <pt x="229" y="-15" on="0"/>
        <pt x="201" y="-10" on="1"/>
        <pt x="190" y="-60" on="1"/>
        <pt x="145" y="-60" on="1"/>
        <pt x="159" y="2" on="1"/>
        <pt x="85" y="36" on="0"/>
      </contour>
      <contour>
        <pt x="355" y="125" on="1"/>
        <pt x="355" y="525" on="1"/>
        <pt x="355" y="557" on="0"/>
        <pt x="335" y="579" on="1"/>
        <pt x="215" y="49" on="1"/>
        <pt x="231" y="45" on="0"/>
        <pt x="256" y="45" on="1"/>
        <pt x="355" y="45" on="0"/>
      </contour>
      <contour>
        <pt x="155" y="125" on="1"/>
        <pt x="155" y="90" on="0"/>
        <pt x="174" y="71" on="1"/>
        <pt x="295" y="600" on="1"/>
        <pt x="275" y="605" on="0"/>
        <pt x="254" y="605" on="1"/>
        <pt x="155" y="605" on="0"/>
        <pt x="155" y="525" on="1"/>
      </contour>
    </TTGlyph>
    <TTGlyph name="Oslashacute" xMin="85" yMin="-60" xMax="425" yMax="847">
      <contour>
        <pt x="85" y="125" on="1"/>
        <pt x="85" y="525" on="1"/>
        <pt x="85" y="592" on="0"/>
        <pt x="170" y="665" on="0"/>
        <pt x="254" y="665" on="1"/>
        <pt x="281" y="665" on="0"/>
        <pt x="308" y="660" on="1"/>
        <pt x="320" y="710" on="1"/>
        <pt x="365" y="710" on="1"/>
        <pt x="351" y="647" on="1"/>
        <pt x="425" y="614" on="0"/>
        <pt x="425" y="525" on="1"/>
        <pt x="425" y="125" on="1"/>
        <pt x="425" y="58" on="0"/>
        <pt x="340" y="-15" on="0"/>
        <pt x="256" y="-15" on="1"/>
        <pt x="229" y="-15" on="0"/>
        <pt x="201" y="-10" on="1"/>
        <pt x="190" y="-60" on="1"/>
        <pt x="145" y="-60" on="1"/>
        <pt x="159" y="2" on="1"/>
        <pt x="85" y="36" on="0"/>
      </contour>
      <contour>
        <pt x="155" y="125" on="1"/>
        <pt x="155" y="90" on="0"/>
        <pt x="174" y="71" on="1"/>
        <pt x="295" y="600" on="1"/>
        <pt x="275" y="605" on="0"/>
        <pt x="254" y="605" on="1"/>
        <pt x="155" y="605" on="0"/>
        <pt x="155" y="525" on="1"/>
      </contour>
      <contour>
        <pt x="355" y="125" on="1"/>
        <pt x="355" y="525" on="1"/>
        <pt x="355" y="557" on="0"/>
        <pt x="335" y="579" on="1"/>
        <pt x="215" y="49" on="1"/>
        <pt x="231" y="45" on="0"/>
        <pt x="256" y="45" on="1"/>
        <pt x="355" y="45" on="0"/>
      </contour>
      <contour>
        <pt x="343" y="793" on="1"/>
        <pt x="305" y="755" on="1"/>
        <pt x="192" y="698" on="1"/>
        <pt x="166" y="724" on="1"/>
        <pt x="289" y="847" on="1"/>
      </contour>
    </TTGlyph>
    <TTGlyph name="Otilde" xMin="85" yMin="-15" xMax="425" yMax="819">
      <contour>
        <pt x="425" y="525" on="1"/>
        <pt x="425" y="125" on="1"/>
        <pt x="425" y="58" on="0"/>
        <pt x="340" y="-15" on="0"/>
        <pt x="171" y="-15" on="0"/>
        <pt x="85" y="58" on="0"/>
        <pt x="85" y="125" on="1"/>
        <pt x="85" y="525" on="1"/>
        <pt x="85" y="592" on="0"/>
        <pt x="170" y="665" on="0"/>
        <pt x="339" y="665" on="0"/>
        <pt x="425" y="592" on="0"/>
      </contour>
      <contour>
        <pt x="355" y="125" on="1"/>
        <pt x="355" y="525" on="1"/>
        <pt x="355" y="605" on="0"/>
        <pt x="155" y="605" on="0"/>
        <pt x="155" y="525" on="1"/>
        <pt x="155" y="125" on="1"/>
        <pt x="155" y="45" on="0"/>
        <pt x="355" y="45" on="0"/>
      </contour>
      <contour>
        <pt x="298" y="759" on="1"/>
        <pt x="283" y="759" on="0"/>
        <pt x="227" y="721" on="0"/>
        <pt x="176" y="721" on="0"/>
        <pt x="140" y="761" on="0"/>
        <pt x="137" y="795" on="1"/>
        <pt x="178" y="809" on="1"/>
        <pt x="188" y="781" on="0"/>
        <pt x="212" y="781" on="1"/>
        <pt x="227" y="781" on="0"/>
        <pt x="283" y="819" on="0"/>
        <pt x="334" y="819" on="0"/>
        <pt x="370" y="779" on="0"/>
        <pt x="373" y="745" on="1"/>
        <pt x="332" y="731" on="1"/>
        <pt x="322" y="759" on="0"/>
      </contour>
    </TTGlyph>
    <TTGlyph name="P" xMin="90" yMin="0" xMax="400" yMax="650">
      <contour>
        <pt x="160" y="0" on="1"/>
        <pt x="90" y="0" on="1"/>
        <pt x="90" y="650" on="1"/>
        <pt x="241" y="650" on="1"/>
        <pt x="319" y="650" on="0"/>
        <pt x="400" y="576" on="0"/>
        <pt x="400" y="510" on="1"/>
        <pt x="400" y="340" on="1"/>
        <pt x="400" y="273" on="0"/>
        <pt x="320" y="200" on="0"/>
        <pt x="241" y="200" on="1"/>
        <pt x="160" y="200" on="1"/>
      </contour>
      <contour>
        <pt x="330" y="340" on="1"/>
        <pt x="330" y="510" on="1"/>
        <pt x="330" y="548" on="0"/>
        <pt x="284" y="590" on="0"/>
        <pt x="241" y="590" on="1"/>
        <pt x="160" y="590" on="1"/>
        <pt x="160" y="260" on="1"/>
        <pt x="241" y="260" on="1"/>
        <pt x="330" y="260" on="0"/>
      </contour>
    </TTGlyph>
    <TTGlyph name="Q" xMin="85" yMin="-142" xMax="425" yMax="665">
      <contour>
        <pt x="425" y="525" on="1"/>
        <pt x="425" y="125" on="1"/>
        <pt x="425" y="2" on="0"/>
        <pt x="290" y="-13" on="1"/>
        <pt x="320" y="-142" on="1"/>
        <pt x="260" y="-142" on="1"/>
        <pt x="230" y="-14" on="1"/>
        <pt x="85" y="-2" on="0"/>
        <pt x="85" y="125" on="1"/>
        <pt x="85" y="525" on="1"/>
        <pt x="85" y="592" on="0"/>
        <pt x="170" y="665" on="0"/>
        <pt x="339" y="665" on="0"/>
        <pt x="425" y="592" on="0"/>
      </contour>
      <contour>
        <pt x="355" y="125" on="1"/>
        <pt x="355" y="525" on="1"/>
        <pt x="355" y="605" on="0"/>
        <pt x="155" y="605" on="0"/>
        <pt x="155" y="525" on="1"/>
        <pt x="155" y="125" on="1"/>
        <pt x="155" y="45" on="0"/>
        <pt x="355" y="45" on="0"/>
      </contour>
    </TTGlyph>
    <TTGlyph name="R" xMin="100" yMin="0" xMax="445" yMax="650">
      <contour>
        <pt x="170" y="0" on="1"/>
        <pt x="100" y="0" on="1"/>
        <pt x="100" y="650" on="1"/>
        <pt x="251" y="650" on="1"/>
        <pt x="329" y="650" on="0"/>
        <pt x="410" y="576" on="0"/>
        <pt x="410" y="510" on="1"/>
        <pt x="410" y="370" on="1"/>
        <pt x="410" y="268" on="0"/>
        <pt x="322" y="240" on="1"/>
        <pt x="445" y="0" on="1"/>
        <pt x="368" y="0" on="1"/>
        <pt x="251" y="230" on="1"/>
        <pt x="170" y="230" on="1"/>
      </contour>
      <contour>
        <pt x="340" y="370" on="1"/>
        <pt x="340" y="510" on="1"/>
        <pt x="340" y="548" on="0"/>
        <pt x="294" y="590" on="0"/>
        <pt x="251" y="590" on="1"/>
        <pt x="170" y="590" on="1"/>
        <pt x="170" y="290" on="1"/>
        <pt x="251" y="290" on="1"/>
        <pt x="340" y="290" on="0"/>
      </contour>
    </TTGlyph>
    <TTGlyph name="Racute" xMin="100" yMin="0" xMax="445" yMax="847">
      <contour>
        <pt x="170" y="0" on="1"/>
        <pt x="100" y="0" on="1"/>
        <pt x="100" y="650" on="1"/>
        <pt x="251" y="650" on="1"/>
        <pt x="329" y="650" on="0"/>
        <pt x="410" y="576" on="0"/>
        <pt x="410" y="510" on="1"/>
        <pt x="410" y="370" on="1"/>
        <pt x="410" y="268" on="0"/>
        <pt x="322" y="240" on="1"/>
        <pt x="445" y="0" on="1"/>
        <pt x="368" y="0" on="1"/>
        <pt x="251" y="230" on="1"/>
        <pt x="170" y="230" on="1"/>
      </contour>
      <contour>
        <pt x="340" y="370" on="1"/>
        <pt x="340" y="510" on="1"/>
        <pt x="340" y="548" on="0"/>
        <pt x="294" y="590" on="0"/>
        <pt x="251" y="590" on="1"/>
        <pt x="170" y="590" on="1"/>
        <pt x="170" y="290" on="1"/>
        <pt x="251" y="290" on="1"/>
        <pt x="340" y="290" on="0"/>
      </contour>
      <contour>
        <pt x="341" y="793" on="1"/>
        <pt x="303" y="755" on="1"/>
        <pt x="190" y="698" on="1"/>
        <pt x="164" y="724" on="1"/>
        <pt x="287" y="847" on="1"/>
      </contour>
    </TTGlyph>
    <TTGlyph name="Rcaron" xMin="100" yMin="0" xMax="445" yMax="840">
      <contour>
        <pt x="170" y="0" on="1"/>
        <pt x="100" y="0" on="1"/>
        <pt x="100" y="650" on="1"/>
        <pt x="251" y="650" on="1"/>
        <pt x="329" y="650" on="0"/>
        <pt x="410" y="576" on="0"/>
        <pt x="410" y="510" on="1"/>
        <pt x="410" y="370" on="1"/>
        <pt x="410" y="268" on="0"/>
        <pt x="322" y="240" on="1"/>
        <pt x="445" y="0" on="1"/>
        <pt x="368" y="0" on="1"/>
        <pt x="251" y="230" on="1"/>
        <pt x="170" y="230" on="1"/>
      </contour>
      <contour>
        <pt x="340" y="370" on="1"/>
        <pt x="340" y="510" on="1"/>
        <pt x="340" y="548" on="0"/>
        <pt x="294" y="590" on="0"/>
        <pt x="251" y="590" on="1"/>
        <pt x="170" y="590" on="1"/>
        <pt x="170" y="290" on="1"/>
        <pt x="251" y="290" on="1"/>
        <pt x="340" y="290" on="0"/>
      </contour>
      <contour>
        <pt x="242" y="778" on="1"/>
        <pt x="330" y="840" on="1"/>
        <pt x="356" y="814" on="1"/>
        <pt x="258" y="701" on="1"/>
        <pt x="226" y="701" on="1"/>
        <pt x="128" y="814" on="1"/>
        <pt x="154" y="840" on="1"/>
      </contour>
    </TTGlyph>
    <TTGlyph name="S" xMin="80" yMin="-15" xMax="418" yMax="665">
      <contour>
        <pt x="418" y="125" on="1"/>
        <pt x="418" y="-15" on="0"/>
        <pt x="80" y="-15" on="0"/>
        <pt x="80" y="125" on="1"/>
        <pt x="80" y="210" on="1"/>
        <pt x="150" y="210" on="1"/>
        <pt x="150" y="121" on="1"/>
        <pt x="150" y="85" on="0"/>
        <pt x="200" y="45" on="0"/>
        <pt x="298" y="45" on="0"/>
        <pt x="348" y="85" on="0"/>
        <pt x="348" y="154" on="0"/>
        <pt x="333" y="195" on="0"/>
        <pt x="310" y="218" on="1"/>
        <pt x="134" y="390" on="1"/>
        <pt x="103" y="421" on="0"/>
        <pt x="80" y="480" on="0"/>
        <pt x="80" y="525" on="1"/>
        <pt x="80" y="592" on="0"/>
        <pt x="163" y="665" on="0"/>
        <pt x="247" y="665" on="1"/>
        <pt x="408" y="665" on="0"/>
        <pt x="408" y="525" on="1"/>
        <pt x="408" y="440" on="1"/>
        <pt x="338" y="440" on="1"/>
        <pt x="338" y="529" on="1"/>
        <pt x="338" y="565" on="0"/>
        <pt x="291" y="605" on="0"/>
        <pt x="197" y="605" on="0"/>
        <pt x="150" y="565" on="0"/>
        <pt x="150" y="495" on="0"/>
        <pt x="164" y="455" on="0"/>
        <pt x="188" y="433" on="1"/>
        <pt x="367" y="261" on="1"/>
        <pt x="396" y="229" on="0"/>
        <pt x="418" y="170" on="0"/>
      </contour>
    </TTGlyph>
    <TTGlyph name="Sacute" xMin="80" yMin="-15" xMax="418" yMax="847">
      <contour>
        <pt x="418" y="125" on="1"/>
        <pt x="418" y="-15" on="0"/>
        <pt x="80" y="-15" on="0"/>
        <pt x="80" y="125" on="1"/>
        <pt x="80" y="210" on="1"/>
        <pt x="150" y="210" on="1"/>
        <pt x="150" y="121" on="1"/>
        <pt x="150" y="85" on="0"/>
        <pt x="200" y="45" on="0"/>
        <pt x="298" y="45" on="0"/>
        <pt x="348" y="85" on="0"/>
        <pt x="348" y="154" on="0"/>
        <pt x="333" y="195" on="0"/>
        <pt x="310" y="218" on="1"/>
        <pt x="134" y="390" on="1"/>
        <pt x="103" y="421" on="0"/>
        <pt x="80" y="480" on="0"/>
        <pt x="80" y="525" on="1"/>
        <pt x="80" y="592" on="0"/>
        <pt x="163" y="665" on="0"/>
        <pt x="247" y="665" on="1"/>
        <pt x="408" y="665" on="0"/>
        <pt x="408" y="525" on="1"/>
        <pt x="408" y="440" on="1"/>
        <pt x="338" y="440" on="1"/>
        <pt x="338" y="529" on="1"/>
        <pt x="338" y="565" on="0"/>
        <pt x="291" y="605" on="0"/>
        <pt x="197" y="605" on="0"/>
        <pt x="150" y="565" on="0"/>
        <pt x="150" y="495" on="0"/>
        <pt x="164" y="455" on="0"/>
        <pt x="188" y="433" on="1"/>
        <pt x="367" y="261" on="1"/>
        <pt x="396" y="229" on="0"/>
        <pt x="418" y="170" on="0"/>
      </contour>
      <contour>
        <pt x="337" y="793" on="1"/>
        <pt x="299" y="755" on="1"/>
        <pt x="186" y="698" on="1"/>
        <pt x="160" y="724" on="1"/>
        <pt x="283" y="847" on="1"/>
      </contour>
    </TTGlyph>
    <TTGlyph name="Scaron" xMin="80" yMin="-15" xMax="418" yMax="840">
      <contour>
        <pt x="418" y="125" on="1"/>
        <pt x="418" y="-15" on="0"/>
        <pt x="80" y="-15" on="0"/>
        <pt x="80" y="125" on="1"/>
        <pt x="80" y="210" on="1"/>
        <pt x="150" y="210" on="1"/>
        <pt x="150" y="121" on="1"/>
        <pt x="150" y="85" on="0"/>
        <pt x="200" y="45" on="0"/>
        <pt x="298" y="45" on="0"/>
        <pt x="348" y="85" on="0"/>
        <pt x="348" y="154" on="0"/>
        <pt x="333" y="195" on="0"/>
        <pt x="310" y="218" on="1"/>
        <pt x="134" y="390" on="1"/>
        <pt x="103" y="421" on="0"/>
        <pt x="80" y="480" on="0"/>
        <pt x="80" y="525" on="1"/>
        <pt x="80" y="592" on="0"/>
        <pt x="163" y="665" on="0"/>
        <pt x="247" y="665" on="1"/>
        <pt x="408" y="665" on="0"/>
        <pt x="408" y="525" on="1"/>
        <pt x="408" y="440" on="1"/>
        <pt x="338" y="440" on="1"/>
        <pt x="338" y="529" on="1"/>
        <pt x="338" y="565" on="0"/>
        <pt x="291" y="605" on="0"/>
        <pt x="197" y="605" on="0"/>
        <pt x="150" y="565" on="0"/>
        <pt x="150" y="495" on="0"/>
        <pt x="164" y="455" on="0"/>
        <pt x="188" y="433" on="1"/>
        <pt x="367" y="261" on="1"/>
        <pt x="396" y="229" on="0"/>
        <pt x="418" y="170" on="0"/>
      </contour>
      <contour>
        <pt x="249" y="778" on="1"/>
        <pt x="337" y="840" on="1"/>
        <pt x="363" y="814" on="1"/>
        <pt x="265" y="701" on="1"/>
        <pt x="233" y="701" on="1"/>
        <pt x="135" y="814" on="1"/>
        <pt x="161" y="840" on="1"/>
      </contour>
    </TTGlyph>
    <TTGlyph name="Scedilla" xMin="80" yMin="-240" xMax="418" yMax="665">
      <contour>
        <pt x="418" y="125" on="1"/>
        <pt x="418" y="-11" on="0"/>
        <pt x="258" y="-15" on="1"/>
        <pt x="249" y="-62" on="1"/>
        <pt x="254" y="-62" on="1"/>
        <pt x="295" y="-62" on="0"/>
        <pt x="338" y="-105" on="0"/>
        <pt x="338" y="-141" on="1"/>
        <pt x="338" y="-164" on="1"/>
        <pt x="338" y="-240" on="0"/>
        <pt x="159" y="-240" on="0"/>
        <pt x="159" y="-164" on="1"/>
        <pt x="159" y="-156" on="1"/>
        <pt x="207" y="-156" on="1"/>
        <pt x="207" y="-166" on="1"/>
        <pt x="207" y="-197" on="0"/>
        <pt x="290" y="-197" on="0"/>
        <pt x="290" y="-166" on="1"/>
        <pt x="290" y="-141" on="1"/>
        <pt x="290" y="-127" on="0"/>
        <pt x="270" y="-105" on="0"/>
        <pt x="254" y="-105" on="1"/>
        <pt x="194" y="-105" on="1"/>
        <pt x="212" y="-13" on="1"/>
        <pt x="80" y="3" on="0"/>
        <pt x="80" y="125" on="1"/>
        <pt x="80" y="210" on="1"/>
        <pt x="150" y="210" on="1"/>
        <pt x="150" y="121" on="1"/>
        <pt x="150" y="85" on="0"/>
        <pt x="200" y="45" on="0"/>
        <pt x="298" y="45" on="0"/>
        <pt x="348" y="85" on="0"/>
        <pt x="348" y="154" on="0"/>
        <pt x="333" y="195" on="0"/>
        <pt x="310" y="218" on="1"/>
        <pt x="134" y="390" on="1"/>
        <pt x="103" y="421" on="0"/>
        <pt x="80" y="480" on="0"/>
        <pt x="80" y="525" on="1"/>
        <pt x="80" y="592" on="0"/>
        <pt x="163" y="665" on="0"/>
        <pt x="247" y="665" on="1"/>
        <pt x="408" y="665" on="0"/>
        <pt x="408" y="525" on="1"/>
        <pt x="408" y="440" on="1"/>
        <pt x="338" y="440" on="1"/>
        <pt x="338" y="529" on="1"/>
        <pt x="338" y="565" on="0"/>
        <pt x="291" y="605" on="0"/>
        <pt x="197" y="605" on="0"/>
        <pt x="150" y="565" on="0"/>
        <pt x="150" y="495" on="0"/>
        <pt x="164" y="455" on="0"/>
        <pt x="188" y="433" on="1"/>
        <pt x="367" y="261" on="1"/>
        <pt x="396" y="229" on="0"/>
        <pt x="418" y="170" on="0"/>
      </contour>
    </TTGlyph>
    <TTGlyph name="Scircumflex" xMin="80" yMin="-15" xMax="418" yMax="837">
      <contour>
        <pt x="418" y="125" on="1"/>
        <pt x="418" y="-15" on="0"/>
        <pt x="80" y="-15" on="0"/>
        <pt x="80" y="125" on="1"/>
        <pt x="80" y="210" on="1"/>
        <pt x="150" y="210" on="1"/>
        <pt x="150" y="121" on="1"/>
        <pt x="150" y="85" on="0"/>
        <pt x="200" y="45" on="0"/>
        <pt x="298" y="45" on="0"/>
        <pt x="348" y="85" on="0"/>
        <pt x="348" y="154" on="0"/>
        <pt x="333" y="195" on="0"/>
        <pt x="310" y="218" on="1"/>
        <pt x="134" y="390" on="1"/>
        <pt x="103" y="421" on="0"/>
        <pt x="80" y="480" on="0"/>
        <pt x="80" y="525" on="1"/>
        <pt x="80" y="592" on="0"/>
        <pt x="163" y="665" on="0"/>
        <pt x="247" y="665" on="1"/>
        <pt x="408" y="665" on="0"/>
        <pt x="408" y="525" on="1"/>
        <pt x="408" y="440" on="1"/>
        <pt x="338" y="440" on="1"/>
        <pt x="338" y="529" on="1"/>
        <pt x="338" y="565" on="0"/>
        <pt x="291" y="605" on="0"/>
        <pt x="197" y="605" on="0"/>
        <pt x="150" y="565" on="0"/>
        <pt x="150" y="495" on="0"/>
        <pt x="164" y="455" on="0"/>
        <pt x="188" y="433" on="1"/>
        <pt x="367" y="261" on="1"/>
        <pt x="396" y="229" on="0"/>
        <pt x="418" y="170" on="0"/>
      </contour>
      <contour>
        <pt x="249" y="760" on="1"/>
        <pt x="161" y="698" on="1"/>
        <pt x="135" y="724" on="1"/>
        <pt x="233" y="837" on="1"/>
        <pt x="265" y="837" on="1"/>
        <pt x="363" y="724" on="1"/>
        <pt x="337" y="698" on="1"/>
      </contour>
    </TTGlyph>
    <TTGlyph name="T" xMin="30" yMin="0" xMax="360" yMax="650">
      <contour>
        <pt x="360" y="650" on="1"/>
        <pt x="360" y="590" on="1"/>
        <pt x="230" y="590" on="1"/>
        <pt x="230" y="0" on="1"/>
        <pt x="160" y="0" on="1"/>
        <pt x="160" y="590" on="1"/>
        <pt x="30" y="590" on="1"/>
        <pt x="30" y="650" on="1"/>
      </contour>
    </TTGlyph>
    <TTGlyph name="Tbar" xMin="26" yMin="0" xMax="364" yMax="650">
      <contour>
        <pt x="26" y="405" on="1"/>
        <pt x="26" y="455" on="1"/>
        <pt x="160" y="455" on="1"/>
        <pt x="160" y="590" on="1"/>
        <pt x="30" y="590" on="1"/>
        <pt x="30" y="650" on="1"/>
        <pt x="360" y="650" on="1"/>
        <pt x="360" y="590" on="1"/>
        <pt x="230" y="590" on="1"/>
        <pt x="230" y="455" on="1"/>
        <pt x="364" y="455" on="1"/>
        <pt x="364" y="405" on="1"/>
        <pt x="230" y="405" on="1"/>
        <pt x="230" y="0" on="1"/>
        <pt x="160" y="0" on="1"/>
        <pt x="160" y="405" on="1"/>
      </contour>
    </TTGlyph>
    <TTGlyph name="Tcaron" xMin="30" yMin="0" xMax="360" yMax="840">
      <contour>
        <pt x="360" y="650" on="1"/>
        <pt x="360" y="590" on="1"/>
        <pt x="230" y="590" on="1"/>
        <pt x="230" y="0" on="1"/>
        <pt x="160" y="0" on="1"/>
        <pt x="160" y="590" on="1"/>
        <pt x="30" y="590" on="1"/>
        <pt x="30" y="650" on="1"/>
      </contour>
      <contour>
        <pt x="195" y="778" on="1"/>
        <pt x="283" y="840" on="1"/>
        <pt x="309" y="814" on="1"/>
        <pt x="211" y="701" on="1"/>
        <pt x="179" y="701" on="1"/>
        <pt x="81" y="814" on="1"/>
        <pt x="107" y="840" on="1"/>
      </contour>
    </TTGlyph>
    <TTGlyph name="Thorn" xMin="90" yMin="0" xMax="400" yMax="650">
      <contour>
        <pt x="160" y="0" on="1"/>
        <pt x="90" y="0" on="1"/>
        <pt x="90" y="650" on="1"/>
        <pt x="160" y="650" on="1"/>
        <pt x="160" y="550" on="1"/>
        <pt x="241" y="550" on="1"/>
        <pt x="319" y="550" on="0"/>
        <pt x="400" y="476" on="0"/>
        <pt x="400" y="410" on="1"/>
        <pt x="400" y="240" on="1"/>
        <pt x="400" y="173" on="0"/>
        <pt x="320" y="100" on="0"/>
        <pt x="241" y="100" on="1"/>
        <pt x="160" y="100" on="1"/>
      </contour>
      <contour>
        <pt x="330" y="240" on="1"/>
        <pt x="330" y="410" on="1"/>
        <pt x="330" y="448" on="0"/>
        <pt x="284" y="490" on="0"/>
        <pt x="241" y="490" on="1"/>
        <pt x="160" y="490" on="1"/>
        <pt x="160" y="160" on="1"/>
        <pt x="241" y="160" on="1"/>
        <pt x="330" y="160" on="0"/>
      </contour>
    </TTGlyph>
    <TTGlyph name="U" xMin="90" yMin="-15" xMax="430" yMax="650">
      <contour>
        <pt x="360" y="125" on="1"/>
        <pt x="360" y="650" on="1"/>
        <pt x="430" y="650" on="1"/>
        <pt x="430" y="125" on="1"/>
        <pt x="430" y="58" on="0"/>
        <pt x="345" y="-15" on="0"/>
        <pt x="176" y="-15" on="0"/>
        <pt x="90" y="58" on="0"/>
        <pt x="90" y="125" on="1"/>
        <pt x="90" y="650" on="1"/>
        <pt x="160" y="650" on="1"/>
        <pt x="160" y="125" on="1"/>
        <pt x="160" y="45" on="0"/>
        <pt x="360" y="45" on="0"/>
      </contour>
    </TTGlyph>
    <TTGlyph name="Uacute" xMin="90" yMin="-15" xMax="430" yMax="847">
      <contour>
        <pt x="360" y="125" on="1"/>
        <pt x="360" y="650" on="1"/>
        <pt x="430" y="650" on="1"/>
        <pt x="430" y="125" on="1"/>
        <pt x="430" y="58" on="0"/>
        <pt x="345" y="-15" on="0"/>
        <pt x="176" y="-15" on="0"/>
        <pt x="90" y="58" on="0"/>
        <pt x="90" y="125" on="1"/>
        <pt x="90" y="650" on="1"/>
        <pt x="160" y="650" on="1"/>
        <pt x="160" y="125" on="1"/>
        <pt x="160" y="45" on="0"/>
        <pt x="360" y="45" on="0"/>
      </contour>
      <contour>
        <pt x="368" y="793" on="1"/>
        <pt x="330" y="755" on="1"/>
        <pt x="217" y="698" on="1"/>
        <pt x="191" y="724" on="1"/>
        <pt x="314" y="847" on="1"/>
      </contour>
    </TTGlyph>
    <TTGlyph name="Ubreve" xMin="90" yMin="-15" xMax="430" yMax="816">
      <contour>
        <pt x="360" y="125" on="1"/>
        <pt x="360" y="650" on="1"/>
        <pt x="430" y="650" on="1"/>
        <pt x="430" y="125" on="1"/>
        <pt x="430" y="58" on="0"/>
        <pt x="345" y="-15" on="0"/>
        <pt x="176" y="-15" on="0"/>
        <pt x="90" y="58" on="0"/>
        <pt x="90" y="125" on="1"/>
        <pt x="90" y="650" on="1"/>
        <pt x="160" y="650" on="1"/>
        <pt x="160" y="125" on="1"/>
        <pt x="160" y="45" on="0"/>
        <pt x="360" y="45" on="0"/>
      </contour>
      <contour>
        <pt x="217" y="816" on="1"/>
        <pt x="217" y="796" on="1"/>
        <pt x="217" y="765" on="0"/>
        <pt x="303" y="765" on="0"/>
        <pt x="303" y="796" on="1"/>
        <pt x="303" y="816" on="1"/>
        <pt x="358" y="816" on="1"/>
        <pt x="358" y="790" on="1"/>
        <pt x="358" y="715" on="0"/>
        <pt x="162" y="715" on="0"/>
        <pt x="162" y="790" on="1"/>
        <pt x="162" y="816" on="1"/>
      </contour>
    </TTGlyph>
    <TTGlyph name="Ucircumflex" xMin="90" yMin="-15" xMax="430" yMax="837">
      <contour>
        <pt x="360" y="125" on="1"/>
        <pt x="360" y="650" on="1"/>
        <pt x="430" y="650" on="1"/>
        <pt x="430" y="125" on="1"/>
        <pt x="430" y="58" on="0"/>
        <pt x="345" y="-15" on="0"/>
        <pt x="176" y="-15" on="0"/>
        <pt x="90" y="58" on="0"/>
        <pt x="90" y="125" on="1"/>
        <pt x="90" y="650" on="1"/>
        <pt x="160" y="650" on="1"/>
        <pt x="160" y="125" on="1"/>
        <pt x="160" y="45" on="0"/>
        <pt x="360" y="45" on="0"/>
      </contour>
      <contour>
        <pt x="260" y="760" on="1"/>
        <pt x="172" y="698" on="1"/>
        <pt x="146" y="724" on="1"/>
        <pt x="244" y="837" on="1"/>
        <pt x="276" y="837" on="1"/>
        <pt x="374" y="724" on="1"/>
        <pt x="348" y="698" on="1"/>
      </contour>
    </TTGlyph>
    <TTGlyph name="Udieresis" xMin="90" yMin="-15" xMax="430" yMax="825">
      <contour>
        <pt x="360" y="125" on="1"/>
        <pt x="360" y="650" on="1"/>
        <pt x="430" y="650" on="1"/>
        <pt x="430" y="125" on="1"/>
        <pt x="430" y="58" on="0"/>
        <pt x="345" y="-15" on="0"/>
        <pt x="176" y="-15" on="0"/>
        <pt x="90" y="58" on="0"/>
        <pt x="90" y="125" on="1"/>
        <pt x="90" y="650" on="1"/>
        <pt x="160" y="650" on="1"/>
        <pt x="160" y="125" on="1"/>
        <pt x="160" y="45" on="0"/>
        <pt x="360" y="45" on="0"/>
      </contour>
      <contour>
        <pt x="225" y="715" on="1"/>
        <pt x="155" y="715" on="1"/>
        <pt x="155" y="825" on="1"/>
        <pt x="225" y="825" on="1"/>
      </contour>
      <contour>
        <pt x="365" y="715" on="1"/>
        <pt x="295" y="715" on="1"/>
        <pt x="295" y="825" on="1"/>
        <pt x="365" y="825" on="1"/>
      </contour>
    </TTGlyph>
    <TTGlyph name="Ugrave" xMin="90" yMin="-15" xMax="430" yMax="847">
      <contour>
        <pt x="360" y="125" on="1"/>
        <pt x="360" y="650" on="1"/>
        <pt x="430" y="650" on="1"/>
        <pt x="430" y="125" on="1"/>
        <pt x="430" y="58" on="0"/>
        <pt x="345" y="-15" on="0"/>
        <pt x="176" y="-15" on="0"/>
        <pt x="90" y="58" on="0"/>
        <pt x="90" y="125" on="1"/>
        <pt x="90" y="650" on="1"/>
        <pt x="160" y="650" on="1"/>
        <pt x="160" y="125" on="1"/>
        <pt x="160" y="45" on="0"/>
        <pt x="360" y="45" on="0"/>
      </contour>
      <contour>
        <pt x="199" y="755" on="1"/>
        <pt x="161" y="793" on="1"/>
        <pt x="215" y="847" on="1"/>
        <pt x="338" y="724" on="1"/>
        <pt x="312" y="698" on="1"/>
      </contour>
    </TTGlyph>
    <TTGlyph name="Uhungarumlaut" xMin="90" yMin="-15" xMax="469" yMax="847">
      <contour>
        <pt x="360" y="125" on="1"/>
        <pt x="360" y="650" on="1"/>
        <pt x="430" y="650" on="1"/>
        <pt x="430" y="125" on="1"/>
        <pt x="430" y="58" on="0"/>
        <pt x="345" y="-15" on="0"/>
        <pt x="176" y="-15" on="0"/>
        <pt x="90" y="58" on="0"/>
        <pt x="90" y="125" on="1"/>
        <pt x="90" y="650" on="1"/>
        <pt x="160" y="650" on="1"/>
        <pt x="160" y="125" on="1"/>
        <pt x="160" y="45" on="0"/>
        <pt x="360" y="45" on="0"/>
      </contour>
      <contour>
        <pt x="289" y="793" on="1"/>
        <pt x="251" y="755" on="1"/>
        <pt x="138" y="698" on="1"/>
        <pt x="112" y="724" on="1"/>
        <pt x="235" y="847" on="1"/>
      </contour>
      <contour>
        <pt x="469" y="793" on="1"/>
        <pt x="431" y="755" on="1"/>
        <pt x="318" y="698" on="1"/>
        <pt x="292" y="724" on="1"/>
        <pt x="415" y="847" on="1"/>
      </contour>
    </TTGlyph>
    <TTGlyph name="Umacron" xMin="90" yMin="-15" xMax="430" yMax="800">
      <contour>
        <pt x="360" y="125" on="1"/>
        <pt x="360" y="650" on="1"/>
        <pt x="430" y="650" on="1"/>
        <pt x="430" y="125" on="1"/>
        <pt x="430" y="58" on="0"/>
        <pt x="345" y="-15" on="0"/>
        <pt x="176" y="-15" on="0"/>
        <pt x="90" y="58" on="0"/>
        <pt x="90" y="125" on="1"/>
        <pt x="90" y="650" on="1"/>
        <pt x="160" y="650" on="1"/>
        <pt x="160" y="125" on="1"/>
        <pt x="160" y="45" on="0"/>
        <pt x="360" y="45" on="0"/>
      </contour>
      <contour>
        <pt x="152" y="740" on="1"/>
        <pt x="152" y="800" on="1"/>
        <pt x="368" y="800" on="1"/>
        <pt x="368" y="740" on="1"/>
      </contour>
    </TTGlyph>
    <TTGlyph name="Uogonek" xMin="90" yMin="-240" xMax="430" yMax="650">
      <contour>
        <pt x="360" y="125" on="1"/>
        <pt x="360" y="650" on="1"/>
        <pt x="430" y="650" on="1"/>
        <pt x="430" y="125" on="1"/>
        <pt x="430" y="31" on="0"/>
        <pt x="350" y="0" on="1"/>
        <pt x="288" y="-51" on="1"/>
        <pt x="239" y="-91" on="0"/>
        <pt x="239" y="-124" on="1"/>
        <pt x="239" y="-166" on="1"/>
        <pt x="239" y="-197" on="0"/>
        <pt x="322" y="-197" on="0"/>
        <pt x="322" y="-166" on="1"/>
        <pt x="322" y="-136" on="1"/>
        <pt x="370" y="-136" on="1"/>
        <pt x="370" y="-164" on="1"/>
        <pt x="370" y="-240" on="0"/>
        <pt x="191" y="-240" on="0"/>
        <pt x="191" y="-164" on="1"/>
        <pt x="191" y="-124" on="1"/>
        <pt x="191" y="-79" on="0"/>
        <pt x="232" y="-41" on="1"/>
        <pt x="263" y="-15" on="1"/>
        <pt x="261" y="-15" on="1"/>
        <pt x="176" y="-15" on="0"/>
        <pt x="90" y="58" on="0"/>
        <pt x="90" y="125" on="1"/>
        <pt x="90" y="650" on="1"/>
        <pt x="160" y="650" on="1"/>
        <pt x="160" y="125" on="1"/>
        <pt x="160" y="45" on="0"/>
        <pt x="360" y="45" on="0"/>
      </contour>
    </TTGlyph>
    <TTGlyph name="Uring" xMin="90" yMin="-15" xMax="430" yMax="855">
      <contour>
        <pt x="360" y="125" on="1"/>
        <pt x="360" y="650" on="1"/>
        <pt x="430" y="650" on="1"/>
        <pt x="430" y="125" on="1"/>
        <pt x="430" y="58" on="0"/>
        <pt x="345" y="-15" on="0"/>
        <pt x="176" y="-15" on="0"/>
        <pt x="90" y="58" on="0"/>
        <pt x="90" y="125" on="1"/>
        <pt x="90" y="650" on="1"/>
        <pt x="160" y="650" on="1"/>
        <pt x="160" y="125" on="1"/>
        <pt x="160" y="45" on="0"/>
        <pt x="360" y="45" on="0"/>
      </contour>
      <contour>
        <pt x="345" y="780" on="1"/>
        <pt x="345" y="760" on="1"/>
        <pt x="345" y="685" on="0"/>
        <pt x="175" y="685" on="0"/>
        <pt x="175" y="760" on="1"/>
        <pt x="175" y="780" on="1"/>
        <pt x="175" y="855" on="0"/>
        <pt x="345" y="855" on="0"/>
      </contour>
      <contour>
        <pt x="225" y="780" on="1"/>
        <pt x="225" y="760" on="1"/>
        <pt x="225" y="729" on="0"/>
        <pt x="295" y="729" on="0"/>
        <pt x="295" y="760" on="1"/>
        <pt x="295" y="780" on="1"/>
        <pt x="295" y="811" on="0"/>
        <pt x="225" y="811" on="0"/>
      </contour>
    </TTGlyph>
    <TTGlyph name="Utilde" xMin="90" yMin="-15" xMax="430" yMax="819">
      <contour>
        <pt x="360" y="125" on="1"/>
        <pt x="360" y="650" on="1"/>
        <pt x="430" y="650" on="1"/>
        <pt x="430" y="125" on="1"/>
        <pt x="430" y="58" on="0"/>
        <pt x="345" y="-15" on="0"/>
        <pt x="176" y="-15" on="0"/>
        <pt x="90" y="58" on="0"/>
        <pt x="90" y="125" on="1"/>
        <pt x="90" y="650" on="1"/>
        <pt x="160" y="650" on="1"/>
        <pt x="160" y="125" on="1"/>
        <pt x="160" y="45" on="0"/>
        <pt x="360" y="45" on="0"/>
      </contour>
      <contour>
        <pt x="303" y="759" on="1"/>
        <pt x="288" y="759" on="0"/>
        <pt x="232" y="721" on="0"/>
        <pt x="181" y="721" on="0"/>
        <pt x="145" y="761" on="0"/>
        <pt x="142" y="795" on="1"/>
        <pt x="183" y="809" on="1"/>
        <pt x="193" y="781" on="0"/>
        <pt x="217" y="781" on="1"/>
        <pt x="232" y="781" on="0"/>
        <pt x="288" y="819" on="0"/>
        <pt x="339" y="819" on="0"/>
        <pt x="375" y="779" on="0"/>
        <pt x="378" y="745" on="1"/>
        <pt x="337" y="731" on="1"/>
        <pt x="327" y="759" on="0"/>
      </contour>
    </TTGlyph>
    <TTGlyph name="V" xMin="40" yMin="0" xMax="439" yMax="650">
      <contour>
        <pt x="292" y="0" on="1"/>
        <pt x="187" y="0" on="1"/>
        <pt x="40" y="650" on="1"/>
        <pt x="110" y="650" on="1"/>
        <pt x="239" y="77" on="1"/>
        <pt x="369" y="650" on="1"/>
        <pt x="439" y="650" on="1"/>
      </contour>
    </TTGlyph>
    <TTGlyph name="W" xMin="45" yMin="0" xMax="638" yMax="650">
      <contour>
        <pt x="240" y="0" on="1"/>
        <pt x="142" y="0" on="1"/>
        <pt x="45" y="650" on="1"/>
        <pt x="115" y="650" on="1"/>
        <pt x="197" y="101" on="1"/>
        <pt x="304" y="650" on="1"/>
        <pt x="379" y="650" on="1"/>
        <pt x="486" y="101" on="1"/>
        <pt x="568" y="650" on="1"/>
        <pt x="638" y="650" on="1"/>
        <pt x="541" y="0" on="1"/>
        <pt x="443" y="0" on="1"/>
        <pt x="341" y="519" on="1"/>
      </contour>
    </TTGlyph>
    <TTGlyph name="Wacute" xMin="45" yMin="0" xMax="638" yMax="847">
      <contour>
        <pt x="240" y="0" on="1"/>
        <pt x="142" y="0" on="1"/>
        <pt x="45" y="650" on="1"/>
        <pt x="115" y="650" on="1"/>
        <pt x="197" y="101" on="1"/>
        <pt x="304" y="650" on="1"/>
        <pt x="379" y="650" on="1"/>
        <pt x="486" y="101" on="1"/>
        <pt x="568" y="650" on="1"/>
        <pt x="638" y="650" on="1"/>
        <pt x="541" y="0" on="1"/>
        <pt x="443" y="0" on="1"/>
        <pt x="341" y="519" on="1"/>
      </contour>
      <contour>
        <pt x="440" y="793" on="1"/>
        <pt x="402" y="755" on="1"/>
        <pt x="289" y="698" on="1"/>
        <pt x="263" y="724" on="1"/>
        <pt x="386" y="847" on="1"/>
      </contour>
    </TTGlyph>
    <TTGlyph name="Wcircumflex" xMin="45" yMin="0" xMax="638" yMax="837">
      <contour>
        <pt x="240" y="0" on="1"/>
        <pt x="142" y="0" on="1"/>
        <pt x="45" y="650" on="1"/>
        <pt x="115" y="650" on="1"/>
        <pt x="197" y="101" on="1"/>
        <pt x="304" y="650" on="1"/>
        <pt x="379" y="650" on="1"/>
        <pt x="486" y="101" on="1"/>
        <pt x="568" y="650" on="1"/>
        <pt x="638" y="650" on="1"/>
        <pt x="541" y="0" on="1"/>
        <pt x="443" y="0" on="1"/>
        <pt x="341" y="519" on="1"/>
      </contour>
      <contour>
        <pt x="341" y="760" on="1"/>
        <pt x="253" y="698" on="1"/>
        <pt x="227" y="724" on="1"/>
        <pt x="325" y="837" on="1"/>
        <pt x="357" y="837" on="1"/>
        <pt x="455" y="724" on="1"/>
        <pt x="429" y="698" on="1"/>
      </contour>
    </TTGlyph>
    <TTGlyph name="Wdieresis" xMin="45" yMin="0" xMax="638" yMax="825">
      <contour>
        <pt x="240" y="0" on="1"/>
        <pt x="142" y="0" on="1"/>
        <pt x="45" y="650" on="1"/>
        <pt x="115" y="650" on="1"/>
        <pt x="197" y="101" on="1"/>
        <pt x="304" y="650" on="1"/>
        <pt x="379" y="650" on="1"/>
        <pt x="486" y="101" on="1"/>
        <pt x="568" y="650" on="1"/>
        <pt x="638" y="650" on="1"/>
        <pt x="541" y="0" on="1"/>
        <pt x="443" y="0" on="1"/>
        <pt x="341" y="519" on="1"/>
      </contour>
      <contour>
        <pt x="306" y="715" on="1"/>
        <pt x="236" y="715" on="1"/>
        <pt x="236" y="825" on="1"/>
        <pt x="306" y="825" on="1"/>
      </contour>
      <contour>
        <pt x="446" y="715" on="1"/>
        <pt x="376" y="715" on="1"/>
        <pt x="376" y="825" on="1"/>
        <pt x="446" y="825" on="1"/>
      </contour>
    </TTGlyph>
    <TTGlyph name="Wgrave" xMin="45" yMin="0" xMax="638" yMax="847">
      <contour>
        <pt x="240" y="0" on="1"/>
        <pt x="142" y="0" on="1"/>
        <pt x="45" y="650" on="1"/>
        <pt x="115" y="650" on="1"/>
        <pt x="197" y="101" on="1"/>
        <pt x="304" y="650" on="1"/>
        <pt x="379" y="650" on="1"/>
        <pt x="486" y="101" on="1"/>
        <pt x="568" y="650" on="1"/>
        <pt x="638" y="650" on="1"/>
        <pt x="541" y="0" on="1"/>
        <pt x="443" y="0" on="1"/>
        <pt x="341" y="519" on="1"/>
      </contour>
      <contour>
        <pt x="291" y="755" on="1"/>
        <pt x="253" y="793" on="1"/>
        <pt x="307" y="847" on="1"/>
        <pt x="430" y="724" on="1"/>
        <pt x="404" y="698" on="1"/>
      </contour>
    </TTGlyph>
    <TTGlyph name="X" xMin="40" yMin="0" xMax="412" yMax="650">
      <contour>
        <pt x="412" y="0" on="1"/>
        <pt x="339" y="0" on="1"/>
        <pt x="226" y="253" on="1"/>
        <pt x="113" y="0" on="1"/>
        <pt x="40" y="0" on="1"/>
        <pt x="190" y="335" on="1"/>
        <pt x="50" y="650" on="1"/>
        <pt x="123" y="650" on="1"/>
        <pt x="230" y="408" on="1"/>
        <pt x="339" y="650" on="1"/>
        <pt x="412" y="650" on="1"/>
        <pt x="267" y="326" on="1"/>
      </contour>
    </TTGlyph>
    <TTGlyph name="Y" xMin="25" yMin="0" xMax="425" yMax="650">
      <contour>
        <pt x="260" y="0" on="1"/>
        <pt x="190" y="0" on="1"/>
        <pt x="190" y="233" on="1"/>
        <pt x="25" y="650" on="1"/>
        <pt x="99" y="650" on="1"/>
        <pt x="225" y="315" on="1"/>
        <pt x="351" y="650" on="1"/>
        <pt x="425" y="650" on="1"/>
        <pt x="260" y="232" on="1"/>
      </contour>
    </TTGlyph>
    <TTGlyph name="Yacute" xMin="25" yMin="0" xMax="425" yMax="847">
      <contour>
        <pt x="260" y="0" on="1"/>
        <pt x="190" y="0" on="1"/>
        <pt x="190" y="233" on="1"/>
        <pt x="25" y="650" on="1"/>
        <pt x="99" y="650" on="1"/>
        <pt x="225" y="315" on="1"/>
        <pt x="351" y="650" on="1"/>
        <pt x="425" y="650" on="1"/>
        <pt x="260" y="232" on="1"/>
      </contour>
      <contour>
        <pt x="333" y="793" on="1"/>
        <pt x="295" y="755" on="1"/>
        <pt x="182" y="698" on="1"/>
        <pt x="156" y="724" on="1"/>
        <pt x="279" y="847" on="1"/>
      </contour>
    </TTGlyph>
    <TTGlyph name="Ycircumflex" xMin="25" yMin="0" xMax="425" yMax="837">
      <contour>
        <pt x="260" y="0" on="1"/>
        <pt x="190" y="0" on="1"/>
        <pt x="190" y="233" on="1"/>
        <pt x="25" y="650" on="1"/>
        <pt x="99" y="650" on="1"/>
        <pt x="225" y="315" on="1"/>
        <pt x="351" y="650" on="1"/>
        <pt x="425" y="650" on="1"/>
        <pt x="260" y="232" on="1"/>
      </contour>
      <contour>
        <pt x="225" y="760" on="1"/>
        <pt x="137" y="698" on="1"/>
        <pt x="111" y="724" on="1"/>
        <pt x="209" y="837" on="1"/>
        <pt x="241" y="837" on="1"/>
        <pt x="339" y="724" on="1"/>
        <pt x="313" y="698" on="1"/>
      </contour>
    </TTGlyph>
    <TTGlyph name="Ydieresis" xMin="25" yMin="0" xMax="425" yMax="825">
      <contour>
        <pt x="260" y="0" on="1"/>
        <pt x="190" y="0" on="1"/>
        <pt x="190" y="233" on="1"/>
        <pt x="25" y="650" on="1"/>
        <pt x="99" y="650" on="1"/>
        <pt x="225" y="315" on="1"/>
        <pt x="351" y="650" on="1"/>
        <pt x="425" y="650" on="1"/>
        <pt x="260" y="232" on="1"/>
      </contour>
      <contour>
        <pt x="190" y="715" on="1"/>
        <pt x="120" y="715" on="1"/>
        <pt x="120" y="825" on="1"/>
        <pt x="190" y="825" on="1"/>
      </contour>
      <contour>
        <pt x="330" y="715" on="1"/>
        <pt x="260" y="715" on="1"/>
        <pt x="260" y="825" on="1"/>
        <pt x="330" y="825" on="1"/>
      </contour>
    </TTGlyph>
    <TTGlyph name="Ygrave" xMin="25" yMin="0" xMax="425" yMax="847">
      <contour>
        <pt x="260" y="0" on="1"/>
        <pt x="190" y="0" on="1"/>
        <pt x="190" y="233" on="1"/>
        <pt x="25" y="650" on="1"/>
        <pt x="99" y="650" on="1"/>
        <pt x="225" y="315" on="1"/>
        <pt x="351" y="650" on="1"/>
        <pt x="425" y="650" on="1"/>
        <pt x="260" y="232" on="1"/>
      </contour>
      <contour>
        <pt x="175" y="755" on="1"/>
        <pt x="137" y="793" on="1"/>
        <pt x="191" y="847" on="1"/>
        <pt x="314" y="724" on="1"/>
        <pt x="288" y="698" on="1"/>
      </contour>
    </TTGlyph>
    <TTGlyph name="Z" xMin="35" yMin="0" xMax="377" yMax="650">
      <contour>
        <pt x="50" y="590" on="1"/>
        <pt x="50" y="650" on="1"/>
        <pt x="377" y="650" on="1"/>
        <pt x="377" y="590" on="1"/>
        <pt x="108" y="60" on="1"/>
        <pt x="372" y="60" on="1"/>
        <pt x="372" y="0" on="1"/>
        <pt x="35" y="0" on="1"/>
        <pt x="35" y="60" on="1"/>
        <pt x="304" y="590" on="1"/>
      </contour>
    </TTGlyph>
    <TTGlyph name="Zacute" xMin="35" yMin="0" xMax="377" yMax="847">
      <contour>
        <pt x="50" y="590" on="1"/>
        <pt x="50" y="650" on="1"/>
        <pt x="377" y="650" on="1"/>
        <pt x="377" y="590" on="1"/>
        <pt x="108" y="60" on="1"/>
        <pt x="372" y="60" on="1"/>
        <pt x="372" y="0" on="1"/>
        <pt x="35" y="0" on="1"/>
        <pt x="35" y="60" on="1"/>
        <pt x="304" y="590" on="1"/>
      </contour>
      <contour>
        <pt x="327" y="793" on="1"/>
        <pt x="289" y="755" on="1"/>
        <pt x="176" y="698" on="1"/>
        <pt x="150" y="724" on="1"/>
        <pt x="273" y="847" on="1"/>
      </contour>
    </TTGlyph>
    <TTGlyph name="Zcaron" xMin="35" yMin="0" xMax="377" yMax="840">
      <contour>
        <pt x="50" y="590" on="1"/>
        <pt x="50" y="650" on="1"/>
        <pt x="377" y="650" on="1"/>
        <pt x="377" y="590" on="1"/>
        <pt x="108" y="60" on="1"/>
        <pt x="372" y="60" on="1"/>
        <pt x="372" y="0" on="1"/>
        <pt x="35" y="0" on="1"/>
        <pt x="35" y="60" on="1"/>
        <pt x="304" y="590" on="1"/>
      </contour>
      <contour>
        <pt x="218" y="778" on="1"/>
        <pt x="306" y="840" on="1"/>
        <pt x="332" y="814" on="1"/>
        <pt x="234" y="701" on="1"/>
        <pt x="202" y="701" on="1"/>
        <pt x="104" y="814" on="1"/>
        <pt x="130" y="840" on="1"/>
      </contour>
    </TTGlyph>
    <TTGlyph name="Zdotaccent" xMin="35" yMin="0" xMax="377" yMax="825">
      <contour>
        <pt x="50" y="590" on="1"/>
        <pt x="50" y="650" on="1"/>
        <pt x="377" y="650" on="1"/>
        <pt x="377" y="590" on="1"/>
        <pt x="108" y="60" on="1"/>
        <pt x="372" y="60" on="1"/>
        <pt x="372" y="0" on="1"/>
        <pt x="35" y="0" on="1"/>
        <pt x="35" y="60" on="1"/>
        <pt x="304" y="590" on="1"/>
      </contour>
      <contour>
        <pt x="258" y="715" on="1"/>
        <pt x="178" y="715" on="1"/>
        <pt x="178" y="825" on="1"/>
        <pt x="258" y="825" on="1"/>
      </contour>
    </TTGlyph>
    <TTGlyph name="a" xMin="80" yMin="-15" xMax="410" yMax="665">
      <contour>
        <pt x="410" y="0" on="1"/>
        <pt x="380" y="0" on="1"/>
        <pt x="354" y="64" on="1"/>
        <pt x="333" y="28" on="0"/>
        <pt x="265" y="-15" on="0"/>
        <pt x="224" y="-15" on="1"/>
        <pt x="80" y="-15" on="0"/>
        <pt x="80" y="125" on="1"/>
        <pt x="80" y="225" on="1"/>
        <pt x="80" y="365" on="0"/>
        <pt x="224" y="365" on="1"/>
        <pt x="340" y="365" on="1"/>
        <pt x="340" y="529" on="1"/>
        <pt x="340" y="565" on="0"/>
        <pt x="294" y="605" on="0"/>
        <pt x="249" y="605" on="1"/>
        <pt x="160" y="605" on="0"/>
        <pt x="160" y="529" on="1"/>
        <pt x="160" y="470" on="1"/>
        <pt x="90" y="470" on="1"/>
        <pt x="90" y="525" on="1"/>
        <pt x="90" y="592" on="0"/>
        <pt x="169" y="665" on="0"/>
        <pt x="329" y="665" on="0"/>
        <pt x="410" y="592" on="0"/>
        <pt x="410" y="525" on="1"/>
      </contour>
      <contour>
        <pt x="340" y="305" on="1"/>
        <pt x="224" y="305" on="1"/>
        <pt x="182" y="305" on="0"/>
        <pt x="150" y="263" on="0"/>
        <pt x="150" y="225" on="1"/>
        <pt x="150" y="125" on="1"/>
        <pt x="150" y="87" on="0"/>
        <pt x="182" y="45" on="0"/>
        <pt x="266" y="45" on="0"/>
        <pt x="338" y="110" on="0"/>
        <pt x="340" y="142" on="1"/>
      </contour>
    </TTGlyph>
    <TTGlyph name="aacute" xMin="80" yMin="-15" xMax="410" yMax="847">
      <contour>
        <pt x="410" y="0" on="1"/>
        <pt x="380" y="0" on="1"/>
        <pt x="354" y="64" on="1"/>
        <pt x="333" y="28" on="0"/>
        <pt x="265" y="-15" on="0"/>
        <pt x="224" y="-15" on="1"/>
        <pt x="80" y="-15" on="0"/>
        <pt x="80" y="125" on="1"/>
        <pt x="80" y="225" on="1"/>
        <pt x="80" y="365" on="0"/>
        <pt x="224" y="365" on="1"/>
        <pt x="340" y="365" on="1"/>
        <pt x="340" y="529" on="1"/>
        <pt x="340" y="565" on="0"/>
        <pt x="294" y="605" on="0"/>
        <pt x="249" y="605" on="1"/>
        <pt x="160" y="605" on="0"/>
        <pt x="160" y="529" on="1"/>
        <pt x="160" y="470" on="1"/>
        <pt x="90" y="470" on="1"/>
        <pt x="90" y="525" on="1"/>
        <pt x="90" y="592" on="0"/>
        <pt x="169" y="665" on="0"/>
        <pt x="329" y="665" on="0"/>
        <pt x="410" y="592" on="0"/>
        <pt x="410" y="525" on="1"/>
      </contour>
      <contour>
        <pt x="340" y="305" on="1"/>
        <pt x="224" y="305" on="1"/>
        <pt x="182" y="305" on="0"/>
        <pt x="150" y="263" on="0"/>
        <pt x="150" y="225" on="1"/>
        <pt x="150" y="125" on="1"/>
        <pt x="150" y="87" on="0"/>
        <pt x="182" y="45" on="0"/>
        <pt x="266" y="45" on="0"/>
        <pt x="338" y="110" on="0"/>
        <pt x="340" y="142" on="1"/>
      </contour>
      <contour>
        <pt x="369" y="793" on="1"/>
        <pt x="331" y="755" on="1"/>
        <pt x="218" y="698" on="1"/>
        <pt x="192" y="724" on="1"/>
        <pt x="315" y="847" on="1"/>
      </contour>
    </TTGlyph>
    <TTGlyph name="abreve" xMin="80" yMin="-15" xMax="410" yMax="816">
      <contour>
        <pt x="410" y="0" on="1"/>
        <pt x="380" y="0" on="1"/>
        <pt x="354" y="64" on="1"/>
        <pt x="333" y="28" on="0"/>
        <pt x="265" y="-15" on="0"/>
        <pt x="224" y="-15" on="1"/>
        <pt x="80" y="-15" on="0"/>
        <pt x="80" y="125" on="1"/>
        <pt x="80" y="225" on="1"/>
        <pt x="80" y="365" on="0"/>
        <pt x="224" y="365" on="1"/>
        <pt x="340" y="365" on="1"/>
        <pt x="340" y="529" on="1"/>
        <pt x="340" y="565" on="0"/>
        <pt x="294" y="605" on="0"/>
        <pt x="249" y="605" on="1"/>
        <pt x="160" y="605" on="0"/>
        <pt x="160" y="529" on="1"/>
        <pt x="160" y="470" on="1"/>
        <pt x="90" y="470" on="1"/>
        <pt x="90" y="525" on="1"/>
        <pt x="90" y="592" on="0"/>
        <pt x="169" y="665" on="0"/>
        <pt x="329" y="665" on="0"/>
        <pt x="410" y="592" on="0"/>
        <pt x="410" y="525" on="1"/>
      </contour>
      <contour>
        <pt x="340" y="305" on="1"/>
        <pt x="224" y="305" on="1"/>
        <pt x="182" y="305" on="0"/>
        <pt x="150" y="263" on="0"/>
        <pt x="150" y="225" on="1"/>
        <pt x="150" y="125" on="1"/>
        <pt x="150" y="87" on="0"/>
        <pt x="182" y="45" on="0"/>
        <pt x="266" y="45" on="0"/>
        <pt x="338" y="110" on="0"/>
        <pt x="340" y="142" on="1"/>
      </contour>
      <contour>
        <pt x="207" y="816" on="1"/>
        <pt x="207" y="796" on="1"/>
        <pt x="207" y="765" on="0"/>
        <pt x="293" y="765" on="0"/>
        <pt x="293" y="796" on="1"/>
        <pt x="293" y="816" on="1"/>
        <pt x="348" y="816" on="1"/>
        <pt x="348" y="790" on="1"/>
        <pt x="348" y="715" on="0"/>
        <pt x="152" y="715" on="0"/>
        <pt x="152" y="790" on="1"/>
        <pt x="152" y="816" on="1"/>
      </contour>
    </TTGlyph>
    <TTGlyph name="acircumflex" xMin="80" yMin="-15" xMax="410" yMax="837">
      <contour>
        <pt x="410" y="0" on="1"/>
        <pt x="380" y="0" on="1"/>
        <pt x="354" y="64" on="1"/>
        <pt x="333" y="28" on="0"/>
        <pt x="265" y="-15" on="0"/>
        <pt x="224" y="-15" on="1"/>
        <pt x="80" y="-15" on="0"/>
        <pt x="80" y="125" on="1"/>
        <pt x="80" y="225" on="1"/>
        <pt x="80" y="365" on="0"/>
        <pt x="224" y="365" on="1"/>
        <pt x="340" y="365" on="1"/>
        <pt x="340" y="529" on="1"/>
        <pt x="340" y="565" on="0"/>
        <pt x="294" y="605" on="0"/>
        <pt x="249" y="605" on="1"/>
        <pt x="160" y="605" on="0"/>
        <pt x="160" y="529" on="1"/>
        <pt x="160" y="470" on="1"/>
        <pt x="90" y="470" on="1"/>
        <pt x="90" y="525" on="1"/>
        <pt x="90" y="592" on="0"/>
        <pt x="169" y="665" on="0"/>
        <pt x="329" y="665" on="0"/>
        <pt x="410" y="592" on="0"/>
        <pt x="410" y="525" on="1"/>
      </contour>
      <contour>
        <pt x="340" y="305" on="1"/>
        <pt x="224" y="305" on="1"/>
        <pt x="182" y="305" on="0"/>
        <pt x="150" y="263" on="0"/>
        <pt x="150" y="225" on="1"/>
        <pt x="150" y="125" on="1"/>
        <pt x="150" y="87" on="0"/>
        <pt x="182" y="45" on="0"/>
        <pt x="266" y="45" on="0"/>
        <pt x="338" y="110" on="0"/>
        <pt x="340" y="142" on="1"/>
      </contour>
      <contour>
        <pt x="250" y="760" on="1"/>
        <pt x="162" y="698" on="1"/>
        <pt x="136" y="724" on="1"/>
        <pt x="234" y="837" on="1"/>
        <pt x="266" y="837" on="1"/>
        <pt x="364" y="724" on="1"/>
        <pt x="338" y="698" on="1"/>
      </contour>
    </TTGlyph>
    <TTGlyph name="acute" xMin="100" yMin="698" xMax="277" yMax="847">
      <contour>
        <pt x="277" y="793" on="1"/>
        <pt x="239" y="755" on="1"/>
        <pt x="126" y="698" on="1"/>
        <pt x="100" y="724" on="1"/>
        <pt x="223" y="847" on="1"/>
      </contour>
    </TTGlyph>
    <TTGlyph name="acute.case" xMin="100" yMin="698" xMax="277" yMax="847">
      <contour>
        <pt x="277" y="793" on="1"/>
        <pt x="239" y="755" on="1"/>
        <pt x="126" y="698" on="1"/>
        <pt x="100" y="724" on="1"/>
        <pt x="223" y="847" on="1"/>
      </contour>
    </TTGlyph>
    <TTGlyph name="adieresis" xMin="80" yMin="-15" xMax="410" yMax="825">
      <contour>
        <pt x="410" y="0" on="1"/>
        <pt x="380" y="0" on="1"/>
        <pt x="354" y="64" on="1"/>
        <pt x="333" y="28" on="0"/>
        <pt x="265" y="-15" on="0"/>
        <pt x="224" y="-15" on="1"/>
        <pt x="80" y="-15" on="0"/>
        <pt x="80" y="125" on="1"/>
        <pt x="80" y="225" on="1"/>
        <pt x="80" y="365" on="0"/>
        <pt x="224" y="365" on="1"/>
        <pt x="340" y="365" on="1"/>
        <pt x="340" y="529" on="1"/>
        <pt x="340" y="565" on="0"/>
        <pt x="294" y="605" on="0"/>
        <pt x="249" y="605" on="1"/>
        <pt x="160" y="605" on="0"/>
        <pt x="160" y="529" on="1"/>
        <pt x="160" y="470" on="1"/>
        <pt x="90" y="470" on="1"/>
        <pt x="90" y="525" on="1"/>
        <pt x="90" y="592" on="0"/>
        <pt x="169" y="665" on="0"/>
        <pt x="329" y="665" on="0"/>
        <pt x="410" y="592" on="0"/>
        <pt x="410" y="525" on="1"/>
      </contour>
      <contour>
        <pt x="340" y="305" on="1"/>
        <pt x="224" y="305" on="1"/>
        <pt x="182" y="305" on="0"/>
        <pt x="150" y="263" on="0"/>
        <pt x="150" y="225" on="1"/>
        <pt x="150" y="125" on="1"/>
        <pt x="150" y="87" on="0"/>
        <pt x="182" y="45" on="0"/>
        <pt x="266" y="45" on="0"/>
        <pt x="338" y="110" on="0"/>
        <pt x="340" y="142" on="1"/>
      </contour>
      <contour>
        <pt x="215" y="715" on="1"/>
        <pt x="145" y="715" on="1"/>
        <pt x="145" y="825" on="1"/>
        <pt x="215" y="825" on="1"/>
      </contour>
      <contour>
        <pt x="355" y="715" on="1"/>
        <pt x="285" y="715" on="1"/>
        <pt x="285" y="825" on="1"/>
        <pt x="355" y="825" on="1"/>
      </contour>
    </TTGlyph>
    <TTGlyph name="ae" xMin="80" yMin="-15" xMax="670" yMax="665">
      <contour>
        <pt x="600" y="125" on="1"/>
        <pt x="600" y="180" on="1"/>
        <pt x="670" y="180" on="1"/>
        <pt x="670" y="125" on="1"/>
        <pt x="670" y="58" on="0"/>
        <pt x="588" y="-15" on="0"/>
        <pt x="506" y="-15" on="1"/>
        <pt x="387" y="-15" on="0"/>
        <pt x="352" y="61" on="1"/>
        <pt x="305" y="-15" on="0"/>
        <pt x="224" y="-15" on="1"/>
        <pt x="80" y="-15" on="0"/>
        <pt x="80" y="125" on="1"/>
        <pt x="80" y="225" on="1"/>
        <pt x="80" y="365" on="0"/>
        <pt x="224" y="365" on="1"/>
        <pt x="340" y="365" on="1"/>
        <pt x="340" y="531" on="1"/>
        <pt x="340" y="565" on="0"/>
        <pt x="293" y="605" on="0"/>
        <pt x="205" y="605" on="0"/>
        <pt x="160" y="564" on="0"/>
        <pt x="160" y="529" on="1"/>
        <pt x="160" y="470" on="1"/>
        <pt x="90" y="470" on="1"/>
        <pt x="90" y="525" on="1"/>
        <pt x="90" y="592" on="0"/>
        <pt x="170" y="665" on="0"/>
        <pt x="333" y="665" on="0"/>
        <pt x="375" y="623" on="1"/>
        <pt x="417" y="665" on="0"/>
        <pt x="586" y="665" on="0"/>
        <pt x="670" y="592" on="0"/>
        <pt x="670" y="525" on="1"/>
        <pt x="670" y="305" on="1"/>
        <pt x="410" y="305" on="1"/>
        <pt x="410" y="125" on="1"/>
        <pt x="410" y="45" on="0"/>
        <pt x="600" y="45" on="0"/>
      </contour>
      <contour>
        <pt x="340" y="145" on="1"/>
        <pt x="340" y="305" on="1"/>
        <pt x="224" y="305" on="1"/>
        <pt x="182" y="305" on="0"/>
        <pt x="150" y="263" on="0"/>
        <pt x="150" y="225" on="1"/>
        <pt x="150" y="125" on="1"/>
        <pt x="150" y="87" on="0"/>
        <pt x="182" y="45" on="0"/>
        <pt x="267" y="45" on="0"/>
        <pt x="340" y="113" on="0"/>
      </contour>
      <contour>
        <pt x="410" y="531" on="1"/>
        <pt x="410" y="365" on="1"/>
        <pt x="600" y="365" on="1"/>
        <pt x="600" y="525" on="1"/>
        <pt x="600" y="605" on="0"/>
        <pt x="504" y="605" on="1"/>
        <pt x="459" y="605" on="0"/>
        <pt x="410" y="566" on="0"/>
      </contour>
    </TTGlyph>
    <TTGlyph name="aeacute" xMin="80" yMin="-15" xMax="670" yMax="847">
      <contour>
        <pt x="491" y="793" on="1"/>
        <pt x="453" y="755" on="1"/>
        <pt x="340" y="698" on="1"/>
        <pt x="314" y="724" on="1"/>
        <pt x="437" y="847" on="1"/>
      </contour>
      <contour>
        <pt x="600" y="125" on="1"/>
        <pt x="600" y="180" on="1"/>
        <pt x="670" y="180" on="1"/>
        <pt x="670" y="125" on="1"/>
        <pt x="670" y="58" on="0"/>
        <pt x="588" y="-15" on="0"/>
        <pt x="506" y="-15" on="1"/>
        <pt x="387" y="-15" on="0"/>
        <pt x="352" y="61" on="1"/>
        <pt x="305" y="-15" on="0"/>
        <pt x="224" y="-15" on="1"/>
        <pt x="80" y="-15" on="0"/>
        <pt x="80" y="125" on="1"/>
        <pt x="80" y="225" on="1"/>
        <pt x="80" y="365" on="0"/>
        <pt x="224" y="365" on="1"/>
        <pt x="340" y="365" on="1"/>
        <pt x="340" y="531" on="1"/>
        <pt x="340" y="565" on="0"/>
        <pt x="293" y="605" on="0"/>
        <pt x="205" y="605" on="0"/>
        <pt x="160" y="564" on="0"/>
        <pt x="160" y="529" on="1"/>
        <pt x="160" y="470" on="1"/>
        <pt x="90" y="470" on="1"/>
        <pt x="90" y="525" on="1"/>
        <pt x="90" y="592" on="0"/>
        <pt x="170" y="665" on="0"/>
        <pt x="333" y="665" on="0"/>
        <pt x="375" y="623" on="1"/>
        <pt x="417" y="665" on="0"/>
        <pt x="586" y="665" on="0"/>
        <pt x="670" y="592" on="0"/>
        <pt x="670" y="525" on="1"/>
        <pt x="670" y="305" on="1"/>
        <pt x="410" y="305" on="1"/>
        <pt x="410" y="125" on="1"/>
        <pt x="410" y="45" on="0"/>
        <pt x="600" y="45" on="0"/>
      </contour>
      <contour>
        <pt x="340" y="145" on="1"/>
        <pt x="340" y="305" on="1"/>
        <pt x="224" y="305" on="1"/>
        <pt x="182" y="305" on="0"/>
        <pt x="150" y="263" on="0"/>
        <pt x="150" y="225" on="1"/>
        <pt x="150" y="125" on="1"/>
        <pt x="150" y="87" on="0"/>
        <pt x="182" y="45" on="0"/>
        <pt x="267" y="45" on="0"/>
        <pt x="340" y="113" on="0"/>
      </contour>
      <contour>
        <pt x="410" y="531" on="1"/>
        <pt x="410" y="365" on="1"/>
        <pt x="600" y="365" on="1"/>
        <pt x="600" y="525" on="1"/>
        <pt x="600" y="605" on="0"/>
        <pt x="504" y="605" on="1"/>
        <pt x="459" y="605" on="0"/>
        <pt x="410" y="566" on="0"/>
      </contour>
    </TTGlyph>
    <TTGlyph name="agrave" xMin="80" yMin="-15" xMax="410" yMax="847">
      <contour>
        <pt x="410" y="0" on="1"/>
        <pt x="380" y="0" on="1"/>
        <pt x="354" y="64" on="1"/>
        <pt x="333" y="28" on="0"/>
        <pt x="265" y="-15" on="0"/>
        <pt x="224" y="-15" on="1"/>
        <pt x="80" y="-15" on="0"/>
        <pt x="80" y="125" on="1"/>
        <pt x="80" y="225" on="1"/>
        <pt x="80" y="365" on="0"/>
        <pt x="224" y="365" on="1"/>
        <pt x="340" y="365" on="1"/>
        <pt x="340" y="529" on="1"/>
        <pt x="340" y="565" on="0"/>
        <pt x="294" y="605" on="0"/>
        <pt x="249" y="605" on="1"/>
        <pt x="160" y="605" on="0"/>
        <pt x="160" y="529" on="1"/>
        <pt x="160" y="470" on="1"/>
        <pt x="90" y="470" on="1"/>
        <pt x="90" y="525" on="1"/>
        <pt x="90" y="592" on="0"/>
        <pt x="169" y="665" on="0"/>
        <pt x="329" y="665" on="0"/>
        <pt x="410" y="592" on="0"/>
        <pt x="410" y="525" on="1"/>
      </contour>
      <contour>
        <pt x="340" y="305" on="1"/>
        <pt x="224" y="305" on="1"/>
        <pt x="182" y="305" on="0"/>
        <pt x="150" y="263" on="0"/>
        <pt x="150" y="225" on="1"/>
        <pt x="150" y="125" on="1"/>
        <pt x="150" y="87" on="0"/>
        <pt x="182" y="45" on="0"/>
        <pt x="266" y="45" on="0"/>
        <pt x="338" y="110" on="0"/>
        <pt x="340" y="142" on="1"/>
      </contour>
      <contour>
        <pt x="189" y="755" on="1"/>
        <pt x="151" y="793" on="1"/>
        <pt x="205" y="847" on="1"/>
        <pt x="328" y="724" on="1"/>
        <pt x="302" y="698" on="1"/>
      </contour>
    </TTGlyph>
    <TTGlyph name="amacron" xMin="80" yMin="-15" xMax="410" yMax="800">
      <contour>
        <pt x="410" y="0" on="1"/>
        <pt x="380" y="0" on="1"/>
        <pt x="354" y="64" on="1"/>
        <pt x="333" y="28" on="0"/>
        <pt x="265" y="-15" on="0"/>
        <pt x="224" y="-15" on="1"/>
        <pt x="80" y="-15" on="0"/>
        <pt x="80" y="125" on="1"/>
        <pt x="80" y="225" on="1"/>
        <pt x="80" y="365" on="0"/>
        <pt x="224" y="365" on="1"/>
        <pt x="340" y="365" on="1"/>
        <pt x="340" y="529" on="1"/>
        <pt x="340" y="565" on="0"/>
        <pt x="294" y="605" on="0"/>
        <pt x="249" y="605" on="1"/>
        <pt x="160" y="605" on="0"/>
        <pt x="160" y="529" on="1"/>
        <pt x="160" y="470" on="1"/>
        <pt x="90" y="470" on="1"/>
        <pt x="90" y="525" on="1"/>
        <pt x="90" y="592" on="0"/>
        <pt x="169" y="665" on="0"/>
        <pt x="329" y="665" on="0"/>
        <pt x="410" y="592" on="0"/>
        <pt x="410" y="525" on="1"/>
      </contour>
      <contour>
        <pt x="340" y="305" on="1"/>
        <pt x="224" y="305" on="1"/>
        <pt x="182" y="305" on="0"/>
        <pt x="150" y="263" on="0"/>
        <pt x="150" y="225" on="1"/>
        <pt x="150" y="125" on="1"/>
        <pt x="150" y="87" on="0"/>
        <pt x="182" y="45" on="0"/>
        <pt x="266" y="45" on="0"/>
        <pt x="338" y="110" on="0"/>
        <pt x="340" y="142" on="1"/>
      </contour>
      <contour>
        <pt x="142" y="740" on="1"/>
        <pt x="142" y="800" on="1"/>
        <pt x="358" y="800" on="1"/>
        <pt x="358" y="740" on="1"/>
      </contour>
    </TTGlyph>
    <TTGlyph name="ampersand" xMin="70" yMin="-15" xMax="489" yMax="665">
      <contour>
        <pt x="70" y="125" on="1"/>
        <pt x="70" y="215" on="1"/>
        <pt x="70" y="322" on="0"/>
        <pt x="142" y="349" on="1"/>
        <pt x="90" y="430" on="0"/>
        <pt x="90" y="475" on="1"/>
        <pt x="90" y="525" on="1"/>
        <pt x="90" y="592" on="0"/>
        <pt x="173" y="665" on="0"/>
        <pt x="257" y="665" on="1"/>
        <pt x="418" y="665" on="0"/>
        <pt x="418" y="525" on="1"/>
        <pt x="418" y="440" on="1"/>
        <pt x="348" y="440" on="1"/>
        <pt x="348" y="529" on="1"/>
        <pt x="348" y="565" on="0"/>
        <pt x="301" y="605" on="0"/>
        <pt x="207" y="605" on="0"/>
        <pt x="160" y="565" on="0"/>
        <pt x="160" y="529" on="1"/>
        <pt x="160" y="475" on="1"/>
        <pt x="160" y="439" on="0"/>
        <pt x="215" y="360" on="1"/>
        <pt x="489" y="360" on="1"/>
        <pt x="489" y="300" on="1"/>
        <pt x="408" y="300" on="1"/>
        <pt x="408" y="125" on="1"/>
        <pt x="408" y="-15" on="0"/>
        <pt x="70" y="-15" on="0"/>
      </contour>
      <contour>
        <pt x="338" y="121" on="1"/>
        <pt x="338" y="300" on="1"/>
        <pt x="209" y="300" on="1"/>
        <pt x="140" y="300" on="0"/>
        <pt x="140" y="215" on="1"/>
        <pt x="140" y="121" on="1"/>
        <pt x="140" y="85" on="0"/>
        <pt x="190" y="45" on="0"/>
        <pt x="288" y="45" on="0"/>
        <pt x="338" y="85" on="0"/>
      </contour>
    </TTGlyph>
    <TTGlyph name="aogonek" xMin="80" yMin="-240" xMax="429" yMax="665">
      <contour>
        <pt x="298" y="-124" on="1"/>
        <pt x="298" y="-166" on="1"/>
        <pt x="298" y="-197" on="0"/>
        <pt x="381" y="-197" on="0"/>
        <pt x="381" y="-166" on="1"/>
        <pt x="381" y="-136" on="1"/>
        <pt x="429" y="-136" on="1"/>
        <pt x="429" y="-164" on="1"/>
        <pt x="429" y="-240" on="0"/>
        <pt x="250" y="-240" on="0"/>
        <pt x="250" y="-164" on="1"/>
        <pt x="250" y="-124" on="1"/>
        <pt x="250" y="-75" on="0"/>
        <pt x="291" y="-41" on="1"/>
        <pt x="370" y="25" on="1"/>
        <pt x="354" y="64" on="1"/>
        <pt x="333" y="28" on="0"/>
        <pt x="265" y="-15" on="0"/>
        <pt x="224" y="-15" on="1"/>
        <pt x="80" y="-15" on="0"/>
        <pt x="80" y="125" on="1"/>
        <pt x="80" y="225" on="1"/>
        <pt x="80" y="365" on="0"/>
        <pt x="224" y="365" on="1"/>
        <pt x="340" y="365" on="1"/>
        <pt x="340" y="529" on="1"/>
        <pt x="340" y="565" on="0"/>
        <pt x="294" y="605" on="0"/>
        <pt x="249" y="605" on="1"/>
        <pt x="160" y="605" on="0"/>
        <pt x="160" y="529" on="1"/>
        <pt x="160" y="470" on="1"/>
        <pt x="90" y="470" on="1"/>
        <pt x="90" y="525" on="1"/>
        <pt x="90" y="592" on="0"/>
        <pt x="169" y="665" on="0"/>
        <pt x="329" y="665" on="0"/>
        <pt x="410" y="592" on="0"/>
        <pt x="410" y="525" on="1"/>
        <pt x="410" y="0" on="1"/>
        <pt x="347" y="-51" on="1"/>
        <pt x="298" y="-91" on="0"/>
      </contour>
      <contour>
        <pt x="340" y="305" on="1"/>
        <pt x="224" y="305" on="1"/>
        <pt x="182" y="305" on="0"/>
        <pt x="150" y="263" on="0"/>
        <pt x="150" y="225" on="1"/>
        <pt x="150" y="125" on="1"/>
        <pt x="150" y="87" on="0"/>
        <pt x="182" y="45" on="0"/>
        <pt x="266" y="45" on="0"/>
        <pt x="338" y="110" on="0"/>
        <pt x="340" y="142" on="1"/>
      </contour>
    </TTGlyph>
    <TTGlyph name="apple" xMin="120" yMin="-114" xMax="843" yMax="608">
      <contour>
        <pt x="609" y="-89" on="1"/>
        <pt x="586" y="-88" on="1"/>
        <pt x="572" y="-88" on="0"/>
        <pt x="537" y="-112" on="0"/>
        <pt x="528" y="-112" on="1"/>
        <pt x="482" y="-102" on="1"/>
        <pt x="474" y="-102" on="0"/>
        <pt x="443" y="-114" on="0"/>
        <pt x="426" y="-114" on="0"/>
        <pt x="394" y="-89" on="0"/>
        <pt x="381" y="-89" on="1"/>
        <pt x="357" y="-91" on="1"/>
        <pt x="342" y="-91" on="0"/>
        <pt x="324" y="-74" on="1"/>
        <pt x="306" y="-55" on="1"/>
        <pt x="294" y="-49" on="0"/>
        <pt x="268" y="-47" on="0"/>
        <pt x="250" y="-36" on="0"/>
        <pt x="236" y="-1" on="0"/>
        <pt x="225" y="8" on="0"/>
        <pt x="197" y="19" on="0"/>
        <pt x="191" y="28" on="1"/>
        <pt x="186" y="37" on="0"/>
        <pt x="182" y="66" on="0"/>
        <pt x="174" y="79" on="0"/>
        <pt x="164" y="86" on="1"/>
        <pt x="142" y="104" on="0"/>
        <pt x="142" y="124" on="1"/>
        <pt x="145" y="149" on="1"/>
        <pt x="145" y="158" on="0"/>
        <pt x="120" y="193" on="0"/>
        <pt x="120" y="211" on="0"/>
        <pt x="132" y="240" on="0"/>
        <pt x="132" y="257" on="0"/>
        <pt x="120" y="283" on="0"/>
        <pt x="120" y="301" on="0"/>
        <pt x="145" y="342" on="0"/>
        <pt x="145" y="351" on="1"/>
        <pt x="144" y="376" on="1"/>
        <pt x="144" y="391" on="0"/>
        <pt x="177" y="420" on="0"/>
        <pt x="182" y="430" on="0"/>
        <pt x="186" y="462" on="0"/>
        <pt x="194" y="474" on="0"/>
        <pt x="225" y="486" on="0"/>
        <pt x="235" y="496" on="0"/>
        <pt x="249" y="527" on="0"/>
        <pt x="262" y="538" on="0"/>
        <pt x="300" y="546" on="0"/>
        <pt x="311" y="552" on="0"/>
        <pt x="341" y="586" on="0"/>
        <pt x="355" y="587" on="1"/>
        <pt x="381" y="585" on="1"/>
        <pt x="394" y="585" on="0"/>
        <pt x="425" y="608" on="0"/>
        <pt x="436" y="608" on="1"/>
        <pt x="480" y="596" on="1"/>
        <pt x="525" y="608" on="1"/>
        <pt x="538" y="608" on="0"/>
        <pt x="570" y="583" on="0"/>
        <pt x="582" y="583" on="1"/>
        <pt x="610" y="586" on="1"/>
        <pt x="626" y="586" on="0"/>
        <pt x="652" y="553" on="0"/>
        <pt x="665" y="546" on="0"/>
        <pt x="695" y="540" on="0"/>
        <pt x="710" y="530" on="0"/>
        <pt x="720" y="502" on="0"/>
        <pt x="731" y="492" on="0"/>
        <pt x="771" y="471" on="0"/>
        <pt x="780" y="455" on="0"/>
        <pt x="781" y="423" on="0"/>
        <pt x="786" y="414" on="0"/>
        <pt x="820" y="385" on="0"/>
        <pt x="820" y="369" on="1"/>
        <pt x="819" y="344" on="1"/>
        <pt x="819" y="331" on="0"/>
        <pt x="843" y="294" on="0"/>
        <pt x="843" y="276" on="0"/>
        <pt x="832" y="250" on="0"/>
        <pt x="832" y="236" on="0"/>
        <pt x="843" y="207" on="0"/>
        <pt x="842" y="191" on="0"/>
        <pt x="818" y="166" on="0"/>
        <pt x="818" y="152" on="1"/>
        <pt x="820" y="120" on="1"/>
        <pt x="820" y="104" on="0"/>
        <pt x="788" y="78" on="0"/>
        <pt x="783" y="68" on="0"/>
        <pt x="774" y="30" on="0"/>
        <pt x="763" y="17" on="0"/>
        <pt x="738" y="6" on="0"/>
        <pt x="728" y="-4" on="0"/>
        <pt x="710" y="-37" on="0"/>
        <pt x="696" y="-47" on="0"/>
        <pt x="661" y="-56" on="0"/>
        <pt x="651" y="-62" on="0"/>
        <pt x="624" y="-89" on="0"/>
      </contour>
      <contour>
        <pt x="482" y="-6" on="1"/>
        <pt x="515" y="-13" on="1"/>
        <pt x="521" y="-13" on="0"/>
        <pt x="532" y="-6" on="1"/>
        <pt x="547" y="4" on="0"/>
        <pt x="559" y="4" on="1"/>
        <pt x="574" y="3" on="1"/>
        <pt x="586" y="3" on="0"/>
        <pt x="604" y="23" on="0"/>
        <pt x="611" y="27" on="0"/>
        <pt x="637" y="34" on="0"/>
        <pt x="648" y="42" on="0"/>
        <pt x="661" y="65" on="0"/>
        <pt x="668" y="72" on="0"/>
        <pt x="686" y="80" on="0"/>
        <pt x="694" y="89" on="0"/>
        <pt x="700" y="117" on="0"/>
        <pt x="705" y="125" on="0"/>
        <pt x="727" y="143" on="0"/>
        <pt x="727" y="157" on="1"/>
        <pt x="726" y="177" on="1"/>
        <pt x="726" y="188" on="0"/>
        <pt x="743" y="207" on="0"/>
        <pt x="744" y="213" on="1"/>
        <pt x="736" y="245" on="1"/>
        <pt x="744" y="273" on="1"/>
        <pt x="744" y="281" on="0"/>
        <pt x="726" y="309" on="0"/>
        <pt x="726" y="318" on="1"/>
        <pt x="727" y="335" on="1"/>
        <pt x="727" y="347" on="0"/>
        <pt x="703" y="367" on="0"/>
        <pt x="699" y="375" on="0"/>
        <pt x="698" y="398" on="0"/>
        <pt x="692" y="409" on="0"/>
        <pt x="663" y="424" on="0"/>
        <pt x="655" y="432" on="0"/>
        <pt x="647" y="452" on="0"/>
        <pt x="637" y="460" on="0"/>
        <pt x="615" y="464" on="0"/>
        <pt x="605" y="469" on="0"/>
        <pt x="587" y="493" on="0"/>
        <pt x="575" y="493" on="1"/>
        <pt x="555" y="491" on="1"/>
        <pt x="546" y="491" on="0"/>
        <pt x="524" y="509" on="0"/>
        <pt x="514" y="509" on="1"/>
        <pt x="481" y="500" on="1"/>
        <pt x="449" y="509" on="1"/>
        <pt x="441" y="509" on="0"/>
        <pt x="417" y="492" on="0"/>
        <pt x="407" y="492" on="1"/>
        <pt x="390" y="493" on="1"/>
        <pt x="379" y="493" on="0"/>
        <pt x="358" y="468" on="0"/>
        <pt x="349" y="463" on="0"/>
        <pt x="323" y="458" on="0"/>
        <pt x="313" y="450" on="0"/>
        <pt x="303" y="428" on="0"/>
        <pt x="295" y="420" on="0"/>
        <pt x="274" y="412" on="0"/>
        <pt x="270" y="407" on="1"/>
        <pt x="268" y="403" on="0"/>
        <pt x="264" y="380" on="0"/>
        <pt x="260" y="372" on="0"/>
        <pt x="236" y="351" on="0"/>
        <pt x="236" y="340" on="1"/>
        <pt x="237" y="324" on="1"/>
        <pt x="237" y="316" on="0"/>
        <pt x="220" y="286" on="0"/>
        <pt x="220" y="278" on="1"/>
        <pt x="228" y="248" on="1"/>
        <pt x="220" y="215" on="1"/>
        <pt x="220" y="207" on="0"/>
        <pt x="237" y="182" on="0"/>
        <pt x="237" y="174" on="1"/>
        <pt x="235" y="158" on="1"/>
        <pt x="235" y="147" on="0"/>
        <pt x="260" y="124" on="0"/>
        <pt x="264" y="116" on="0"/>
        <pt x="267" y="95" on="0"/>
        <pt x="275" y="82" on="0"/>
        <pt x="295" y="74" on="0"/>
        <pt x="303" y="67" on="0"/>
        <pt x="314" y="41" on="0"/>
        <pt x="326" y="33" on="0"/>
        <pt x="345" y="33" on="0"/>
        <pt x="357" y="27" on="0"/>
        <pt x="380" y="2" on="0"/>
        <pt x="391" y="2" on="1"/>
        <pt x="406" y="3" on="1"/>
        <pt x="416" y="3" on="0"/>
        <pt x="440" y="-14" on="0"/>
        <pt x="446" y="-15" on="1"/>
      </contour>
      <contour>
        <pt x="412" y="417" on="0"/>
        <pt x="552" y="417" on="0"/>
        <pt x="652" y="318" on="0"/>
        <pt x="652" y="176" on="0"/>
        <pt x="552" y="77" on="0"/>
        <pt x="412" y="77" on="0"/>
        <pt x="312" y="176" on="0"/>
        <pt x="312" y="318" on="0"/>
      </contour>
      <contour>
        <pt x="525" y="292" on="1"/>
        <pt x="577" y="292" on="1"/>
        <pt x="577" y="360" on="1"/>
        <pt x="386" y="360" on="1"/>
        <pt x="386" y="292" on="1"/>
        <pt x="440" y="292" on="1"/>
        <pt x="440" y="117" on="1"/>
        <pt x="525" y="117" on="1"/>
      </contour>
    </TTGlyph>
    <TTGlyph name="approxequal" xMin="95" yMin="189" xMax="415" yMax="458">
      <contour>
        <pt x="415" y="375" on="1"/>
        <pt x="381" y="398" on="0"/>
        <pt x="313" y="398" on="0"/>
        <pt x="200" y="349" on="0"/>
        <pt x="125" y="349" on="0"/>
        <pt x="95" y="375" on="1"/>
        <pt x="95" y="435" on="1"/>
        <pt x="126" y="409" on="0"/>
        <pt x="192" y="409" on="0"/>
        <pt x="305" y="458" on="0"/>
        <pt x="378" y="458" on="0"/>
        <pt x="415" y="435" on="1"/>
      </contour>
      <contour>
        <pt x="415" y="215" on="1"/>
        <pt x="381" y="238" on="0"/>
        <pt x="313" y="238" on="0"/>
        <pt x="200" y="189" on="0"/>
        <pt x="125" y="189" on="0"/>
        <pt x="95" y="215" on="1"/>
        <pt x="95" y="275" on="1"/>
        <pt x="126" y="249" on="0"/>
        <pt x="192" y="249" on="0"/>
        <pt x="305" y="298" on="0"/>
        <pt x="378" y="298" on="0"/>
        <pt x="415" y="275" on="1"/>
      </contour>
    </TTGlyph>
    <TTGlyph name="aring" xMin="80" yMin="-15" xMax="410" yMax="855">
      <contour>
        <pt x="410" y="0" on="1"/>
        <pt x="380" y="0" on="1"/>
        <pt x="354" y="64" on="1"/>
        <pt x="333" y="28" on="0"/>
        <pt x="265" y="-15" on="0"/>
        <pt x="224" y="-15" on="1"/>
        <pt x="80" y="-15" on="0"/>
        <pt x="80" y="125" on="1"/>
        <pt x="80" y="225" on="1"/>
        <pt x="80" y="365" on="0"/>
        <pt x="224" y="365" on="1"/>
        <pt x="340" y="365" on="1"/>
        <pt x="340" y="529" on="1"/>
        <pt x="340" y="565" on="0"/>
        <pt x="294" y="605" on="0"/>
        <pt x="249" y="605" on="1"/>
        <pt x="160" y="605" on="0"/>
        <pt x="160" y="529" on="1"/>
        <pt x="160" y="470" on="1"/>
        <pt x="90" y="470" on="1"/>
        <pt x="90" y="525" on="1"/>
        <pt x="90" y="592" on="0"/>
        <pt x="169" y="665" on="0"/>
        <pt x="329" y="665" on="0"/>
        <pt x="410" y="592" on="0"/>
        <pt x="410" y="525" on="1"/>
      </contour>
      <contour>
        <pt x="340" y="305" on="1"/>
        <pt x="224" y="305" on="1"/>
        <pt x="182" y="305" on="0"/>
        <pt x="150" y="263" on="0"/>
        <pt x="150" y="225" on="1"/>
        <pt x="150" y="125" on="1"/>
        <pt x="150" y="87" on="0"/>
        <pt x="182" y="45" on="0"/>
        <pt x="266" y="45" on="0"/>
        <pt x="338" y="110" on="0"/>
        <pt x="340" y="142" on="1"/>
      </contour>
      <contour>
        <pt x="335" y="780" on="1"/>
        <pt x="335" y="760" on="1"/>
        <pt x="335" y="685" on="0"/>
        <pt x="165" y="685" on="0"/>
        <pt x="165" y="760" on="1"/>
        <pt x="165" y="780" on="1"/>
        <pt x="165" y="855" on="0"/>
        <pt x="335" y="855" on="0"/>
      </contour>
      <contour>
        <pt x="215" y="780" on="1"/>
        <pt x="215" y="760" on="1"/>
        <pt x="215" y="729" on="0"/>
        <pt x="285" y="729" on="0"/>
        <pt x="285" y="760" on="1"/>
        <pt x="285" y="780" on="1"/>
        <pt x="285" y="811" on="0"/>
        <pt x="215" y="811" on="0"/>
      </contour>
    </TTGlyph>
    <TTGlyph name="aringacute" xMin="80" yMin="-15" xMax="419" yMax="917">
      <contour>
        <pt x="410" y="0" on="1"/>
        <pt x="380" y="0" on="1"/>
        <pt x="354" y="64" on="1"/>
        <pt x="333" y="28" on="0"/>
        <pt x="265" y="-15" on="0"/>
        <pt x="224" y="-15" on="1"/>
        <pt x="80" y="-15" on="0"/>
        <pt x="80" y="125" on="1"/>
        <pt x="80" y="225" on="1"/>
        <pt x="80" y="365" on="0"/>
        <pt x="224" y="365" on="1"/>
        <pt x="340" y="365" on="1"/>
        <pt x="340" y="529" on="1"/>
        <pt x="340" y="565" on="0"/>
        <pt x="294" y="605" on="0"/>
        <pt x="249" y="605" on="1"/>
        <pt x="160" y="605" on="0"/>
        <pt x="160" y="529" on="1"/>
        <pt x="160" y="470" on="1"/>
        <pt x="90" y="470" on="1"/>
        <pt x="90" y="525" on="1"/>
        <pt x="90" y="592" on="0"/>
        <pt x="169" y="665" on="0"/>
        <pt x="329" y="665" on="0"/>
        <pt x="410" y="592" on="0"/>
        <pt x="410" y="525" on="1"/>
      </contour>
      <contour>
        <pt x="340" y="305" on="1"/>
        <pt x="224" y="305" on="1"/>
        <pt x="182" y="305" on="0"/>
        <pt x="150" y="263" on="0"/>
        <pt x="150" y="225" on="1"/>
        <pt x="150" y="125" on="1"/>
        <pt x="150" y="87" on="0"/>
        <pt x="182" y="45" on="0"/>
        <pt x="266" y="45" on="0"/>
        <pt x="338" y="110" on="0"/>
        <pt x="340" y="142" on="1"/>
      </contour>
      <contour>
        <pt x="335" y="780" on="1"/>
        <pt x="335" y="760" on="1"/>
        <pt x="335" y="685" on="0"/>
        <pt x="165" y="685" on="0"/>
        <pt x="165" y="760" on="1"/>
        <pt x="165" y="780" on="1"/>
        <pt x="165" y="855" on="0"/>
        <pt x="250" y="855" on="1"/>
        <pt x="276" y="855" on="0"/>
        <pt x="295" y="847" on="1"/>
        <pt x="365" y="917" on="1"/>
        <pt x="419" y="863" on="1"/>
        <pt x="381" y="825" on="1"/>
        <pt x="330" y="810" on="1"/>
        <pt x="335" y="795" on="0"/>
      </contour>
      <contour>
        <pt x="215" y="780" on="1"/>
        <pt x="215" y="760" on="1"/>
        <pt x="215" y="729" on="0"/>
        <pt x="285" y="729" on="0"/>
        <pt x="285" y="760" on="1"/>
        <pt x="285" y="780" on="1"/>
        <pt x="285" y="811" on="0"/>
        <pt x="215" y="811" on="0"/>
      </contour>
    </TTGlyph>
    <TTGlyph name="asciicircum" xMin="100" yMin="395" xMax="410" yMax="650">
      <contour>
        <pt x="233" y="650" on="1"/>
        <pt x="277" y="650" on="1"/>
        <pt x="410" y="422" on="1"/>
        <pt x="357" y="395" on="1"/>
        <pt x="255" y="573" on="1"/>
        <pt x="153" y="395" on="1"/>
        <pt x="100" y="422" on="1"/>
      </contour>
    </TTGlyph>
    <TTGlyph name="asciitilde" xMin="95" yMin="269" xMax="415" yMax="378">
      <contour>
        <pt x="415" y="295" on="1"/>
        <pt x="381" y="318" on="0"/>
        <pt x="313" y="318" on="0"/>
        <pt x="200" y="269" on="0"/>
        <pt x="125" y="269" on="0"/>
        <pt x="95" y="295" on="1"/>
        <pt x="95" y="355" on="1"/>
        <pt x="126" y="329" on="0"/>
        <pt x="192" y="329" on="0"/>
        <pt x="305" y="378" on="0"/>
        <pt x="378" y="378" on="0"/>
        <pt x="415" y="355" on="1"/>
      </contour>
    </TTGlyph>
    <TTGlyph name="asterisk" xMin="55" yMin="424" xMax="327" yMax="680">
      <contour>
        <pt x="166" y="580" on="1"/>
        <pt x="166" y="680" on="1"/>
        <pt x="216" y="680" on="1"/>
        <pt x="216" y="580" on="1"/>
        <pt x="315" y="606" on="1"/>
        <pt x="327" y="560" on="1"/>
        <pt x="228" y="534" on="1"/>
        <pt x="291" y="454" on="1"/>
        <pt x="254" y="424" on="1"/>
        <pt x="191" y="504" on="1"/>
        <pt x="228" y="534" on="1"/>
        <pt x="216" y="580" on="1"/>
      </contour>
      <contour>
        <pt x="154" y="534" on="1"/>
        <pt x="55" y="560" on="1"/>
        <pt x="67" y="606" on="1"/>
        <pt x="166" y="580" on="1"/>
      </contour>
      <contour>
        <pt x="191" y="504" on="1"/>
        <pt x="128" y="424" on="1"/>
        <pt x="91" y="454" on="1"/>
        <pt x="154" y="534" on="1"/>
      </contour>
    </TTGlyph>
    <TTGlyph name="at" xMin="120" yMin="-65" xMax="626" yMax="715">
      <contour>
        <pt x="497" y="489" on="1"/>
        <pt x="497" y="342" on="1"/>
        <pt x="574" y="342" on="1"/>
        <pt x="574" y="507" on="1"/>
        <pt x="574" y="670" on="0"/>
        <pt x="172" y="670" on="0"/>
        <pt x="172" y="507" on="1"/>
        <pt x="172" y="143" on="1"/>
        <pt x="172" y="-20" on="0"/>
        <pt x="574" y="-20" on="0"/>
        <pt x="574" y="143" on="1"/>
        <pt x="574" y="168" on="1"/>
        <pt x="626" y="168" on="1"/>
        <pt x="626" y="143" on="1"/>
        <pt x="626" y="44" on="0"/>
        <pt x="500" y="-65" on="0"/>
        <pt x="248" y="-65" on="0"/>
        <pt x="120" y="44" on="0"/>
        <pt x="120" y="143" on="1"/>
        <pt x="120" y="507" on="1"/>
        <pt x="120" y="606" on="0"/>
        <pt x="246" y="715" on="0"/>
        <pt x="497" y="715" on="0"/>
        <pt x="626" y="606" on="0"/>
        <pt x="626" y="507" on="1"/>
        <pt x="626" y="291" on="1"/>
        <pt x="497" y="291" on="1"/>
        <pt x="497" y="162" on="1"/>
        <pt x="497" y="51" on="0"/>
        <pt x="239" y="51" on="0"/>
        <pt x="239" y="162" on="1"/>
        <pt x="239" y="235" on="1"/>
        <pt x="239" y="287" on="0"/>
        <pt x="293" y="342" on="0"/>
        <pt x="356" y="342" on="1"/>
        <pt x="433" y="342" on="1"/>
        <pt x="433" y="492" on="1"/>
        <pt x="433" y="518" on="0"/>
        <pt x="401" y="548" on="0"/>
        <pt x="371" y="548" on="1"/>
        <pt x="311" y="548" on="0"/>
        <pt x="311" y="492" on="1"/>
        <pt x="311" y="405" on="1"/>
        <pt x="246" y="405" on="1"/>
        <pt x="246" y="489" on="1"/>
        <pt x="246" y="600" on="0"/>
        <pt x="497" y="600" on="0"/>
      </contour>
      <contour>
        <pt x="433" y="159" on="1"/>
        <pt x="433" y="291" on="1"/>
        <pt x="351" y="291" on="1"/>
        <pt x="305" y="291" on="0"/>
        <pt x="305" y="238" on="1"/>
        <pt x="305" y="158" on="1"/>
        <pt x="305" y="103" on="0"/>
        <pt x="433" y="103" on="0"/>
      </contour>
    </TTGlyph>
    <TTGlyph name="atilde" xMin="80" yMin="-15" xMax="410" yMax="819">
      <contour>
        <pt x="410" y="0" on="1"/>
        <pt x="380" y="0" on="1"/>
        <pt x="354" y="64" on="1"/>
        <pt x="333" y="28" on="0"/>
        <pt x="265" y="-15" on="0"/>
        <pt x="224" y="-15" on="1"/>
        <pt x="80" y="-15" on="0"/>
        <pt x="80" y="125" on="1"/>
        <pt x="80" y="225" on="1"/>
        <pt x="80" y="365" on="0"/>
        <pt x="224" y="365" on="1"/>
        <pt x="340" y="365" on="1"/>
        <pt x="340" y="529" on="1"/>
        <pt x="340" y="565" on="0"/>
        <pt x="294" y="605" on="0"/>
        <pt x="249" y="605" on="1"/>
        <pt x="160" y="605" on="0"/>
        <pt x="160" y="529" on="1"/>
        <pt x="160" y="470" on="1"/>
        <pt x="90" y="470" on="1"/>
        <pt x="90" y="525" on="1"/>
        <pt x="90" y="592" on="0"/>
        <pt x="169" y="665" on="0"/>
        <pt x="329" y="665" on="0"/>
        <pt x="410" y="592" on="0"/>
        <pt x="410" y="525" on="1"/>
      </contour>
      <contour>
        <pt x="340" y="305" on="1"/>
        <pt x="224" y="305" on="1"/>
        <pt x="182" y="305" on="0"/>
        <pt x="150" y="263" on="0"/>
        <pt x="150" y="225" on="1"/>
        <pt x="150" y="125" on="1"/>
        <pt x="150" y="87" on="0"/>
        <pt x="182" y="45" on="0"/>
        <pt x="266" y="45" on="0"/>
        <pt x="338" y="110" on="0"/>
        <pt x="340" y="142" on="1"/>
      </contour>
      <contour>
        <pt x="293" y="759" on="1"/>
        <pt x="278" y="759" on="0"/>
        <pt x="222" y="721" on="0"/>
        <pt x="171" y="721" on="0"/>
        <pt x="135" y="761" on="0"/>
        <pt x="132" y="795" on="1"/>
        <pt x="173" y="809" on="1"/>
        <pt x="183" y="781" on="0"/>
        <pt x="207" y="781" on="1"/>
        <pt x="222" y="781" on="0"/>
        <pt x="278" y="819" on="0"/>
        <pt x="329" y="819" on="0"/>
        <pt x="365" y="779" on="0"/>
        <pt x="368" y="745" on="1"/>
        <pt x="327" y="731" on="1"/>
        <pt x="317" y="759" on="0"/>
      </contour>
    </TTGlyph>
    <TTGlyph name="b" xMin="100" yMin="0" xMax="420" yMax="650">
      <contour>
        <pt x="100" y="650" on="1"/>
        <pt x="251" y="650" on="1"/>
        <pt x="329" y="650" on="0"/>
        <pt x="410" y="576" on="0"/>
        <pt x="410" y="510" on="1"/>
        <pt x="410" y="450" on="1"/>
        <pt x="410" y="365" on="0"/>
        <pt x="339" y="341" on="1"/>
        <pt x="420" y="319" on="0"/>
        <pt x="420" y="230" on="1"/>
        <pt x="420" y="140" on="1"/>
        <pt x="420" y="73" on="0"/>
        <pt x="340" y="0" on="0"/>
        <pt x="261" y="0" on="1"/>
        <pt x="100" y="0" on="1"/>
      </contour>
      <contour>
        <pt x="350" y="140" on="1"/>
        <pt x="350" y="230" on="1"/>
        <pt x="350" y="268" on="0"/>
        <pt x="304" y="315" on="0"/>
        <pt x="261" y="315" on="1"/>
        <pt x="170" y="315" on="1"/>
        <pt x="170" y="60" on="1"/>
        <pt x="261" y="60" on="1"/>
        <pt x="350" y="60" on="0"/>
      </contour>
      <contour>
        <pt x="340" y="450" on="1"/>
        <pt x="340" y="510" on="1"/>
        <pt x="340" y="548" on="0"/>
        <pt x="294" y="590" on="0"/>
        <pt x="251" y="590" on="1"/>
        <pt x="170" y="590" on="1"/>
        <pt x="170" y="365" on="1"/>
        <pt x="251" y="365" on="1"/>
        <pt x="295" y="365" on="0"/>
        <pt x="340" y="411" on="0"/>
      </contour>
    </TTGlyph>
    <TTGlyph name="backslash" xMin="60" yMin="-100" xMax="320" yMax="750">
      <contour>
        <pt x="320" y="-100" on="1"/>
        <pt x="260" y="-100" on="1"/>
        <pt x="60" y="750" on="1"/>
        <pt x="120" y="750" on="1"/>
      </contour>
    </TTGlyph>
    <TTGlyph name="bar" xMin="110" yMin="-100" xMax="170" yMax="750">
      <contour>
        <pt x="110" y="-100" on="1"/>
        <pt x="110" y="750" on="1"/>
        <pt x="170" y="750" on="1"/>
        <pt x="170" y="-100" on="1"/>
      </contour>
    </TTGlyph>
    <TTGlyph name="barra" xMin="115" yMin="305" xMax="375" yMax="355">
      <contour>
        <pt x="115" y="305" on="1"/>
        <pt x="115" y="355" on="1"/>
        <pt x="375" y="355" on="1"/>
        <pt x="375" y="305" on="1"/>
      </contour>
    </TTGlyph>
    <TTGlyph name="braceleft" xMin="26" yMin="-65" xMax="257" yMax="715">
      <contour>
        <pt x="85" y="75" on="1"/>
        <pt x="85" y="244" on="1"/>
        <pt x="85" y="266" on="0"/>
        <pt x="54" y="300" on="0"/>
        <pt x="26" y="300" on="1"/>
        <pt x="26" y="350" on="1"/>
        <pt x="54" y="350" on="0"/>
        <pt x="85" y="384" on="0"/>
        <pt x="85" y="406" on="1"/>
        <pt x="85" y="575" on="1"/>
        <pt x="85" y="642" on="0"/>
        <pt x="171" y="715" on="0"/>
        <pt x="257" y="715" on="1"/>
        <pt x="257" y="655" on="1"/>
        <pt x="155" y="655" on="0"/>
        <pt x="155" y="575" on="1"/>
        <pt x="155" y="406" on="1"/>
        <pt x="155" y="344" on="0"/>
        <pt x="85" y="328" on="1"/>
        <pt x="85" y="320" on="1"/>
        <pt x="155" y="304" on="0"/>
        <pt x="155" y="244" on="1"/>
        <pt x="155" y="75" on="1"/>
        <pt x="155" y="-5" on="0"/>
        <pt x="257" y="-5" on="1"/>
        <pt x="257" y="-65" on="1"/>
        <pt x="171" y="-65" on="0"/>
        <pt x="85" y="8" on="0"/>
      </contour>
    </TTGlyph>
    <TTGlyph name="braceright" xMin="25" yMin="-65" xMax="256" yMax="715">
      <contour>
        <pt x="197" y="244" on="1"/>
        <pt x="197" y="75" on="1"/>
        <pt x="197" y="8" on="0"/>
        <pt x="111" y="-65" on="0"/>
        <pt x="25" y="-65" on="1"/>
        <pt x="25" y="-5" on="1"/>
        <pt x="127" y="-5" on="0"/>
        <pt x="127" y="75" on="1"/>
        <pt x="127" y="244" on="1"/>
        <pt x="127" y="304" on="0"/>
        <pt x="197" y="320" on="1"/>
        <pt x="197" y="328" on="1"/>
        <pt x="127" y="344" on="0"/>
        <pt x="127" y="406" on="1"/>
        <pt x="127" y="575" on="1"/>
        <pt x="127" y="655" on="0"/>
        <pt x="25" y="655" on="1"/>
        <pt x="25" y="715" on="1"/>
        <pt x="111" y="715" on="0"/>
        <pt x="197" y="642" on="0"/>
        <pt x="197" y="575" on="1"/>
        <pt x="197" y="406" on="1"/>
        <pt x="197" y="384" on="0"/>
        <pt x="228" y="350" on="0"/>
        <pt x="256" y="350" on="1"/>
        <pt x="256" y="300" on="1"/>
        <pt x="228" y="300" on="0"/>
        <pt x="197" y="266" on="0"/>
      </contour>
    </TTGlyph>
    <TTGlyph name="bracketleft" xMin="85" yMin="-60" xMax="257" yMax="710">
      <contour>
        <pt x="85" y="-60" on="1"/>
        <pt x="85" y="710" on="1"/>
        <pt x="257" y="710" on="1"/>
        <pt x="257" y="650" on="1"/>
        <pt x="155" y="650" on="1"/>
        <pt x="155" y="0" on="1"/>
        <pt x="256" y="0" on="1"/>
        <pt x="256" y="-60" on="1"/>
      </contour>
    </TTGlyph>
    <TTGlyph name="bracketright" xMin="25" yMin="-60" xMax="197" yMax="710">
      <contour>
        <pt x="197" y="710" on="1"/>
        <pt x="197" y="-60" on="1"/>
        <pt x="26" y="-60" on="1"/>
        <pt x="26" y="0" on="1"/>
        <pt x="127" y="0" on="1"/>
        <pt x="127" y="650" on="1"/>
        <pt x="25" y="650" on="1"/>
        <pt x="25" y="710" on="1"/>
      </contour>
    </TTGlyph>
    <TTGlyph name="breve" xMin="92" yMin="715" xMax="288" yMax="816">
      <contour>
        <pt x="147" y="816" on="1"/>
        <pt x="147" y="796" on="1"/>
        <pt x="147" y="765" on="0"/>
        <pt x="233" y="765" on="0"/>
        <pt x="233" y="796" on="1"/>
        <pt x="233" y="816" on="1"/>
        <pt x="288" y="816" on="1"/>
        <pt x="288" y="790" on="1"/>
        <pt x="288" y="715" on="0"/>
        <pt x="92" y="715" on="0"/>
        <pt x="92" y="790" on="1"/>
        <pt x="92" y="816" on="1"/>
      </contour>
    </TTGlyph>
    <TTGlyph name="breve.case" xMin="92" yMin="715" xMax="288" yMax="816">
      <contour>
        <pt x="147" y="816" on="1"/>
        <pt x="147" y="796" on="1"/>
        <pt x="147" y="765" on="0"/>
        <pt x="233" y="765" on="0"/>
        <pt x="233" y="796" on="1"/>
        <pt x="233" y="816" on="1"/>
        <pt x="288" y="816" on="1"/>
        <pt x="288" y="790" on="1"/>
        <pt x="288" y="715" on="0"/>
        <pt x="92" y="715" on="0"/>
        <pt x="92" y="790" on="1"/>
        <pt x="92" y="816" on="1"/>
      </contour>
    </TTGlyph>
    <TTGlyph name="brokenbar" xMin="110" yMin="-100" xMax="170" yMax="750">
      <contour>
        <pt x="110" y="-100" on="1"/>
        <pt x="110" y="220" on="1"/>
        <pt x="170" y="220" on="1"/>
        <pt x="170" y="-100" on="1"/>
      </contour>
      <contour>
        <pt x="110" y="430" on="1"/>
        <pt x="110" y="750" on="1"/>
        <pt x="170" y="750" on="1"/>
        <pt x="170" y="430" on="1"/>
      </contour>
    </TTGlyph>
    <TTGlyph name="bullet" xMin="91" yMin="253" xMax="208" yMax="396">
      <contour>
        <pt x="208" y="253" on="1"/>
        <pt x="91" y="253" on="1"/>
        <pt x="91" y="396" on="1"/>
        <pt x="208" y="396" on="1"/>
      </contour>
    </TTGlyph>
    <TTGlyph name="c" xMin="85" yMin="-15" xMax="415" yMax="665">
      <contour>
        <pt x="345" y="125" on="1"/>
        <pt x="345" y="180" on="1"/>
        <pt x="415" y="180" on="1"/>
        <pt x="415" y="125" on="1"/>
        <pt x="415" y="58" on="0"/>
        <pt x="333" y="-15" on="0"/>
        <pt x="169" y="-15" on="0"/>
        <pt x="85" y="58" on="0"/>
        <pt x="85" y="125" on="1"/>
        <pt x="85" y="525" on="1"/>
        <pt x="85" y="592" on="0"/>
        <pt x="167" y="665" on="0"/>
        <pt x="331" y="665" on="0"/>
        <pt x="415" y="592" on="0"/>
        <pt x="415" y="525" on="1"/>
        <pt x="415" y="430" on="1"/>
        <pt x="345" y="430" on="1"/>
        <pt x="345" y="525" on="1"/>
        <pt x="345" y="605" on="0"/>
        <pt x="155" y="605" on="0"/>
        <pt x="155" y="525" on="1"/>
        <pt x="155" y="125" on="1"/>
        <pt x="155" y="45" on="0"/>
        <pt x="345" y="45" on="0"/>
      </contour>
    </TTGlyph>
    <TTGlyph name="cacute" xMin="85" yMin="-15" xMax="415" yMax="847">
      <contour>
        <pt x="345" y="125" on="1"/>
        <pt x="345" y="180" on="1"/>
        <pt x="415" y="180" on="1"/>
        <pt x="415" y="125" on="1"/>
        <pt x="415" y="58" on="0"/>
        <pt x="333" y="-15" on="0"/>
        <pt x="169" y="-15" on="0"/>
        <pt x="85" y="58" on="0"/>
        <pt x="85" y="125" on="1"/>
        <pt x="85" y="525" on="1"/>
        <pt x="85" y="592" on="0"/>
        <pt x="167" y="665" on="0"/>
        <pt x="331" y="665" on="0"/>
        <pt x="415" y="592" on="0"/>
        <pt x="415" y="525" on="1"/>
        <pt x="415" y="430" on="1"/>
        <pt x="345" y="430" on="1"/>
        <pt x="345" y="525" on="1"/>
        <pt x="345" y="605" on="0"/>
        <pt x="155" y="605" on="0"/>
        <pt x="155" y="525" on="1"/>
        <pt x="155" y="125" on="1"/>
        <pt x="155" y="45" on="0"/>
        <pt x="345" y="45" on="0"/>
      </contour>
      <contour>
        <pt x="333" y="793" on="1"/>
        <pt x="295" y="755" on="1"/>
        <pt x="182" y="698" on="1"/>
        <pt x="156" y="724" on="1"/>
        <pt x="279" y="847" on="1"/>
      </contour>
    </TTGlyph>
    <TTGlyph name="caron" xMin="70" yMin="701" xMax="298" yMax="840">
      <contour>
        <pt x="184" y="778" on="1"/>
        <pt x="272" y="840" on="1"/>
        <pt x="298" y="814" on="1"/>
        <pt x="200" y="701" on="1"/>
        <pt x="168" y="701" on="1"/>
        <pt x="70" y="814" on="1"/>
        <pt x="96" y="840" on="1"/>
      </contour>
    </TTGlyph>
    <TTGlyph name="caron.case" xMin="70" yMin="701" xMax="298" yMax="840">
      <contour>
        <pt x="184" y="778" on="1"/>
        <pt x="272" y="840" on="1"/>
        <pt x="298" y="814" on="1"/>
        <pt x="200" y="701" on="1"/>
        <pt x="168" y="701" on="1"/>
        <pt x="70" y="814" on="1"/>
        <pt x="96" y="840" on="1"/>
      </contour>
    </TTGlyph>
    <TTGlyph name="ccaron" xMin="85" yMin="-15" xMax="415" yMax="840">
      <contour>
        <pt x="345" y="125" on="1"/>
        <pt x="345" y="180" on="1"/>
        <pt x="415" y="180" on="1"/>
        <pt x="415" y="125" on="1"/>
        <pt x="415" y="58" on="0"/>
        <pt x="333" y="-15" on="0"/>
        <pt x="169" y="-15" on="0"/>
        <pt x="85" y="58" on="0"/>
        <pt x="85" y="125" on="1"/>
        <pt x="85" y="525" on="1"/>
        <pt x="85" y="592" on="0"/>
        <pt x="167" y="665" on="0"/>
        <pt x="331" y="665" on="0"/>
        <pt x="415" y="592" on="0"/>
        <pt x="415" y="525" on="1"/>
        <pt x="415" y="430" on="1"/>
        <pt x="345" y="430" on="1"/>
        <pt x="345" y="525" on="1"/>
        <pt x="345" y="605" on="0"/>
        <pt x="155" y="605" on="0"/>
        <pt x="155" y="525" on="1"/>
        <pt x="155" y="125" on="1"/>
        <pt x="155" y="45" on="0"/>
        <pt x="345" y="45" on="0"/>
      </contour>
      <contour>
        <pt x="245" y="778" on="1"/>
        <pt x="333" y="840" on="1"/>
        <pt x="359" y="814" on="1"/>
        <pt x="261" y="701" on="1"/>
        <pt x="229" y="701" on="1"/>
        <pt x="131" y="814" on="1"/>
        <pt x="157" y="840" on="1"/>
      </contour>
    </TTGlyph>
    <TTGlyph name="ccedilla" xMin="85" yMin="-240" xMax="415" yMax="665">
      <contour>
        <pt x="345" y="125" on="1"/>
        <pt x="345" y="180" on="1"/>
        <pt x="415" y="180" on="1"/>
        <pt x="415" y="125" on="1"/>
        <pt x="415" y="-8" on="0"/>
        <pt x="264" y="-14" on="1"/>
        <pt x="255" y="-62" on="1"/>
        <pt x="260" y="-62" on="1"/>
        <pt x="301" y="-62" on="0"/>
        <pt x="344" y="-105" on="0"/>
        <pt x="344" y="-141" on="1"/>
        <pt x="344" y="-164" on="1"/>
        <pt x="344" y="-240" on="0"/>
        <pt x="165" y="-240" on="0"/>
        <pt x="165" y="-164" on="1"/>
        <pt x="165" y="-156" on="1"/>
        <pt x="213" y="-156" on="1"/>
        <pt x="213" y="-166" on="1"/>
        <pt x="213" y="-197" on="0"/>
        <pt x="296" y="-197" on="0"/>
        <pt x="296" y="-166" on="1"/>
        <pt x="296" y="-141" on="1"/>
        <pt x="296" y="-127" on="0"/>
        <pt x="276" y="-105" on="0"/>
        <pt x="260" y="-105" on="1"/>
        <pt x="200" y="-105" on="1"/>
        <pt x="218" y="-13" on="1"/>
        <pt x="152" y="-6" on="0"/>
        <pt x="85" y="65" on="0"/>
        <pt x="85" y="125" on="1"/>
        <pt x="85" y="525" on="1"/>
        <pt x="85" y="592" on="0"/>
        <pt x="167" y="665" on="0"/>
        <pt x="331" y="665" on="0"/>
        <pt x="415" y="592" on="0"/>
        <pt x="415" y="525" on="1"/>
        <pt x="415" y="430" on="1"/>
        <pt x="345" y="430" on="1"/>
        <pt x="345" y="525" on="1"/>
        <pt x="345" y="605" on="0"/>
        <pt x="155" y="605" on="0"/>
        <pt x="155" y="525" on="1"/>
        <pt x="155" y="125" on="1"/>
        <pt x="155" y="45" on="0"/>
        <pt x="345" y="45" on="0"/>
      </contour>
    </TTGlyph>
    <TTGlyph name="ccircumflex" xMin="85" yMin="-15" xMax="415" yMax="837">
      <contour>
        <pt x="345" y="125" on="1"/>
        <pt x="345" y="180" on="1"/>
        <pt x="415" y="180" on="1"/>
        <pt x="415" y="125" on="1"/>
        <pt x="415" y="58" on="0"/>
        <pt x="333" y="-15" on="0"/>
        <pt x="169" y="-15" on="0"/>
        <pt x="85" y="58" on="0"/>
        <pt x="85" y="125" on="1"/>
        <pt x="85" y="525" on="1"/>
        <pt x="85" y="592" on="0"/>
        <pt x="167" y="665" on="0"/>
        <pt x="331" y="665" on="0"/>
        <pt x="415" y="592" on="0"/>
        <pt x="415" y="525" on="1"/>
        <pt x="415" y="430" on="1"/>
        <pt x="345" y="430" on="1"/>
        <pt x="345" y="525" on="1"/>
        <pt x="345" y="605" on="0"/>
        <pt x="155" y="605" on="0"/>
        <pt x="155" y="525" on="1"/>
        <pt x="155" y="125" on="1"/>
        <pt x="155" y="45" on="0"/>
        <pt x="345" y="45" on="0"/>
      </contour>
      <contour>
        <pt x="245" y="760" on="1"/>
        <pt x="157" y="698" on="1"/>
        <pt x="131" y="724" on="1"/>
        <pt x="229" y="837" on="1"/>
        <pt x="261" y="837" on="1"/>
        <pt x="359" y="724" on="1"/>
        <pt x="333" y="698" on="1"/>
      </contour>
    </TTGlyph>
    <TTGlyph name="cdotaccent" xMin="85" yMin="-15" xMax="415" yMax="825">
      <contour>
        <pt x="345" y="125" on="1"/>
        <pt x="345" y="180" on="1"/>
        <pt x="415" y="180" on="1"/>
        <pt x="415" y="125" on="1"/>
        <pt x="415" y="58" on="0"/>
        <pt x="333" y="-15" on="0"/>
        <pt x="169" y="-15" on="0"/>
        <pt x="85" y="58" on="0"/>
        <pt x="85" y="125" on="1"/>
        <pt x="85" y="525" on="1"/>
        <pt x="85" y="592" on="0"/>
        <pt x="167" y="665" on="0"/>
        <pt x="331" y="665" on="0"/>
        <pt x="415" y="592" on="0"/>
        <pt x="415" y="525" on="1"/>
        <pt x="415" y="430" on="1"/>
        <pt x="345" y="430" on="1"/>
        <pt x="345" y="525" on="1"/>
        <pt x="345" y="605" on="0"/>
        <pt x="155" y="605" on="0"/>
        <pt x="155" y="525" on="1"/>
        <pt x="155" y="125" on="1"/>
        <pt x="155" y="45" on="0"/>
        <pt x="345" y="45" on="0"/>
      </contour>
      <contour>
        <pt x="285" y="715" on="1"/>
        <pt x="205" y="715" on="1"/>
        <pt x="205" y="825" on="1"/>
        <pt x="285" y="825" on="1"/>
      </contour>
    </TTGlyph>
    <TTGlyph name="cedilla" xMin="72" yMin="-240" xMax="251" yMax="2">
      <contour>
        <pt x="167" y="-62" on="1"/>
        <pt x="208" y="-62" on="0"/>
        <pt x="251" y="-105" on="0"/>
        <pt x="251" y="-141" on="1"/>
        <pt x="251" y="-164" on="1"/>
        <pt x="251" y="-240" on="0"/>
        <pt x="72" y="-240" on="0"/>
        <pt x="72" y="-164" on="1"/>
        <pt x="72" y="-156" on="1"/>
        <pt x="120" y="-156" on="1"/>
        <pt x="120" y="-166" on="1"/>
        <pt x="120" y="-197" on="0"/>
        <pt x="203" y="-197" on="0"/>
        <pt x="203" y="-166" on="1"/>
        <pt x="203" y="-141" on="1"/>
        <pt x="203" y="-127" on="0"/>
        <pt x="183" y="-105" on="0"/>
        <pt x="167" y="-105" on="1"/>
        <pt x="107" y="-105" on="1"/>
        <pt x="128" y="2" on="1"/>
        <pt x="175" y="2" on="1"/>
        <pt x="162" y="-62" on="1"/>
      </contour>
    </TTGlyph>
    <TTGlyph name="cent" xMin="95" yMin="-100" xMax="425" yMax="750">
      <contour>
        <pt x="245" y="-100" on="1"/>
        <pt x="245" y="35" on="1"/>
        <pt x="171" y="39" on="0"/>
        <pt x="95" y="112" on="0"/>
        <pt x="95" y="175" on="1"/>
        <pt x="95" y="475" on="1"/>
        <pt x="95" y="608" on="0"/>
        <pt x="245" y="614" on="1"/>
        <pt x="245" y="750" on="1"/>
        <pt x="295" y="750" on="1"/>
        <pt x="295" y="613" on="1"/>
        <pt x="359" y="605" on="0"/>
        <pt x="425" y="534" on="0"/>
        <pt x="425" y="475" on="1"/>
        <pt x="425" y="410" on="1"/>
        <pt x="355" y="410" on="1"/>
        <pt x="355" y="475" on="1"/>
        <pt x="355" y="536" on="0"/>
        <pt x="295" y="551" on="1"/>
        <pt x="295" y="98" on="1"/>
        <pt x="355" y="111" on="0"/>
        <pt x="355" y="175" on="1"/>
        <pt x="355" y="200" on="1"/>
        <pt x="425" y="200" on="1"/>
        <pt x="425" y="175" on="1"/>
        <pt x="425" y="52" on="0"/>
        <pt x="295" y="37" on="1"/>
        <pt x="295" y="-100" on="1"/>
      </contour>
      <contour>
        <pt x="165" y="175" on="1"/>
        <pt x="165" y="102" on="0"/>
        <pt x="245" y="95" on="1"/>
        <pt x="245" y="554" on="1"/>
        <pt x="165" y="548" on="0"/>
        <pt x="165" y="475" on="1"/>
      </contour>
    </TTGlyph>
    <TTGlyph name="circumflex" xMin="70" yMin="698" xMax="298" yMax="837">
      <contour>
        <pt x="184" y="760" on="1"/>
        <pt x="96" y="698" on="1"/>
        <pt x="70" y="724" on="1"/>
        <pt x="168" y="837" on="1"/>
        <pt x="200" y="837" on="1"/>
        <pt x="298" y="724" on="1"/>
        <pt x="272" y="698" on="1"/>
      </contour>
    </TTGlyph>
    <TTGlyph name="circumflex.case" xMin="70" yMin="698" xMax="298" yMax="837">
      <contour>
        <pt x="184" y="760" on="1"/>
        <pt x="96" y="698" on="1"/>
        <pt x="70" y="724" on="1"/>
        <pt x="168" y="837" on="1"/>
        <pt x="200" y="837" on="1"/>
        <pt x="298" y="724" on="1"/>
        <pt x="272" y="698" on="1"/>
      </contour>
    </TTGlyph>
    <TTGlyph name="colon" xMin="85" yMin="0" xMax="175" yMax="510">
      <contour>
        <pt x="175" y="0" on="1"/>
        <pt x="85" y="0" on="1"/>
        <pt x="85" y="110" on="1"/>
        <pt x="175" y="110" on="1"/>
      </contour>
      <contour>
        <pt x="175" y="400" on="1"/>
        <pt x="85" y="400" on="1"/>
        <pt x="85" y="510" on="1"/>
        <pt x="175" y="510" on="1"/>
      </contour>
    </TTGlyph>
    <TTGlyph name="comma" xMin="85" yMin="-111" xMax="175" yMax="110">
      <contour>
        <pt x="85" y="110" on="1"/>
        <pt x="175" y="110" on="1"/>
        <pt x="175" y="15" on="1"/>
        <pt x="126" y="-111" on="1"/>
        <pt x="94" y="-105" on="1"/>
        <pt x="109" y="0" on="1"/>
        <pt x="85" y="9" on="1"/>
      </contour>
    </TTGlyph>
    <TTGlyph name="commaaccent" xMin="90" yMin="-256" xMax="170" yMax="-55">
      <contour>
        <pt x="90" y="-55" on="1"/>
        <pt x="170" y="-55" on="1"/>
        <pt x="170" y="-140" on="1"/>
        <pt x="126" y="-256" on="1"/>
        <pt x="94" y="-250" on="1"/>
        <pt x="114" y="-155" on="1"/>
        <pt x="90" y="-146" on="1"/>
      </contour>
    </TTGlyph>
    <TTGlyph name="copyright" xMin="80" yMin="218" xMax="420" yMax="665">
      <contour>
        <pt x="289" y="366" on="1"/>
        <pt x="289" y="400" on="1"/>
        <pt x="337" y="400" on="1"/>
        <pt x="337" y="366" on="1"/>
        <pt x="337" y="330" on="0"/>
        <pt x="293" y="290" on="0"/>
        <pt x="206" y="290" on="0"/>
        <pt x="162" y="330" on="0"/>
        <pt x="162" y="366" on="1"/>
        <pt x="162" y="519" on="1"/>
        <pt x="162" y="595" on="0"/>
        <pt x="337" y="595" on="0"/>
        <pt x="337" y="519" on="1"/>
        <pt x="337" y="466" on="1"/>
        <pt x="289" y="466" on="1"/>
        <pt x="289" y="519" on="1"/>
        <pt x="289" y="552" on="0"/>
        <pt x="210" y="552" on="0"/>
        <pt x="210" y="519" on="1"/>
        <pt x="210" y="366" on="1"/>
        <pt x="210" y="333" on="0"/>
        <pt x="289" y="333" on="0"/>
      </contour>
      <contour>
        <pt x="420" y="525" on="1"/>
        <pt x="420" y="358" on="1"/>
        <pt x="420" y="291" on="0"/>
        <pt x="335" y="218" on="0"/>
        <pt x="166" y="218" on="0"/>
        <pt x="80" y="291" on="0"/>
        <pt x="80" y="358" on="1"/>
        <pt x="80" y="525" on="1"/>
        <pt x="80" y="592" on="0"/>
        <pt x="165" y="665" on="0"/>
        <pt x="334" y="665" on="0"/>
        <pt x="420" y="592" on="0"/>
      </contour>
      <contour>
        <pt x="385" y="358" on="1"/>
        <pt x="385" y="525" on="1"/>
        <pt x="385" y="635" on="0"/>
        <pt x="115" y="635" on="0"/>
        <pt x="115" y="525" on="1"/>
        <pt x="115" y="358" on="1"/>
        <pt x="115" y="248" on="0"/>
        <pt x="385" y="248" on="0"/>
      </contour>
    </TTGlyph>
    <TTGlyph name="currency" xMin="22" yMin="92" xMax="488" yMax="558">
      <contour>
        <pt x="406" y="350" on="1"/>
        <pt x="406" y="300" on="1"/>
        <pt x="406" y="256" on="0"/>
        <pt x="390" y="225" on="1"/>
        <pt x="488" y="127" on="1"/>
        <pt x="453" y="92" on="1"/>
        <pt x="358" y="187" on="1"/>
        <pt x="322" y="160" on="0"/>
        <pt x="192" y="160" on="0"/>
        <pt x="153" y="188" on="1"/>
        <pt x="57" y="92" on="1"/>
        <pt x="22" y="127" on="1"/>
        <pt x="121" y="226" on="1"/>
        <pt x="106" y="257" on="0"/>
        <pt x="106" y="300" on="1"/>
        <pt x="106" y="350" on="1"/>
        <pt x="106" y="395" on="0"/>
        <pt x="121" y="424" on="1"/>
        <pt x="22" y="523" on="1"/>
        <pt x="57" y="558" on="1"/>
        <pt x="153" y="462" on="1"/>
        <pt x="190" y="490" on="0"/>
        <pt x="318" y="490" on="0"/>
        <pt x="357" y="462" on="1"/>
        <pt x="453" y="558" on="1"/>
        <pt x="488" y="523" on="1"/>
        <pt x="390" y="425" on="1"/>
        <pt x="406" y="394" on="0"/>
      </contour>
      <contour>
        <pt x="336" y="300" on="1"/>
        <pt x="336" y="350" on="1"/>
        <pt x="336" y="430" on="0"/>
        <pt x="255" y="430" on="1"/>
        <pt x="176" y="430" on="0"/>
        <pt x="176" y="350" on="1"/>
        <pt x="176" y="300" on="1"/>
        <pt x="176" y="220" on="0"/>
        <pt x="257" y="220" on="1"/>
        <pt x="336" y="220" on="0"/>
      </contour>
    </TTGlyph>
    <TTGlyph name="d" xMin="100" yMin="0" xMax="420" yMax="650">
      <contour>
        <pt x="261" y="0" on="1"/>
        <pt x="100" y="0" on="1"/>
        <pt x="100" y="650" on="1"/>
        <pt x="261" y="650" on="1"/>
        <pt x="339" y="650" on="0"/>
        <pt x="420" y="576" on="0"/>
        <pt x="420" y="510" on="1"/>
        <pt x="420" y="140" on="1"/>
        <pt x="420" y="73" on="0"/>
        <pt x="340" y="0" on="0"/>
      </contour>
      <contour>
        <pt x="350" y="140" on="1"/>
        <pt x="350" y="510" on="1"/>
        <pt x="350" y="548" on="0"/>
        <pt x="304" y="590" on="0"/>
        <pt x="261" y="590" on="1"/>
        <pt x="170" y="590" on="1"/>
        <pt x="170" y="60" on="1"/>
        <pt x="261" y="60" on="1"/>
        <pt x="350" y="60" on="0"/>
      </contour>
    </TTGlyph>
    <TTGlyph name="dagger" xMin="60" yMin="0" xMax="380" yMax="700">
      <contour>
        <pt x="60" y="490" on="1"/>
        <pt x="60" y="550" on="1"/>
        <pt x="185" y="550" on="1"/>
        <pt x="185" y="700" on="1"/>
        <pt x="255" y="700" on="1"/>
        <pt x="255" y="550" on="1"/>
        <pt x="380" y="550" on="1"/>
        <pt x="380" y="490" on="1"/>
        <pt x="255" y="490" on="1"/>
        <pt x="255" y="0" on="1"/>
        <pt x="185" y="0" on="1"/>
        <pt x="185" y="490" on="1"/>
      </contour>
    </TTGlyph>
    <TTGlyph name="daggerdbl" xMin="60" yMin="0" xMax="380" yMax="700">
      <contour>
        <pt x="60" y="490" on="1"/>
        <pt x="60" y="550" on="1"/>
        <pt x="185" y="550" on="1"/>
        <pt x="185" y="700" on="1"/>
        <pt x="255" y="700" on="1"/>
        <pt x="255" y="550" on="1"/>
        <pt x="380" y="550" on="1"/>
        <pt x="380" y="490" on="1"/>
        <pt x="255" y="490" on="1"/>
        <pt x="255" y="210" on="1"/>
        <pt x="380" y="210" on="1"/>
        <pt x="380" y="150" on="1"/>
        <pt x="255" y="150" on="1"/>
        <pt x="255" y="0" on="1"/>
        <pt x="185" y="0" on="1"/>
        <pt x="185" y="150" on="1"/>
        <pt x="60" y="150" on="1"/>
        <pt x="60" y="210" on="1"/>
        <pt x="185" y="210" on="1"/>
        <pt x="185" y="490" on="1"/>
      </contour>
    </TTGlyph>
    <TTGlyph name="dcaron" xMin="100" yMin="0" xMax="545" yMax="715">
      <contour>
        <pt x="261" y="0" on="1"/>
        <pt x="100" y="0" on="1"/>
        <pt x="100" y="650" on="1"/>
        <pt x="261" y="650" on="1"/>
        <pt x="339" y="650" on="0"/>
        <pt x="420" y="576" on="0"/>
        <pt x="420" y="510" on="1"/>
        <pt x="420" y="140" on="1"/>
        <pt x="420" y="73" on="0"/>
        <pt x="340" y="0" on="0"/>
      </contour>
      <contour>
        <pt x="350" y="140" on="1"/>
        <pt x="350" y="510" on="1"/>
        <pt x="350" y="548" on="0"/>
        <pt x="304" y="590" on="0"/>
        <pt x="261" y="590" on="1"/>
        <pt x="170" y="590" on="1"/>
        <pt x="170" y="60" on="1"/>
        <pt x="261" y="60" on="1"/>
        <pt x="350" y="60" on="0"/>
      </contour>
      <contour>
        <pt x="465" y="715" on="1"/>
        <pt x="545" y="715" on="1"/>
        <pt x="545" y="630" on="1"/>
        <pt x="501" y="514" on="1"/>
        <pt x="469" y="520" on="1"/>
        <pt x="489" y="615" on="1"/>
        <pt x="465" y="624" on="1"/>
      </contour>
    </TTGlyph>
    <TTGlyph name="dcroat" xMin="31" yMin="0" xMax="420" yMax="650">
      <contour>
        <pt x="31" y="305" on="1"/>
        <pt x="31" y="355" on="1"/>
        <pt x="100" y="355" on="1"/>
        <pt x="100" y="650" on="1"/>
        <pt x="261" y="650" on="1"/>
        <pt x="339" y="650" on="0"/>
        <pt x="420" y="576" on="0"/>
        <pt x="420" y="510" on="1"/>
        <pt x="420" y="140" on="1"/>
        <pt x="420" y="73" on="0"/>
        <pt x="340" y="0" on="0"/>
        <pt x="261" y="0" on="1"/>
        <pt x="100" y="0" on="1"/>
        <pt x="100" y="305" on="1"/>
      </contour>
      <contour>
        <pt x="350" y="140" on="1"/>
        <pt x="350" y="510" on="1"/>
        <pt x="350" y="542" on="0"/>
        <pt x="303" y="590" on="0"/>
        <pt x="261" y="590" on="1"/>
        <pt x="170" y="590" on="1"/>
        <pt x="170" y="355" on="1"/>
        <pt x="291" y="355" on="1"/>
        <pt x="291" y="305" on="1"/>
        <pt x="170" y="305" on="1"/>
        <pt x="170" y="60" on="1"/>
        <pt x="261" y="60" on="1"/>
        <pt x="303" y="60" on="0"/>
        <pt x="350" y="107" on="0"/>
      </contour>
    </TTGlyph>
    <TTGlyph name="degree" xMin="85" yMin="391" xMax="294" yMax="665">
      <contour>
        <pt x="294" y="590" on="1"/>
        <pt x="294" y="466" on="1"/>
        <pt x="294" y="391" on="0"/>
        <pt x="85" y="391" on="0"/>
        <pt x="85" y="466" on="1"/>
        <pt x="85" y="590" on="1"/>
        <pt x="85" y="665" on="0"/>
        <pt x="294" y="665" on="0"/>
      </contour>
      <contour>
        <pt x="246" y="466" on="1"/>
        <pt x="246" y="590" on="1"/>
        <pt x="246" y="623" on="0"/>
        <pt x="133" y="623" on="0"/>
        <pt x="133" y="590" on="1"/>
        <pt x="133" y="466" on="1"/>
        <pt x="133" y="434" on="0"/>
        <pt x="246" y="434" on="0"/>
      </contour>
    </TTGlyph>
    <TTGlyph name="dieresis" xMin="85" yMin="715" xMax="295" yMax="825">
      <contour>
        <pt x="155" y="715" on="1"/>
        <pt x="85" y="715" on="1"/>
        <pt x="85" y="825" on="1"/>
        <pt x="155" y="825" on="1"/>
      </contour>
      <contour>
        <pt x="295" y="715" on="1"/>
        <pt x="225" y="715" on="1"/>
        <pt x="225" y="825" on="1"/>
        <pt x="295" y="825" on="1"/>
      </contour>
    </TTGlyph>
    <TTGlyph name="dieresis.case" xMin="85" yMin="715" xMax="295" yMax="825">
      <contour>
        <pt x="155" y="715" on="1"/>
        <pt x="85" y="715" on="1"/>
        <pt x="85" y="825" on="1"/>
        <pt x="155" y="825" on="1"/>
      </contour>
      <contour>
        <pt x="295" y="715" on="1"/>
        <pt x="225" y="715" on="1"/>
        <pt x="225" y="825" on="1"/>
        <pt x="295" y="825" on="1"/>
      </contour>
    </TTGlyph>
    <TTGlyph name="divide" xMin="95" yMin="116" xMax="415" yMax="534">
      <contour>
        <pt x="293" y="435" on="1"/>
        <pt x="212" y="435" on="1"/>
        <pt x="212" y="534" on="1"/>
        <pt x="293" y="534" on="1"/>
      </contour>
      <contour>
        <pt x="415" y="355" on="1"/>
        <pt x="415" y="295" on="1"/>
        <pt x="95" y="295" on="1"/>
        <pt x="95" y="355" on="1"/>
      </contour>
      <contour>
        <pt x="293" y="116" on="1"/>
        <pt x="212" y="116" on="1"/>
        <pt x="212" y="215" on="1"/>
        <pt x="293" y="215" on="1"/>
      </contour>
    </TTGlyph>
    <TTGlyph name="dollar" xMin="86" yMin="-100" xMax="424" yMax="750">
      <contour>
        <pt x="230" y="-100" on="1"/>
        <pt x="230" y="-14" on="1"/>
        <pt x="86" y="-4" on="0"/>
        <pt x="86" y="125" on="1"/>
        <pt x="86" y="210" on="1"/>
        <pt x="156" y="210" on="1"/>
        <pt x="156" y="121" on="1"/>
        <pt x="156" y="56" on="0"/>
        <pt x="230" y="46" on="1"/>
        <pt x="230" y="302" on="1"/>
        <pt x="140" y="390" on="1"/>
        <pt x="109" y="421" on="0"/>
        <pt x="86" y="480" on="0"/>
        <pt x="86" y="525" on="1"/>
        <pt x="86" y="654" on="0"/>
        <pt x="230" y="664" on="1"/>
        <pt x="230" y="750" on="1"/>
        <pt x="280" y="750" on="1"/>
        <pt x="280" y="664" on="1"/>
        <pt x="414" y="652" on="0"/>
        <pt x="414" y="525" on="1"/>
        <pt x="414" y="440" on="1"/>
        <pt x="344" y="440" on="1"/>
        <pt x="344" y="529" on="1"/>
        <pt x="344" y="590" on="0"/>
        <pt x="280" y="602" on="1"/>
        <pt x="280" y="350" on="1"/>
        <pt x="373" y="261" on="1"/>
        <pt x="402" y="229" on="0"/>
        <pt x="424" y="170" on="0"/>
        <pt x="424" y="125" on="1"/>
        <pt x="424" y="-4" on="0"/>
        <pt x="280" y="-14" on="1"/>
        <pt x="280" y="-100" on="1"/>
      </contour>
      <contour>
        <pt x="156" y="529" on="1"/>
        <pt x="156" y="495" on="0"/>
        <pt x="170" y="455" on="0"/>
        <pt x="194" y="433" on="1"/>
        <pt x="230" y="398" on="1"/>
        <pt x="230" y="604" on="1"/>
        <pt x="156" y="595" on="0"/>
      </contour>
      <contour>
        <pt x="354" y="121" on="1"/>
        <pt x="354" y="154" on="0"/>
        <pt x="339" y="195" on="0"/>
        <pt x="316" y="218" on="1"/>
        <pt x="280" y="253" on="1"/>
        <pt x="280" y="46" on="1"/>
        <pt x="354" y="56" on="0"/>
      </contour>
    </TTGlyph>
    <TTGlyph name="dotaccent" xMin="150" yMin="715" xMax="230" yMax="825">
      <contour>
        <pt x="230" y="715" on="1"/>
        <pt x="150" y="715" on="1"/>
        <pt x="150" y="825" on="1"/>
        <pt x="230" y="825" on="1"/>
      </contour>
    </TTGlyph>
    <TTGlyph name="dotaccent.case" xMin="150" yMin="715" xMax="230" yMax="825">
      <contour>
        <pt x="230" y="715" on="1"/>
        <pt x="150" y="715" on="1"/>
        <pt x="150" y="825" on="1"/>
        <pt x="230" y="825" on="1"/>
      </contour>
    </TTGlyph>
    <TTGlyph name="dotlessi" xMin="100" yMin="0" xMax="170" yMax="650">
      <contour>
        <pt x="170" y="0" on="1"/>
        <pt x="100" y="0" on="1"/>
        <pt x="100" y="650" on="1"/>
        <pt x="170" y="650" on="1"/>
      </contour>
    </TTGlyph>
    <TTGlyph name="e" xMin="85" yMin="-15" xMax="415" yMax="665">
      <contour>
        <pt x="345" y="125" on="1"/>
        <pt x="345" y="180" on="1"/>
        <pt x="415" y="180" on="1"/>
        <pt x="415" y="125" on="1"/>
        <pt x="415" y="58" on="0"/>
        <pt x="333" y="-15" on="0"/>
        <pt x="169" y="-15" on="0"/>
        <pt x="85" y="58" on="0"/>
        <pt x="85" y="125" on="1"/>
        <pt x="85" y="525" on="1"/>
        <pt x="85" y="592" on="0"/>
        <pt x="167" y="665" on="0"/>
        <pt x="331" y="665" on="0"/>
        <pt x="415" y="592" on="0"/>
        <pt x="415" y="525" on="1"/>
        <pt x="415" y="305" on="1"/>
        <pt x="155" y="305" on="1"/>
        <pt x="155" y="125" on="1"/>
        <pt x="155" y="45" on="0"/>
        <pt x="345" y="45" on="0"/>
      </contour>
      <contour>
        <pt x="155" y="525" on="1"/>
        <pt x="155" y="365" on="1"/>
        <pt x="345" y="365" on="1"/>
        <pt x="345" y="525" on="1"/>
        <pt x="345" y="605" on="0"/>
        <pt x="155" y="605" on="0"/>
      </contour>
    </TTGlyph>
    <TTGlyph name="eacute" xMin="85" yMin="-15" xMax="415" yMax="847">
      <contour>
        <pt x="345" y="125" on="1"/>
        <pt x="345" y="180" on="1"/>
        <pt x="415" y="180" on="1"/>
        <pt x="415" y="125" on="1"/>
        <pt x="415" y="58" on="0"/>
        <pt x="333" y="-15" on="0"/>
        <pt x="169" y="-15" on="0"/>
        <pt x="85" y="58" on="0"/>
        <pt x="85" y="125" on="1"/>
        <pt x="85" y="525" on="1"/>
        <pt x="85" y="592" on="0"/>
        <pt x="167" y="665" on="0"/>
        <pt x="331" y="665" on="0"/>
        <pt x="415" y="592" on="0"/>
        <pt x="415" y="525" on="1"/>
        <pt x="415" y="305" on="1"/>
        <pt x="155" y="305" on="1"/>
        <pt x="155" y="125" on="1"/>
        <pt x="155" y="45" on="0"/>
        <pt x="345" y="45" on="0"/>
      </contour>
      <contour>
        <pt x="155" y="525" on="1"/>
        <pt x="155" y="365" on="1"/>
        <pt x="345" y="365" on="1"/>
        <pt x="345" y="525" on="1"/>
        <pt x="345" y="605" on="0"/>
        <pt x="155" y="605" on="0"/>
      </contour>
      <contour>
        <pt x="369" y="793" on="1"/>
        <pt x="331" y="755" on="1"/>
        <pt x="218" y="698" on="1"/>
        <pt x="192" y="724" on="1"/>
        <pt x="315" y="847" on="1"/>
      </contour>
    </TTGlyph>
    <TTGlyph name="ebreve" xMin="85" yMin="-15" xMax="415" yMax="816">
      <contour>
        <pt x="345" y="125" on="1"/>
        <pt x="345" y="180" on="1"/>
        <pt x="415" y="180" on="1"/>
        <pt x="415" y="125" on="1"/>
        <pt x="415" y="58" on="0"/>
        <pt x="333" y="-15" on="0"/>
        <pt x="169" y="-15" on="0"/>
        <pt x="85" y="58" on="0"/>
        <pt x="85" y="125" on="1"/>
        <pt x="85" y="525" on="1"/>
        <pt x="85" y="592" on="0"/>
        <pt x="167" y="665" on="0"/>
        <pt x="331" y="665" on="0"/>
        <pt x="415" y="592" on="0"/>
        <pt x="415" y="525" on="1"/>
        <pt x="415" y="305" on="1"/>
        <pt x="155" y="305" on="1"/>
        <pt x="155" y="125" on="1"/>
        <pt x="155" y="45" on="0"/>
        <pt x="345" y="45" on="0"/>
      </contour>
      <contour>
        <pt x="155" y="525" on="1"/>
        <pt x="155" y="365" on="1"/>
        <pt x="345" y="365" on="1"/>
        <pt x="345" y="525" on="1"/>
        <pt x="345" y="605" on="0"/>
        <pt x="155" y="605" on="0"/>
      </contour>
      <contour>
        <pt x="207" y="816" on="1"/>
        <pt x="207" y="796" on="1"/>
        <pt x="207" y="765" on="0"/>
        <pt x="293" y="765" on="0"/>
        <pt x="293" y="796" on="1"/>
        <pt x="293" y="816" on="1"/>
        <pt x="348" y="816" on="1"/>
        <pt x="348" y="790" on="1"/>
        <pt x="348" y="715" on="0"/>
        <pt x="152" y="715" on="0"/>
        <pt x="152" y="790" on="1"/>
        <pt x="152" y="816" on="1"/>
      </contour>
    </TTGlyph>
    <TTGlyph name="ecaron" xMin="85" yMin="-15" xMax="415" yMax="840">
      <contour>
        <pt x="345" y="125" on="1"/>
        <pt x="345" y="180" on="1"/>
        <pt x="415" y="180" on="1"/>
        <pt x="415" y="125" on="1"/>
        <pt x="415" y="58" on="0"/>
        <pt x="333" y="-15" on="0"/>
        <pt x="169" y="-15" on="0"/>
        <pt x="85" y="58" on="0"/>
        <pt x="85" y="125" on="1"/>
        <pt x="85" y="525" on="1"/>
        <pt x="85" y="592" on="0"/>
        <pt x="167" y="665" on="0"/>
        <pt x="331" y="665" on="0"/>
        <pt x="415" y="592" on="0"/>
        <pt x="415" y="525" on="1"/>
        <pt x="415" y="305" on="1"/>
        <pt x="155" y="305" on="1"/>
        <pt x="155" y="125" on="1"/>
        <pt x="155" y="45" on="0"/>
        <pt x="345" y="45" on="0"/>
      </contour>
      <contour>
        <pt x="155" y="525" on="1"/>
        <pt x="155" y="365" on="1"/>
        <pt x="345" y="365" on="1"/>
        <pt x="345" y="525" on="1"/>
        <pt x="345" y="605" on="0"/>
        <pt x="155" y="605" on="0"/>
      </contour>
      <contour>
        <pt x="250" y="778" on="1"/>
        <pt x="338" y="840" on="1"/>
        <pt x="364" y="814" on="1"/>
        <pt x="266" y="701" on="1"/>
        <pt x="234" y="701" on="1"/>
        <pt x="136" y="814" on="1"/>
        <pt x="162" y="840" on="1"/>
      </contour>
    </TTGlyph>
</ttFont>
